<svg width="4032" height="4032" viewBox="0 0 4032 4032" fill="none" xmlns="http://www.w3.org/2000/svg">
<path d="M3715.72 3205.49C3774.88 3078.3 3801.04 2936.76 3819.18 2799.3C3869.23 2420.08 3849.24 2030.3 3739.78 1661.51C3490.17 820.609 3010.18 318.487 2402.18 264.039C1794.18 209.591 1211.78 536.272 987.776 1153.34C763.774 1770.4 130.178 2284.63 238.977 2786.75C347.777 3288.87 821.375 3633.69 1755.78 3748.64C2162.81 3798.71 2593.74 3821.28 2994.56 3720.61C3223.36 3663.14 3448.27 3551.95 3602.79 3379.1C3650.21 3326.07 3686.89 3267.48 3715.72 3205.49Z" fill="#92E3A9"/>
<path opacity="0.7" d="M3715.72 3205.49C3774.88 3078.3 3801.04 2936.76 3819.18 2799.3C3869.23 2420.08 3849.24 2030.3 3739.78 1661.51C3490.17 820.609 3010.18 318.487 2402.18 264.039C1794.18 209.591 1211.78 536.272 987.776 1153.34C763.774 1770.4 130.178 2284.63 238.977 2786.75C347.777 3288.87 821.375 3633.69 1755.78 3748.64C2162.81 3798.71 2593.74 3821.28 2994.56 3720.61C3223.36 3663.14 3448.27 3551.95 3602.79 3379.1C3650.21 3326.07 3686.89 3267.48 3715.72 3205.49Z" fill="white"/>
<path d="M3791.94 3394.94H3894.91" stroke="#263238" stroke-miterlimit="10" stroke-linecap="round" stroke-linejoin="round"/>
<path d="M782.264 3394.94H3729.82" stroke="#263238" stroke-miterlimit="10" stroke-linecap="round" stroke-linejoin="round"/>
<path d="M185.472 3394.94H692.528" stroke="#263238" stroke-miterlimit="10" stroke-linecap="round" stroke-linejoin="round"/>
<path d="M2136.28 937.399H2016.82V1056.86H2136.28V937.399Z" fill="#92E3A9" stroke="#263238" stroke-miterlimit="10" stroke-linecap="round" stroke-linejoin="round"/>
<path d="M2351.11 1111.63L2261.11 1190.19L2339.67 1280.19L2429.67 1201.63L2351.11 1111.63Z" fill="#92E3A9" stroke="#263238" stroke-miterlimit="10" stroke-linecap="round" stroke-linejoin="round"/>
<path d="M1679.03 579.613L1589.03 658.158L1667.57 748.159L1757.57 669.614L1679.03 579.613Z" fill="#263238" stroke="#263238" stroke-miterlimit="10" stroke-linecap="round" stroke-linejoin="round"/>
<path d="M1679 1063.45L1589 1141.99L1667.55 1231.99L1757.55 1153.45L1679 1063.45Z" fill="white" stroke="#263238" stroke-miterlimit="10" stroke-linecap="round" stroke-linejoin="round"/>
<path d="M2211.31 574.051L2121.31 652.608L2199.87 742.61L2289.87 664.053L2211.31 574.051Z" fill="#92E3A9" stroke="#263238" stroke-miterlimit="10" stroke-linecap="round" stroke-linejoin="round"/>
<path d="M2124.02 1138.03L2149.34 1189.34L2205.96 1197.56L2164.98 1237.49L2174.66 1293.88L2124.02 1267.26L2073.38 1293.88L2083.05 1237.49L2042.09 1197.56L2098.7 1189.34L2124.02 1138.03Z" fill="#263238" stroke="#263238" stroke-miterlimit="10" stroke-linecap="round" stroke-linejoin="round"/>
<path d="M1692.8 774.136L1718.11 825.439L1774.73 833.664L1733.76 873.597L1743.43 929.989L1692.8 903.361L1642.15 929.989L1651.82 873.597L1610.86 833.664L1667.47 825.439L1692.8 774.136Z" fill="#92E3A9" stroke="#263238" stroke-miterlimit="10" stroke-linecap="round" stroke-linejoin="round"/>
<path d="M2440.44 489.59L2423.01 544.078L2458 589.333L2400.79 589.583L2368.57 636.855L2350.65 582.527L2295.73 566.48L2341.87 532.652L2340.16 475.47L2386.59 508.895L2440.44 489.59Z" fill="white" stroke="#263238" stroke-miterlimit="10" stroke-linecap="round" stroke-linejoin="round"/>
<path d="M2058.92 1393.54L2115.69 1400.59L2153.68 1357.81L2164.53 1413.98L2216.95 1436.89L2166.88 1464.57L2161.29 1521.5L2119.49 1482.43L2063.62 1494.71L2087.86 1442.89L2058.92 1393.54Z" fill="#92E3A9" stroke="#263238" stroke-miterlimit="10" stroke-linecap="round" stroke-linejoin="round"/>
<path d="M2377.95 998.475C2388.65 953.356 2360.75 908.103 2315.63 897.401C2270.51 886.699 2225.26 914.599 2214.56 959.718C2203.86 1004.84 2231.76 1050.09 2276.88 1060.79C2322 1071.49 2367.25 1043.59 2377.95 998.475Z" fill="white" stroke="#263238" stroke-miterlimit="10" stroke-linecap="round" stroke-linejoin="round"/>
<path d="M2029.65 1572.72C2062.44 1539.93 2062.44 1486.77 2029.65 1453.98C1996.86 1421.19 1943.7 1421.19 1910.91 1453.98C1878.12 1486.77 1878.12 1539.93 1910.91 1572.72C1943.7 1605.51 1996.86 1605.51 2029.65 1572.72Z" fill="white" stroke="#263238" stroke-miterlimit="10" stroke-linecap="round" stroke-linejoin="round"/>
<path d="M2585.7 798.253C2629.13 782.005 2651.16 733.625 2634.92 690.194C2618.67 646.763 2570.29 624.727 2526.86 640.975C2483.42 657.224 2461.39 705.603 2477.64 749.035C2493.89 792.466 2542.27 814.502 2585.7 798.253Z" fill="#263238" stroke="#263238" stroke-miterlimit="10" stroke-linecap="round" stroke-linejoin="round"/>
<path d="M2012.38 847.948C2023.09 802.829 1995.18 757.577 1950.07 746.874C1904.95 736.172 1859.69 764.072 1848.99 809.191C1838.29 854.31 1866.19 899.563 1911.31 910.265C1956.43 920.968 2001.68 893.067 2012.38 847.948Z" fill="white" stroke="#263238" stroke-miterlimit="10" stroke-linecap="round" stroke-linejoin="round"/>
<path d="M1934.97 1084.77L1800.79 1000.45L1794.85 1158.81L1934.97 1084.77Z" fill="#263238" stroke="#263238" stroke-miterlimit="10" stroke-linecap="round" stroke-linejoin="round"/>
<path d="M2563.34 1028.01L2537.64 871.622L2415.05 972.075L2563.34 1028.01Z" fill="#263238" stroke="#263238" stroke-miterlimit="10" stroke-linecap="round" stroke-linejoin="round"/>
<path d="M1985.94 1379.76L1992.32 1221.41L1851.99 1295.06L1985.94 1379.76Z" fill="#92E3A9" stroke="#263238" stroke-miterlimit="10" stroke-linecap="round" stroke-linejoin="round"/>
<path d="M2395.28 847.284L2401.66 688.932L2261.34 762.58L2395.28 847.284Z" fill="#92E3A9" stroke="#263238" stroke-miterlimit="10" stroke-linecap="round" stroke-linejoin="round"/>
<path d="M1847.41 544.143L1930.05 679.376L2005.85 540.199L1847.41 544.143Z" fill="#92E3A9" stroke="#263238" stroke-miterlimit="10" stroke-linecap="round" stroke-linejoin="round"/>
<g opacity="0.3">
<path d="M3165.61 1234.63C3164.56 1234.63 3163.55 1234.22 3162.8 1233.49C3162.01 1232.73 3161.58 1231.69 3161.58 1230.6V1178.24C3161.58 1151.45 3159.05 1057.12 3159.02 1056.17C3158.97 1053.99 3160.64 1052.16 3162.81 1052.03C3163.45 1051.99 3227.68 1048.13 3281.04 1050.09C3334.04 1051.99 3362.32 1050.11 3362.61 1050.09C3363.66 1050.06 3364.76 1050.38 3365.57 1051.11C3366.38 1051.84 3366.86 1052.85 3366.91 1053.94L3374.6 1228.49C3374.65 1229.58 3374.24 1230.66 3373.48 1231.45C3372.71 1232.25 3371.66 1232.7 3370.57 1232.7H3278.34C3242.93 1232.7 3166.48 1234.61 3165.72 1234.63C3165.68 1234.63 3165.64 1234.63 3165.61 1234.63ZM3167.19 1059.87C3167.68 1078.08 3169.65 1154.49 3169.65 1178.24V1226.47C3186.13 1226.07 3247.61 1224.63 3278.35 1224.63H3366.36L3359.04 1058.36C3349.33 1058.81 3322.61 1059.67 3280.77 1058.15C3235.28 1056.5 3181.86 1059.07 3167.19 1059.87Z" fill="black"/>
<path d="M3296.18 1068.75C3296.18 1061.35 3290.18 1055.34 3282.77 1055.34C3275.37 1055.34 3269.36 1061.34 3269.36 1068.75C3269.36 1076.16 3275.37 1082.16 3282.77 1082.16C3290.18 1082.16 3296.18 1076.16 3296.18 1068.75Z" fill="black"/>
<path d="M3298.42 1072.96C3305.82 1072.96 3311.83 1066.96 3311.83 1059.55C3311.83 1052.15 3305.82 1046.14 3298.42 1046.14C3291.01 1046.14 3285.01 1052.15 3285.01 1059.55C3285.01 1066.96 3291.01 1072.96 3298.42 1072.96Z" fill="black"/>
<path d="M3266.23 1085.54C3265.13 1085.54 3264.04 1085.08 3263.24 1084.2C3261.74 1082.55 3261.88 1080 3263.53 1078.51L3272.73 1070.23C3274.38 1068.73 3276.93 1068.87 3278.43 1070.53C3279.93 1072.18 3279.79 1074.73 3278.14 1076.22L3268.93 1084.5C3268.16 1085.19 3267.19 1085.54 3266.23 1085.54Z" fill="black"/>
<path d="M3312.32 1121.94H3208.31C3206.08 1121.94 3204.28 1120.13 3204.28 1117.9C3204.28 1115.68 3206.08 1113.87 3208.31 1113.87H3312.32C3314.54 1113.87 3316.35 1115.68 3316.35 1117.9C3316.35 1120.14 3314.54 1121.94 3312.32 1121.94Z" fill="black"/>
<path d="M3318.44 1156.61H3208.31C3206.08 1156.61 3204.28 1154.8 3204.28 1152.58C3204.28 1150.35 3206.08 1148.55 3208.31 1148.55H3318.44C3320.67 1148.55 3322.47 1150.35 3322.47 1152.58C3322.47 1154.8 3320.67 1156.61 3318.44 1156.61Z" fill="black"/>
<path d="M3320.48 1189.25H3208.31C3206.08 1189.25 3204.28 1187.44 3204.28 1185.21C3204.28 1182.99 3206.08 1181.18 3208.31 1181.18H3320.48C3322.71 1181.18 3324.51 1182.99 3324.51 1185.21C3324.51 1187.44 3322.71 1189.25 3320.48 1189.25Z" fill="black"/>
</g>
<g opacity="0.3">
<path d="M3677.59 1825.59C3676.54 1825.59 3675.52 1825.18 3674.77 1824.45C3673.99 1823.69 3673.56 1822.65 3673.56 1821.56V1769.2C3673.56 1742.41 3671.02 1648.08 3671 1647.13C3670.94 1644.95 3672.61 1643.12 3674.79 1642.99C3675.43 1642.95 3739.66 1639.1 3793.02 1641.05C3846.02 1642.95 3874.29 1641.07 3874.58 1641.05C3875.64 1641.02 3876.74 1641.34 3877.54 1642.06C3878.36 1642.79 3878.83 1643.81 3878.89 1644.89L3886.57 1819.44C3886.62 1820.54 3886.22 1821.61 3885.45 1822.41C3884.69 1823.21 3883.64 1823.65 3882.54 1823.65H3790.31C3754.9 1823.65 3678.45 1825.57 3677.68 1825.58C3677.66 1825.59 3677.62 1825.59 3677.59 1825.59ZM3679.16 1650.83C3679.64 1669.04 3681.62 1745.45 3681.62 1769.2V1817.43C3698.09 1817.03 3759.58 1815.59 3790.31 1815.59H3878.33L3871.01 1649.32C3861.29 1649.77 3834.58 1650.63 3792.73 1649.11C3747.26 1647.46 3693.84 1650.04 3679.16 1650.83Z" fill="black"/>
<path d="M3808.15 1659.72C3808.15 1652.31 3802.15 1646.31 3794.74 1646.31C3787.33 1646.31 3781.33 1652.31 3781.33 1659.72C3781.33 1667.13 3787.33 1673.13 3794.74 1673.13C3802.15 1673.13 3808.15 1667.12 3808.15 1659.72Z" fill="black"/>
<path d="M3823.8 1650.51C3823.8 1643.11 3817.8 1637.1 3810.38 1637.1C3802.97 1637.1 3796.97 1643.11 3796.97 1650.51C3796.97 1657.92 3802.97 1663.93 3810.38 1663.93C3817.8 1663.93 3823.8 1657.92 3823.8 1650.51Z" fill="black"/>
<path d="M3778.21 1676.5C3777.11 1676.5 3776.02 1676.05 3775.22 1675.17C3773.72 1673.51 3773.86 1670.96 3775.51 1669.47L3784.71 1661.19C3786.35 1659.69 3788.92 1659.83 3790.4 1661.49C3791.89 1663.14 3791.77 1665.69 3790.11 1667.18L3780.91 1675.46C3780.14 1676.15 3779.17 1676.5 3778.21 1676.5Z" fill="black"/>
<path d="M3824.29 1712.91H3720.28C3718.05 1712.91 3716.25 1711.1 3716.25 1708.87C3716.25 1706.65 3718.05 1704.84 3720.28 1704.84H3824.29C3826.51 1704.84 3828.32 1706.65 3828.32 1708.87C3828.32 1711.1 3826.52 1712.91 3824.29 1712.91Z" fill="black"/>
<path d="M3830.41 1747.57H3720.28C3718.05 1747.57 3716.25 1745.77 3716.25 1743.54C3716.25 1741.32 3718.05 1739.51 3720.28 1739.51H3830.41C3832.63 1739.51 3834.44 1741.32 3834.44 1743.54C3834.44 1745.77 3832.64 1747.57 3830.41 1747.57Z" fill="black"/>
<path d="M3832.45 1780.21H3720.28C3718.05 1780.21 3716.25 1778.4 3716.25 1776.18C3716.25 1773.95 3718.05 1772.14 3720.28 1772.14H3832.45C3834.67 1772.14 3836.48 1773.95 3836.48 1776.18C3836.48 1778.4 3834.68 1780.21 3832.45 1780.21Z" fill="black"/>
</g>
<g opacity="0.3">
<path d="M1298.39 1534.99C1297.34 1534.99 1296.33 1534.58 1295.58 1533.85C1294.8 1533.09 1294.36 1532.05 1294.36 1530.96V1478.6C1294.36 1451.81 1291.83 1357.48 1291.8 1356.53C1291.75 1354.35 1293.42 1352.52 1295.59 1352.39C1296.23 1352.35 1360.46 1348.49 1413.82 1350.45C1466.83 1352.35 1495.1 1350.47 1495.39 1350.45C1496.44 1350.42 1497.54 1350.74 1498.35 1351.47C1499.16 1352.2 1499.64 1353.21 1499.69 1354.3L1507.38 1528.85C1507.43 1529.94 1507.02 1531.01 1506.26 1531.81C1505.49 1532.61 1504.44 1533.05 1503.35 1533.05H1411.11C1375.7 1533.05 1299.26 1534.97 1298.49 1534.99C1298.46 1534.99 1298.42 1534.99 1298.39 1534.99ZM1299.96 1360.23C1300.44 1378.44 1302.42 1454.85 1302.42 1478.6V1526.83C1318.9 1526.43 1380.39 1524.99 1411.12 1524.99H1499.14L1491.82 1358.72C1482.1 1359.17 1455.38 1360.03 1413.54 1358.51C1368.06 1356.86 1314.63 1359.44 1299.96 1360.23Z" fill="black"/>
<path d="M1428.96 1369.11C1428.96 1361.71 1422.96 1355.7 1415.55 1355.7C1408.14 1355.7 1402.14 1361.71 1402.14 1369.11C1402.14 1376.52 1408.14 1382.52 1415.55 1382.52C1422.95 1382.52 1428.96 1376.52 1428.96 1369.11Z" fill="black"/>
<path d="M1444.6 1359.9C1444.6 1352.5 1438.59 1346.49 1431.19 1346.49C1423.79 1346.49 1417.78 1352.49 1417.78 1359.9C1417.78 1367.31 1423.78 1373.32 1431.19 1373.32C1438.59 1373.32 1444.6 1367.32 1444.6 1359.9Z" fill="black"/>
<path d="M1399.01 1385.9C1397.9 1385.9 1396.81 1385.44 1396.02 1384.56C1394.52 1382.91 1394.65 1380.36 1396.31 1378.87L1405.51 1370.59C1407.15 1369.09 1409.71 1369.23 1411.2 1370.89C1412.7 1372.54 1412.56 1375.09 1410.91 1376.58L1401.71 1384.86C1400.93 1385.55 1399.97 1385.9 1399.01 1385.9Z" fill="black"/>
<path d="M1445.09 1422.3H1341.08C1338.86 1422.3 1337.05 1420.49 1337.05 1418.26C1337.05 1416.04 1338.86 1414.23 1341.08 1414.23H1445.09C1447.32 1414.23 1449.12 1416.04 1449.12 1418.26C1449.12 1420.5 1447.32 1422.3 1445.09 1422.3Z" fill="black"/>
<path d="M1451.21 1456.97H1341.08C1338.86 1456.97 1337.05 1455.16 1337.05 1452.94C1337.05 1450.71 1338.86 1448.91 1341.08 1448.91H1451.21C1453.44 1448.91 1455.24 1450.71 1455.24 1452.94C1455.24 1455.16 1453.44 1456.97 1451.21 1456.97Z" fill="black"/>
<path d="M1453.25 1489.61H1341.08C1338.86 1489.61 1337.05 1487.8 1337.05 1485.57C1337.05 1483.35 1338.86 1481.54 1341.08 1481.54H1453.25C1455.48 1481.54 1457.29 1483.35 1457.29 1485.57C1457.29 1487.8 1455.48 1489.61 1453.25 1489.61Z" fill="black"/>
</g>
<g opacity="0.3">
<path d="M2885.82 1500.27C2884.78 1500.27 2883.76 1499.86 2883.01 1499.12C2882.23 1498.36 2881.79 1497.32 2881.79 1496.23V1443.88C2881.79 1417.09 2879.26 1322.75 2879.24 1321.8C2879.18 1319.63 2880.85 1317.79 2883.03 1317.67C2883.66 1317.63 2947.89 1313.77 3001.25 1315.72C3054.26 1317.63 3082.53 1315.75 3082.82 1315.73C3083.88 1315.7 3084.97 1316.02 3085.78 1316.75C3086.59 1317.47 3087.07 1318.49 3087.13 1319.58L3094.81 1494.12C3094.86 1495.22 3094.46 1496.29 3093.69 1497.09C3092.92 1497.89 3091.88 1498.33 3090.78 1498.33H2998.54C2963.13 1498.33 2886.69 1500.25 2885.92 1500.27C2885.9 1500.27 2885.86 1500.27 2885.82 1500.27ZM2887.4 1325.5C2887.88 1343.7 2889.86 1420.12 2889.86 1443.87V1492.1C2906.33 1491.69 2967.82 1490.26 2998.55 1490.26H3086.57L3079.25 1323.99C3069.53 1324.44 3042.81 1325.29 3000.97 1323.78C2955.49 1322.13 2902.06 1324.71 2887.4 1325.5Z" fill="black"/>
<path d="M3016.39 1334.39C3016.39 1326.99 3010.39 1320.98 3002.98 1320.98C2995.58 1320.98 2989.57 1326.99 2989.57 1334.39C2989.57 1341.79 2995.57 1347.8 3002.98 1347.8C3010.39 1347.79 3016.39 1341.79 3016.39 1334.39Z" fill="black"/>
<path d="M3032.03 1325.18C3032.03 1317.78 3026.02 1311.77 3018.62 1311.77C3011.22 1311.77 3005.21 1317.77 3005.21 1325.18C3005.21 1332.59 3011.21 1338.59 3018.62 1338.59C3026.03 1338.59 3032.03 1332.59 3032.03 1325.18Z" fill="black"/>
<path d="M2986.44 1351.17C2985.33 1351.17 2984.25 1350.72 2983.45 1349.84C2981.95 1348.19 2982.08 1345.64 2983.74 1344.15L2992.94 1335.87C2994.58 1334.37 2997.14 1334.51 2998.63 1336.16C3000.12 1337.82 2999.99 1340.37 2998.34 1341.86L2989.14 1350.14C2988.37 1350.82 2987.4 1351.17 2986.44 1351.17Z" fill="black"/>
<path d="M3032.52 1387.57H2928.51C2926.29 1387.57 2924.48 1385.77 2924.48 1383.54C2924.48 1381.31 2926.29 1379.51 2928.51 1379.51H3032.52C3034.75 1379.51 3036.56 1381.31 3036.56 1383.54C3036.56 1385.77 3034.76 1387.57 3032.52 1387.57Z" fill="black"/>
<path d="M3038.64 1422.25H2928.51C2926.29 1422.25 2924.48 1420.44 2924.48 1418.22C2924.48 1415.99 2926.29 1414.18 2928.51 1414.18H3038.64C3040.87 1414.18 3042.68 1415.99 3042.68 1418.22C3042.68 1420.44 3040.87 1422.25 3038.64 1422.25Z" fill="black"/>
<path d="M3040.68 1454.87H2928.51C2926.29 1454.87 2924.48 1453.07 2924.48 1450.84C2924.48 1448.62 2926.29 1446.81 2928.51 1446.81H3040.68C3042.91 1446.81 3044.72 1448.62 3044.72 1450.84C3044.72 1453.08 3042.91 1454.87 3040.68 1454.87Z" fill="black"/>
</g>
<g opacity="0.3">
<path d="M3380.41 1500.27C3379.36 1500.27 3378.35 1499.86 3377.6 1499.12C3376.82 1498.36 3376.38 1497.32 3376.38 1496.23V1443.88C3376.38 1417.09 3373.85 1322.75 3373.82 1321.8C3373.77 1319.63 3375.44 1317.79 3377.61 1317.67C3378.25 1317.63 3442.48 1313.77 3495.84 1315.72C3548.84 1317.63 3577.12 1315.75 3577.41 1315.73C3578.46 1315.7 3579.56 1316.02 3580.37 1316.75C3581.18 1317.47 3581.66 1318.49 3581.71 1319.58L3589.4 1494.12C3589.45 1495.22 3589.04 1496.29 3588.28 1497.09C3587.51 1497.89 3586.46 1498.33 3585.37 1498.33H3493.13C3457.72 1498.33 3381.27 1500.25 3380.51 1500.27C3380.48 1500.27 3380.44 1500.27 3380.41 1500.27ZM3381.98 1325.5C3382.47 1343.7 3384.44 1420.12 3384.44 1443.87V1492.1C3400.92 1491.69 3462.41 1490.26 3493.14 1490.26H3581.16L3573.83 1323.99C3564.12 1324.44 3537.4 1325.29 3495.56 1323.78C3450.08 1322.13 3396.66 1324.71 3381.98 1325.5Z" fill="black"/>
<path d="M3510.98 1334.39C3510.98 1326.99 3504.98 1320.98 3497.56 1320.98C3490.15 1320.98 3484.15 1326.99 3484.15 1334.39C3484.15 1341.79 3490.15 1347.8 3497.56 1347.8C3504.98 1347.8 3510.98 1341.79 3510.98 1334.39Z" fill="black"/>
<path d="M3526.62 1325.18C3526.62 1317.78 3520.62 1311.77 3513.21 1311.77C3505.8 1311.77 3499.8 1317.77 3499.8 1325.18C3499.8 1332.59 3505.81 1338.59 3513.21 1338.59C3520.61 1338.59 3526.62 1332.59 3526.62 1325.18Z" fill="black"/>
<path d="M3481.03 1351.17C3479.93 1351.17 3478.84 1350.72 3478.04 1349.84C3476.54 1348.19 3476.68 1345.64 3478.33 1344.15L3487.53 1335.87C3489.18 1334.37 3491.74 1334.51 3493.23 1336.16C3494.73 1337.82 3494.59 1340.37 3492.94 1341.86L3483.74 1350.14C3482.96 1350.82 3481.99 1351.17 3481.03 1351.17Z" fill="black"/>
<path d="M3527.12 1387.57H3423.11C3420.88 1387.57 3419.08 1385.77 3419.08 1383.54C3419.08 1381.31 3420.88 1379.51 3423.11 1379.51H3527.12C3529.35 1379.51 3531.15 1381.31 3531.15 1383.54C3531.15 1385.77 3529.35 1387.57 3527.12 1387.57Z" fill="black"/>
<path d="M3533.23 1422.25H3423.1C3420.88 1422.25 3419.07 1420.44 3419.07 1418.22C3419.07 1415.99 3420.88 1414.18 3423.1 1414.18H3533.23C3535.46 1414.18 3537.26 1415.99 3537.26 1418.22C3537.26 1420.44 3535.47 1422.25 3533.23 1422.25Z" fill="black"/>
<path d="M3535.27 1454.87H3423.1C3420.88 1454.87 3419.07 1453.07 3419.07 1450.84C3419.07 1448.62 3420.88 1446.81 3423.1 1446.81H3535.27C3537.5 1446.81 3539.3 1448.62 3539.3 1450.84C3539.3 1453.08 3537.51 1454.87 3535.27 1454.87Z" fill="black"/>
</g>
<g opacity="0.3">
<path d="M3470.58 1085.78C3469.54 1085.78 3468.52 1085.37 3467.77 1084.63C3466.99 1083.87 3466.55 1082.83 3466.55 1081.75V1029.39C3466.55 1002.6 3464.02 908.265 3464 907.313C3463.94 905.136 3465.61 903.305 3467.79 903.176C3468.42 903.136 3532.65 899.281 3586.01 901.233C3639.02 903.136 3667.29 901.265 3667.58 901.241C3668.64 901.209 3669.73 901.531 3670.54 902.257C3671.35 902.983 3671.83 903.999 3671.89 905.087L3679.57 1079.63C3679.62 1080.73 3679.22 1081.8 3678.45 1082.6C3677.68 1083.4 3676.64 1083.84 3675.54 1083.84H3583.3C3547.89 1083.84 3471.45 1085.76 3470.68 1085.78C3470.66 1085.78 3470.62 1085.78 3470.58 1085.78ZM3472.16 911.014C3472.65 929.223 3474.62 1005.64 3474.62 1029.39V1077.62C3491.1 1077.21 3552.59 1075.78 3583.32 1075.78H3671.34L3664.02 909.506C3654.3 909.958 3627.58 910.813 3585.74 909.297C3540.26 907.644 3486.83 910.216 3472.16 911.014Z" fill="black"/>
<path d="M3601.15 919.901C3601.15 912.498 3595.14 906.49 3587.74 906.49C3580.34 906.49 3574.33 912.49 3574.33 919.901C3574.33 927.311 3580.33 933.311 3587.74 933.311C3595.15 933.303 3601.15 927.303 3601.15 919.901Z" fill="black"/>
<path d="M3603.39 924.11C3610.8 924.11 3616.8 918.106 3616.8 910.699C3616.8 903.293 3610.8 897.289 3603.39 897.289C3595.98 897.289 3589.98 903.293 3589.98 910.699C3589.98 918.106 3595.98 924.11 3603.39 924.11Z" fill="black"/>
<path d="M3571.21 936.682C3570.1 936.682 3569.01 936.23 3568.21 935.343C3566.71 933.69 3566.85 931.142 3568.5 929.65L3577.71 921.368C3579.35 919.868 3581.91 920.013 3583.4 921.666C3584.9 923.32 3584.76 925.868 3583.11 927.36L3573.91 935.641C3573.13 936.335 3572.17 936.682 3571.21 936.682Z" fill="black"/>
<path d="M3617.29 973.083H3513.28C3511.06 973.083 3509.25 971.276 3509.25 969.051C3509.25 966.825 3511.06 965.019 3513.28 965.019H3617.29C3619.52 965.019 3621.32 966.825 3621.32 969.051C3621.32 971.284 3619.52 973.083 3617.29 973.083Z" fill="black"/>
<path d="M3623.4 1007.76H3513.27C3511.05 1007.76 3509.24 1005.95 3509.24 1003.73C3509.24 1001.5 3511.05 999.693 3513.27 999.693H3623.4C3625.63 999.693 3627.44 1001.5 3627.44 1003.73C3627.44 1005.95 3625.64 1007.76 3623.4 1007.76Z" fill="black"/>
<path d="M3625.44 1040.39H3513.27C3511.05 1040.39 3509.24 1038.59 3509.24 1036.36C3509.24 1034.14 3511.05 1032.33 3513.27 1032.33H3625.44C3627.67 1032.33 3629.48 1034.14 3629.48 1036.36C3629.48 1038.59 3627.68 1040.39 3625.44 1040.39Z" fill="black"/>
</g>
<g opacity="0.3">
<path d="M2852.35 1042.77C2851.3 1042.77 2850.28 1042.36 2849.54 1041.63C2848.75 1040.87 2848.32 1039.83 2848.32 1038.74V986.38C2848.32 959.591 2845.79 865.259 2845.76 864.307C2845.7 862.13 2847.37 860.299 2849.55 860.17C2850.19 860.13 2914.42 856.275 2967.78 858.227C3020.78 860.13 3049.05 858.251 3049.34 858.235C3050.4 858.203 3051.5 858.525 3052.3 859.251C3053.12 859.977 3053.59 860.993 3053.65 862.082L3061.34 1036.63C3061.38 1037.72 3060.98 1038.8 3060.22 1039.59C3059.45 1040.39 3058.4 1040.84 3057.3 1040.84H2965.07C2929.66 1040.84 2853.21 1042.76 2852.45 1042.77C2852.41 1042.77 2852.37 1042.77 2852.35 1042.77ZM2853.92 868C2854.4 886.209 2856.38 962.623 2856.38 986.372V1034.6C2872.86 1034.2 2934.34 1032.76 2965.08 1032.76H3053.09L3045.77 866.493C3036.06 866.944 3009.34 867.799 2967.5 866.283C2922.01 864.638 2868.59 867.21 2853.92 868Z" fill="black"/>
<path d="M2969.5 890.297C2976.91 890.297 2982.91 884.293 2982.91 876.887C2982.91 869.481 2976.91 863.477 2969.5 863.477C2962.1 863.477 2956.09 869.481 2956.09 876.887C2956.09 884.293 2962.1 890.297 2969.5 890.297Z" fill="black"/>
<path d="M2998.56 867.686C2998.56 860.283 2992.55 854.275 2985.15 854.275C2977.74 854.275 2971.74 860.275 2971.74 867.686C2971.74 875.089 2977.74 881.096 2985.15 881.096C2992.55 881.096 2998.56 875.097 2998.56 867.686Z" fill="black"/>
<path d="M2952.96 893.668C2951.86 893.668 2950.76 893.216 2949.97 892.329C2948.47 890.676 2948.61 888.128 2950.26 886.636L2959.46 878.354C2961.11 876.854 2963.67 876.992 2965.16 878.653C2966.66 880.306 2966.52 882.854 2964.87 884.346L2955.67 892.628C2954.89 893.329 2953.92 893.668 2952.96 893.668Z" fill="black"/>
<path d="M2999.05 930.077H2895.04C2892.81 930.077 2891.01 928.27 2891.01 926.045C2891.01 923.819 2892.81 922.013 2895.04 922.013H2999.05C3001.28 922.013 3003.08 923.819 3003.08 926.045C3003.08 928.27 3001.28 930.077 2999.05 930.077Z" fill="black"/>
<path d="M3005.17 964.744H2895.04C2892.81 964.744 2891.01 962.937 2891.01 960.712C2891.01 958.486 2892.81 956.68 2895.04 956.68H3005.17C3007.4 956.68 3009.2 958.486 3009.2 960.712C3009.2 962.945 3007.4 964.744 3005.17 964.744Z" fill="black"/>
<path d="M3007.21 997.379H2895.04C2892.81 997.379 2891.01 995.573 2891.01 993.347C2891.01 991.122 2892.81 989.315 2895.04 989.315H3007.21C3009.44 989.315 3011.24 991.122 3011.24 993.347C3011.24 995.581 3009.44 997.379 3007.21 997.379Z" fill="black"/>
</g>
<g opacity="0.3">
<path d="M592.204 1042.94H486.525V1148.62H592.204V1042.94Z" stroke="black" stroke-miterlimit="10" stroke-linecap="round" stroke-linejoin="round"/>
<path d="M640.637 1095.78H948.867" stroke="black" stroke-miterlimit="10" stroke-linecap="round" stroke-linejoin="round"/>
<path d="M592.204 1204.22H486.525V1309.9H592.204V1204.22Z" stroke="black" stroke-miterlimit="10" stroke-linecap="round" stroke-linejoin="round"/>
<path d="M640.637 1257.06H948.867" stroke="black" stroke-miterlimit="10" stroke-linecap="round" stroke-linejoin="round"/>
<path d="M592.204 1365.5H486.525V1471.18H592.204V1365.5Z" stroke="black" stroke-miterlimit="10" stroke-linecap="round" stroke-linejoin="round"/>
<path d="M640.637 1418.34H948.867" stroke="black" stroke-miterlimit="10" stroke-linecap="round" stroke-linejoin="round"/>
<path d="M592.204 1526.78H486.525V1632.46H592.204V1526.78Z" stroke="black" stroke-miterlimit="10" stroke-linecap="round" stroke-linejoin="round"/>
<path d="M640.637 1579.62H948.867" stroke="black" stroke-miterlimit="10" stroke-linecap="round" stroke-linejoin="round"/>
<path d="M513.411 1397.76L529.539 1440.77L642.435 1365.5" stroke="black" stroke-miterlimit="10" stroke-linecap="round" stroke-linejoin="round"/>
<path d="M513.411 1069.83L529.539 1112.83L642.435 1037.57" stroke="black" stroke-miterlimit="10" stroke-linecap="round" stroke-linejoin="round"/>
</g>
<g opacity="0.3">
<path d="M1085.63 1826.14H1013.38V1898.39H1085.63V1826.14Z" stroke="black" stroke-miterlimit="10" stroke-linecap="round" stroke-linejoin="round"/>
<path d="M1118.74 1862.27H1329.48" stroke="black" stroke-miterlimit="10" stroke-linecap="round" stroke-linejoin="round"/>
<path d="M1085.63 1936.41H1013.38V2008.66H1085.63V1936.41Z" stroke="black" stroke-miterlimit="10" stroke-linecap="round" stroke-linejoin="round"/>
<path d="M1118.74 1972.54H1329.48" stroke="black" stroke-miterlimit="10" stroke-linecap="round" stroke-linejoin="round"/>
<path d="M1085.63 2046.68H1013.38V2118.93H1085.63V2046.68Z" stroke="black" stroke-miterlimit="10" stroke-linecap="round" stroke-linejoin="round"/>
<path d="M1118.74 2082.8H1329.48" stroke="black" stroke-miterlimit="10" stroke-linecap="round" stroke-linejoin="round"/>
<path d="M1085.63 2156.94H1013.38V2229.2H1085.63V2156.94Z" stroke="black" stroke-miterlimit="10" stroke-linecap="round" stroke-linejoin="round"/>
<path d="M1118.74 2193.07H1329.48" stroke="black" stroke-miterlimit="10" stroke-linecap="round" stroke-linejoin="round"/>
<path d="M1031.76 2068.73L1042.78 2098.13L1119.97 2046.68" stroke="black" stroke-miterlimit="10" stroke-linecap="round" stroke-linejoin="round"/>
<path d="M1031.76 1844.52L1042.78 1873.92L1119.97 1822.46" stroke="black" stroke-miterlimit="10" stroke-linecap="round" stroke-linejoin="round"/>
</g>
<path opacity="0.3" d="M1404.03 763.87V723.075L1358.78 716.035C1356.54 708.027 1353.41 700.423 1349.41 693.335L1376.4 656.385L1347.55 627.532L1310.6 654.539C1303.52 650.539 1295.91 647.402 1287.9 645.168L1280.86 599.913H1240.07L1233.03 645.168C1225.02 647.402 1217.41 650.539 1210.33 654.539L1173.38 627.532L1144.52 656.385L1171.52 693.335C1167.52 700.415 1164.39 708.027 1162.15 716.035L1116.9 723.075V763.87L1162.15 770.91C1164.39 778.918 1167.52 786.53 1171.52 793.61L1144.52 830.56L1173.38 859.413L1210.33 832.406C1217.41 836.406 1225.02 839.551 1233.03 841.777L1240.07 887.032H1280.86L1287.9 841.777C1295.91 839.543 1303.51 836.406 1310.6 832.406L1347.55 859.413L1376.4 830.56L1349.41 793.61C1353.41 786.53 1356.55 778.918 1358.78 770.91L1404.03 763.87ZM1260.48 807.988C1224.85 807.988 1195.96 779.103 1195.96 743.476C1195.96 707.85 1224.85 678.964 1260.48 678.964C1296.1 678.964 1324.99 707.85 1324.99 743.476C1324.99 779.103 1296.1 807.988 1260.48 807.988Z" stroke="black" stroke-miterlimit="10" stroke-linecap="round" stroke-linejoin="round"/>
<path opacity="0.3" d="M1137.02 888.628V861.324L1106.74 856.614C1105.24 851.26 1103.15 846.163 1100.46 841.422L1118.53 816.697L1099.23 797.392L1074.5 815.464C1069.76 812.786 1064.67 810.682 1059.31 809.19L1054.6 778.901H1027.3L1022.59 809.19C1017.23 810.682 1012.14 812.786 1007.39 815.464L982.671 797.392L963.365 816.697L981.437 841.422C978.76 846.163 976.663 851.252 975.163 856.614L944.883 861.324V888.628L975.163 893.338C976.655 898.692 978.76 903.789 981.437 908.53L963.365 933.254L982.671 952.56L1007.39 934.488C1012.14 937.165 1017.22 939.27 1022.59 940.762L1027.3 971.042H1054.6L1059.31 940.762C1064.67 939.27 1069.76 937.165 1074.5 934.488L1099.23 952.56L1118.53 933.254L1100.46 908.53C1103.14 903.789 1105.24 898.7 1106.74 893.338L1137.02 888.628ZM1040.95 918.143C1017.1 918.143 997.775 898.813 997.775 874.968C997.775 851.123 1017.1 831.793 1040.95 831.793C1064.79 831.793 1084.12 851.123 1084.12 874.968C1084.12 898.813 1064.79 918.143 1040.95 918.143Z" stroke="black" stroke-miterlimit="10" stroke-linecap="round" stroke-linejoin="round"/>
<path opacity="0.3" d="M2575 2592.99L2553.33 2627.55L2587.92 2657.56C2585.56 2665.52 2584.17 2673.64 2583.8 2681.76L2541.3 2698.72L2550.41 2738.49L2596.06 2735.25C2599.93 2742.4 2604.71 2749.11 2610.31 2755.25L2592.23 2797.33L2626.79 2819L2656.8 2784.41C2664.76 2786.77 2672.88 2788.16 2681.01 2788.53L2697.96 2831.04L2737.74 2821.92L2734.49 2776.27C2741.65 2772.4 2748.35 2767.62 2754.49 2762.02L2796.57 2780.1L2818.25 2745.54L2783.65 2715.54C2786.02 2707.57 2787.4 2699.46 2787.77 2691.33L2830.28 2674.37L2821.17 2634.6L2775.52 2637.84C2771.65 2630.69 2766.86 2623.99 2761.27 2617.84L2779.35 2575.76L2744.78 2554.09L2714.78 2588.68C2706.81 2586.32 2698.7 2584.93 2690.57 2584.56L2673.61 2542.05L2633.84 2551.17L2637.08 2596.82C2629.93 2600.69 2623.23 2605.47 2617.08 2611.07L2575 2592.99ZM2720.06 2631.89C2750.24 2650.81 2759.36 2690.63 2740.44 2720.82C2721.5 2751 2681.69 2760.12 2651.51 2741.2C2621.32 2722.27 2612.2 2682.45 2631.13 2652.27C2650.06 2622.08 2689.88 2612.95 2720.06 2631.89Z" stroke="black" stroke-miterlimit="10" stroke-linecap="round" stroke-linejoin="round"/>
<path opacity="0.3" d="M2867.49 2629.16L2852.99 2652.29L2876.14 2672.37C2874.56 2677.7 2873.63 2683.14 2873.38 2688.57L2844.94 2699.92L2851.04 2726.53L2881.58 2724.36C2884.17 2729.15 2887.37 2733.63 2891.11 2737.74L2879.02 2765.9L2902.15 2780.41L2922.22 2757.26C2927.56 2758.84 2932.99 2759.77 2938.43 2760.02L2949.77 2788.46L2976.38 2782.36L2974.21 2751.82C2979 2749.22 2983.49 2746.03 2987.6 2742.28L3015.76 2754.37L3030.27 2731.25L3007.11 2711.17C3008.7 2705.84 3009.62 2700.4 3009.87 2694.96L3038.31 2683.62L3032.22 2657.01L3001.67 2659.18C2999.07 2654.39 2995.88 2649.9 2992.14 2645.79L3004.24 2617.63L2981.11 2603.12L2961.03 2626.28C2955.7 2624.7 2950.26 2623.77 2944.83 2623.52L2933.48 2595.08L2906.87 2601.17L2909.04 2631.72C2904.25 2634.32 2899.77 2637.51 2895.65 2641.26L2867.49 2629.16ZM2964.57 2655.19C2984.77 2667.86 2990.87 2694.51 2978.21 2714.71C2965.54 2734.91 2938.89 2741.01 2918.69 2728.34C2898.49 2715.67 2892.39 2689.03 2905.06 2668.83C2917.73 2648.63 2944.37 2642.52 2964.57 2655.19Z" stroke="black" stroke-miterlimit="10" stroke-linecap="round" stroke-linejoin="round"/>
<path d="M203.446 2456.49H883.91V2079.47H203.446V2456.49Z" fill="white" stroke="#263238" stroke-miterlimit="10" stroke-linecap="round" stroke-linejoin="round"/>
<path d="M224.133 2456.49H904.598V2079.47H224.133V2456.49Z" fill="white" stroke="#263238" stroke-miterlimit="10" stroke-linecap="round" stroke-linejoin="round"/>
<path d="M567.148 2137.73L454.236 2333.29H680.061L567.148 2137.73Z" fill="#92E3A9" stroke="#263238" stroke-miterlimit="10" stroke-linecap="round" stroke-linejoin="round"/>
<path d="M3887.84 2756.85H3207.38V3133.86H3887.84V2756.85Z" fill="white" stroke="#263238" stroke-miterlimit="10" stroke-linecap="round" stroke-linejoin="round"/>
<path d="M3867.15 2756.85H3186.68V3133.86H3867.15V2756.85Z" fill="white" stroke="#263238" stroke-miterlimit="10" stroke-linecap="round" stroke-linejoin="round"/>
<path d="M3514.74 2828.47L3550.81 2901.57L3631.49 2913.3L3573.11 2970.2L3586.89 3050.55L3514.74 3012.61L3442.58 3050.55L3456.36 2970.2L3397.98 2913.3L3478.66 2901.57L3514.74 2828.47Z" fill="#92E3A9" stroke="#263238" stroke-miterlimit="10" stroke-linecap="round" stroke-linejoin="round"/>
<path d="M1908.26 2086.7C1908.26 2086.7 1645.19 2159.9 1633.75 2185.06C1622.32 2210.22 1473.62 2480.16 1473.62 2480.16L1606.29 2672.32L1720.67 2523.63L1761.85 2875.92C1761.85 2875.92 1711.52 2958.27 1729.82 2994.87C1748.13 3031.47 1780.15 3045.2 1780.15 3045.2H2379.5C2379.5 3045.2 2416.1 3001.73 2406.95 2944.54C2397.8 2887.36 2381.78 2816.44 2381.78 2816.44L2379.49 2615.13L2448.12 2404.68L2784.39 2402.39L2727.2 2166.76C2727.2 2166.76 2493.87 2116.44 2477.86 2107.28C2461.84 2098.13 2381.78 2082.12 2342.89 2082.12C2304.01 2082.12 2233.08 2082.12 2233.08 2082.12L1928.84 2079.83L1908.26 2086.7Z" fill="#92E3A9" stroke="#263238" stroke-miterlimit="10" stroke-linecap="round" stroke-linejoin="round"/>
<path d="M1671.81 2334.84L1720.69 2523.63L1629.18 2358.92" stroke="#263238" stroke-miterlimit="10" stroke-linecap="round" stroke-linejoin="round"/>
<path d="M1654.35 2267.42L1662.35 2298.36" stroke="#263238" stroke-miterlimit="10" stroke-linecap="round" stroke-linejoin="round"/>
<path d="M1583.19 2446.84L1544.54 2425.26" stroke="#263238" stroke-miterlimit="10" stroke-linecap="round" stroke-linejoin="round"/>
<path d="M1720.69 2523.63L1603.86 2458.39" stroke="#263238" stroke-miterlimit="10" stroke-linecap="round" stroke-linejoin="round"/>
<path d="M2498.47 2217.09L2448.14 2404.68L2548.8 2217.09" stroke="#263238" stroke-miterlimit="10" stroke-linecap="round" stroke-linejoin="round"/>
<path d="M2634.56 2290.86L2665.46 2272" stroke="#263238" stroke-miterlimit="10" stroke-linecap="round" stroke-linejoin="round"/>
<path d="M2448.14 2404.68L2601.02 2311.34" stroke="#263238" stroke-miterlimit="10" stroke-linecap="round" stroke-linejoin="round"/>
<path d="M2198.06 2698.88L2226.25 2676.9" stroke="#263238" stroke-miterlimit="10" stroke-linecap="round" stroke-linejoin="round"/>
<path d="M1883.11 2944.55L2176.26 2715.89" stroke="#263238" stroke-miterlimit="10" stroke-linecap="round" stroke-linejoin="round"/>
<path d="M2047.81 2786.7L1883.11 2903.37" stroke="#263238" stroke-miterlimit="10" stroke-linecap="round" stroke-linejoin="round"/>
<path d="M1963.17 1921.99L1949.45 2102.71L2084.41 2253.69L2201.08 2109.57L2164.48 1931.14L1963.17 1921.99Z" fill="white" stroke="#263238" stroke-miterlimit="10" stroke-linecap="round" stroke-linejoin="round"/>
<path d="M2164.48 1931.14L1963.17 1921.99L1959.71 1967.54C1989.8 2002.42 2050.01 2078.84 2074.38 2084.93C2094.82 2090.04 2147.32 2031.44 2176.39 1989.21L2164.48 1931.14Z" fill="#263238" stroke="#263238" stroke-miterlimit="10" stroke-linecap="round" stroke-linejoin="round"/>
<path d="M1926.57 1992.91L2052.38 2153.04L1965.45 2320.04L1885.39 2088.99L1926.57 1992.91Z" fill="white" stroke="#263238" stroke-miterlimit="10" stroke-linecap="round" stroke-linejoin="round"/>
<path d="M2221.66 1992.91L2095.85 2153.04L2182.78 2320.04L2262.85 2088.99L2221.66 1992.91Z" fill="white" stroke="#263238" stroke-miterlimit="10" stroke-linecap="round" stroke-linejoin="round"/>
<path d="M1883.22 1686.37C1883.22 1686.37 1858.06 1633.75 1835.18 1674.93C1812.3 1716.11 1885.51 1798.47 1894.66 1798.47C1903.8 1798.47 1883.22 1686.37 1883.22 1686.37Z" fill="white" stroke="#263238" stroke-miterlimit="10" stroke-linecap="round" stroke-linejoin="round"/>
<path d="M2246.94 1686.37C2246.94 1686.37 2272.11 1633.75 2294.98 1674.93C2317.85 1716.12 2244.65 1798.47 2235.5 1798.47C2226.36 1798.47 2246.94 1686.37 2246.94 1686.37Z" fill="white" stroke="#263238" stroke-miterlimit="10" stroke-linecap="round" stroke-linejoin="round"/>
<path d="M1867.42 1512.52C1869.22 1549.98 1882.56 1814.15 1903.8 1869.38C1926.68 1928.86 2031.91 2024.93 2082.24 2020.36C2132.56 2015.79 2221.78 1903.69 2233.22 1862.52C2243.5 1825.5 2251.94 1564.77 2253.53 1512.52H1867.42Z" fill="white" stroke="#263238" stroke-miterlimit="10" stroke-linecap="round" stroke-linejoin="round"/>
<path d="M1926.68 1722.97C1926.68 1722.97 1958.71 1757.28 2018.18 1720.68" stroke="#263238" stroke-miterlimit="10" stroke-linecap="round" stroke-linejoin="round"/>
<path d="M2210.34 1722.97C2210.34 1722.97 2178.31 1757.28 2118.84 1720.68" stroke="#263238" stroke-miterlimit="10" stroke-linecap="round" stroke-linejoin="round"/>
<path d="M2041.06 1812.19C2041.06 1812.19 2063.94 1855.66 2114.27 1812.19" stroke="#263238" stroke-miterlimit="10" stroke-linecap="round" stroke-linejoin="round"/>
<path d="M2054.79 1889.97H2095.96" stroke="#263238" stroke-miterlimit="10" stroke-linecap="round" stroke-linejoin="round"/>
<path d="M1912.96 1661.21C1912.96 1661.21 1928.97 1645.19 2011.32 1658.92" stroke="#263238" stroke-width="2" stroke-miterlimit="10" stroke-linecap="round" stroke-linejoin="round"/>
<path d="M2212.63 1661.21C2212.63 1661.21 2196.62 1645.19 2114.27 1658.92" stroke="#263238" stroke-width="2" stroke-miterlimit="10" stroke-linecap="round" stroke-linejoin="round"/>
<path d="M2782.13 2159.9C2782.13 2159.9 3029.19 1640.62 3054.35 1638.33C3079.51 1636.04 3109.25 1670.35 3100.11 1716.11C3090.96 1761.86 2965.14 2201.08 2937.69 2292.58C2910.24 2384.08 2873.64 2420.68 2843.9 2409.25C2814.16 2397.81 2782.13 2159.9 2782.13 2159.9Z" fill="white" stroke="#263238" stroke-miterlimit="10" stroke-linecap="round" stroke-linejoin="round"/>
<path d="M1380.68 2479.66C1380.68 2479.66 1507.02 2766.56 1536.31 2761.48C1565.62 2756.4 1652.68 2669.34 1656.71 2652.39C1660.73 2635.44 1602.58 2541.04 1544.01 2497.79C1485.45 2454.54 1466.54 2439.25 1457.52 2440.81C1448.5 2442.37 1395.28 2470.16 1380.68 2479.66Z" fill="white" stroke="#263238" stroke-miterlimit="10" stroke-linecap="round" stroke-linejoin="round"/>
<path d="M2706.64 2143.89C2706.64 2143.89 2683.76 2297.16 2704.35 2358.92C2724.94 2420.68 2745.53 2429.84 2779.84 2432.13C2814.15 2434.42 2864.48 2425.26 2873.63 2402.39C2882.78 2379.51 2800.43 2155.33 2791.27 2139.31C2782.13 2123.3 2736.37 2125.59 2706.64 2143.89Z" fill="white" stroke="#263238" stroke-miterlimit="10" stroke-linecap="round" stroke-linejoin="round"/>
<path d="M948.487 2410.62C922.037 2391.98 891.475 2376.39 891.475 2376.39C891.475 2376.39 854.929 2366.47 846.816 2333.05C838.704 2299.63 885.644 2289.18 885.644 2289.18C915.731 2288.6 1427.5 2508.69 1427.5 2508.69C1514.26 2607.42 1529.67 2723.16 1532.41 2738.94C1535.14 2754.72 1522.4 2761.56 1513.39 2763.13C1504.37 2764.69 1350.68 2696.44 1304.82 2671.58C1207.45 2618.8 977.187 2428.86 977.187 2428.86L948.487 2410.62Z" fill="white" stroke="#263238" stroke-miterlimit="10" stroke-linecap="round" stroke-linejoin="round"/>
<path d="M716.623 2484.7C716.623 2484.7 694.753 2518.31 671.731 2532.96C648.708 2547.6 618.403 2557.11 628.104 2563.95C637.813 2570.79 649.224 2575.2 672.964 2564.69C696.705 2554.18 724.582 2542.96 724.582 2542.96C724.582 2542.96 749.347 2476.9 716.623 2484.7Z" fill="white" stroke="#263238" stroke-miterlimit="10" stroke-linecap="round" stroke-linejoin="round"/>
<path d="M712.204 2496.12C712.204 2496.12 691.576 2561.47 665.489 2583.03C639.402 2604.6 601.905 2621.75 626.081 2626.08C650.265 2630.41 665.377 2619.27 698.02 2598.7C730.671 2578.13 740.565 2561.5 735.824 2521.85C731.098 2482.19 725.889 2476.71 712.204 2496.12Z" fill="white" stroke="#263238" stroke-miterlimit="10" stroke-linecap="round" stroke-linejoin="round"/>
<path d="M714.47 2472.3C714.47 2472.3 712.535 2547.19 707.575 2580C702.616 2612.82 640.894 2674.63 666.787 2676.54C692.681 2678.44 738.485 2610.86 749.016 2585.6C759.548 2560.34 767.104 2554.77 759.024 2532.74C750.951 2510.71 720.865 2447.75 714.47 2472.3Z" fill="white" stroke="#263238" stroke-miterlimit="10" stroke-linecap="round" stroke-linejoin="round"/>
<path d="M929.081 2744.2C970.382 2699.32 967.484 2629.47 922.609 2588.16C877.735 2546.86 807.875 2549.76 766.574 2594.64C725.273 2639.51 728.17 2709.37 773.045 2750.67C817.92 2791.97 887.78 2789.07 929.081 2744.2Z" fill="#263238" stroke="#263238" stroke-miterlimit="10" stroke-linecap="round" stroke-linejoin="round"/>
<path d="M933.222 2308.71C933.222 2308.71 865.001 2271.53 833.075 2296.24C801.142 2320.95 729.421 2435.63 705.761 2458.9C682.101 2482.17 726.3 2540.55 741.468 2591.17C756.637 2641.8 744.476 2682.25 770.644 2673.46C796.812 2664.66 785.949 2638.85 787.691 2587.43C789.433 2536.01 768.781 2490.59 769.773 2484.03C770.765 2477.46 822.302 2442.97 855.832 2452.07C889.362 2461.17 906.071 2483.83 904.168 2509.73C902.265 2535.62 883.072 2609.24 892.862 2628.85C902.652 2648.45 920.626 2653.86 931.44 2617.9C942.254 2581.95 971.147 2515.16 977.187 2488.56C983.227 2461.95 924.134 2342.24 924.134 2342.24" fill="white"/>
<path d="M933.222 2308.71C933.222 2308.71 865.001 2271.53 833.075 2296.24C801.142 2320.95 729.421 2435.63 705.761 2458.9C682.101 2482.17 726.3 2540.55 741.468 2591.17C756.637 2641.8 744.476 2682.25 770.644 2673.46C796.812 2664.66 785.949 2638.85 787.691 2587.43C789.433 2536.01 768.781 2490.59 769.773 2484.03C770.765 2477.46 822.302 2442.97 855.832 2452.07C889.362 2461.17 906.071 2483.83 904.168 2509.73C902.265 2535.62 883.072 2609.24 892.862 2628.85C902.652 2648.45 920.626 2653.86 931.44 2617.9C942.254 2581.95 971.147 2515.16 977.187 2488.56C983.227 2461.95 924.134 2342.24 924.134 2342.24" stroke="#263238" stroke-miterlimit="10" stroke-linecap="round" stroke-linejoin="round"/>
<path d="M790.191 2763.54C758.54 2744.12 737.437 2709.2 737.437 2669.34C737.437 2609.65 784.788 2561.03 843.978 2558.98" fill="#263238"/>
<path d="M790.191 2763.54C758.54 2744.12 737.437 2709.2 737.437 2669.34C737.437 2609.65 784.788 2561.03 843.978 2558.98" stroke="#263238" stroke-miterlimit="10" stroke-linecap="round" stroke-linejoin="round"/>
<path d="M3302.89 1720.74C3302.89 1720.74 3338.04 1740.05 3365.24 1742.09C3392.45 1744.13 3423.66 1738.21 3418.33 1748.82C3413 1759.44 3405.02 1768.71 3379.13 1770.65C3353.24 1772.6 3323.37 1775.86 3323.37 1775.86C3323.37 1775.86 3270.36 1729.3 3302.89 1720.74Z" fill="white" stroke="#263238" stroke-miterlimit="10" stroke-linecap="round" stroke-linejoin="round"/>
<path d="M3312.18 1728.72C3312.18 1728.72 3361.21 1776.6 3394.38 1783.3C3427.56 1790 3468.71 1787.42 3449.43 1802.64C3430.16 1817.88 3411.57 1815.18 3373.08 1812.46C3334.59 1809.73 3318.01 1799.75 3303.48 1762.55C3288.94 1725.36 3290.95 1718.06 3312.18 1728.72Z" fill="white" stroke="#263238" stroke-miterlimit="10" stroke-linecap="round" stroke-linejoin="round"/>
<path d="M3298.93 1708.78C3298.93 1708.78 3335.99 1773.89 3355.85 1800.48C3375.71 1827.07 3459.3 1852.45 3437.37 1866.34C3415.44 1880.24 3343.16 1842.28 3321.95 1824.98C3300.74 1807.68 3291.45 1806.34 3288.18 1783.1C3284.9 1759.86 3281.71 1690.17 3298.93 1708.78Z" fill="white" stroke="#263238" stroke-miterlimit="10" stroke-linecap="round" stroke-linejoin="round"/>
<path d="M3338.81 1870.07H3168.59V2040.3H3338.81V1870.07Z" fill="#92E3A9" stroke="#263238" stroke-miterlimit="10" stroke-linecap="round" stroke-linejoin="round"/>
<path d="M3028.86 1667.8C3028.86 1667.8 3071.47 1602.82 3111.28 1609.53C3151.09 1616.24 3268.45 1683.5 3300.3 1692.85C3332.14 1702.21 3320.72 1774.53 3331.25 1826.32C3341.77 1878.11 3371.59 1908.03 3344.37 1912.63C3317.14 1917.22 3314.54 1889.34 3288.73 1844.83C3262.93 1800.3 3259.7 1750.52 3255.73 1745.2C3251.75 1739.89 3190.04 1733.8 3164.77 1757.65C3139.51 1781.5 3135.48 1809.37 3149.37 1831.29C3163.27 1853.22 3214.94 1909.07 3215.57 1930.98C3216.19 1952.88 3202.89 1966.14 3176.39 1939.54C3149.9 1912.93 3092.89 1867.69 3075.01 1847.09C3057.12 1826.48 3052.72 1693.06 3052.72 1693.06" fill="white"/>
<path d="M3028.86 1667.8C3028.86 1667.8 3071.47 1602.82 3111.28 1609.53C3151.09 1616.24 3268.45 1683.5 3300.3 1692.85C3332.14 1702.21 3320.72 1774.53 3331.25 1826.32C3341.77 1878.11 3371.59 1908.03 3344.37 1912.63C3317.14 1917.22 3314.54 1889.34 3288.73 1844.83C3262.93 1800.3 3259.7 1750.52 3255.73 1745.2C3251.75 1739.89 3190.04 1733.8 3164.77 1757.65C3139.51 1781.5 3135.48 1809.37 3149.37 1831.29C3163.27 1853.22 3214.94 1909.07 3215.57 1930.98C3216.19 1952.88 3202.89 1966.14 3176.39 1939.54C3149.9 1912.93 3092.89 1867.69 3075.01 1847.09C3057.12 1826.48 3052.72 1693.06 3052.72 1693.06" stroke="#263238" stroke-miterlimit="10" stroke-linecap="round" stroke-linejoin="round"/>
<path d="M3254.07 1870.09H3338.81V1956.08" fill="#92E3A9"/>
<path d="M3254.07 1870.09H3338.81V1956.08" stroke="#263238" stroke-miterlimit="10" stroke-linecap="round" stroke-linejoin="round"/>
<path d="M1780.16 3045.2L1739.61 3196.46L1306.92 3177.78C1306.92 3177.78 1568.4 3392.57 1696.03 3436.15C1823.66 3479.73 1997.98 3526.43 2144.29 3513.98C2290.6 3501.52 2433.79 3473.51 2580.1 3401.91C2726.41 3330.31 2813.57 3190.23 2813.57 3190.23H2399.56L2379.51 3045.2H1780.16Z" fill="#263238" stroke="#263238" stroke-miterlimit="10" stroke-linecap="round" stroke-linejoin="round"/>
<path d="M2396.85 3393.44C2396.85 3393.44 2496.39 3400.76 2568.03 3382.28C2639.68 3363.79 2691.4 3399.14 2697.96 3466.02C2704.53 3532.9 2671.01 3594.29 2582.12 3601C2493.23 3607.7 2366.09 3549.47 2366.09 3549.47C2366.09 3549.47 2331.21 3459.87 2396.85 3393.44Z" fill="white" stroke="#263238" stroke-miterlimit="10" stroke-linecap="round" stroke-linejoin="round"/>
<path d="M2497.6 3590.07C2497.6 3590.07 2579.95 3609.83 2619.51 3569.31C2659.07 3528.79 2667.06 3470.34 2654.63 3424.42C2645.97 3392.44 2620.48 3381.27 2605.78 3377.42C2657.36 3378.05 2692.63 3411.58 2697.97 3466.02C2704.54 3532.9 2671.01 3594.3 2582.12 3601C2550.62 3603.38 2514.32 3597.58 2480.57 3589.13L2497.6 3590.07Z" fill="white" stroke="#263238" stroke-miterlimit="10" stroke-linecap="round" stroke-linejoin="round"/>
<path d="M2369.3 3421.14C2369.3 3421.14 2419.01 3443.24 2460 3442.04C2500.99 3440.84 2518.14 3477.21 2492.55 3502.62C2466.96 3528.04 2360.47 3498.18 2351.14 3491.8C2341.8 3485.42 2344.62 3439.88 2369.3 3421.14Z" fill="white" stroke="#263238" stroke-miterlimit="10" stroke-linecap="round" stroke-linejoin="round"/>
<path d="M1904.65 3160.45C1748.4 3090.95 1593.91 3010.71 1453.65 2918.27C1379.49 2869.4 1305.33 2850.86 1241.28 2903.1C1177.24 2955.35 1180.61 3069.96 1232.86 3128.95C1285.1 3187.94 1446.91 3246.93 1600.28 3310.97C1753.65 3375.02 2063.76 3449.17 2153.09 3472.77C2242.41 3496.36 2267.69 3511.53 2289.6 3531.76C2311.51 3551.98 2366.09 3549.47 2366.09 3549.47C2366.09 3549.47 2365.45 3481.2 2380.62 3449.17C2395.79 3417.15 2405.9 3395.24 2405.9 3395.24C2405.9 3395.24 2378.94 3375.02 2353.66 3356.48C2328.37 3337.94 2321.63 3351.42 2269.38 3317.71C2211.63 3280.46 2140.85 3258.1 2077.35 3232.92C2019.96 3210.17 1962.19 3186.04 1904.65 3160.45Z" fill="#263238" stroke="#263238" stroke-miterlimit="10" stroke-linecap="round" stroke-linejoin="round"/>
<path d="M1630.67 3411.25C1630.67 3411.25 1531.06 3405.02 1462.58 3377.01C1394.09 3348.99 1338.06 3377.01 1322.5 3442.38C1306.93 3507.76 1331.83 3573.12 1419 3591.8C1506.16 3610.48 1640.02 3570.01 1640.02 3570.01C1640.02 3570.01 1686.7 3485.96 1630.67 3411.25Z" fill="white" stroke="#263238" stroke-miterlimit="10" stroke-linecap="round" stroke-linejoin="round"/>
<path d="M1504.21 3592.43C1504.21 3592.43 1419.94 3600.86 1386.23 3555.35C1352.53 3509.85 1352.53 3450.86 1371.07 3407.04C1383.98 3376.52 1410.74 3368.91 1425.83 3367.09C1374.65 3360.73 1335.16 3389.18 1322.49 3442.38C1306.92 3507.76 1331.83 3573.12 1418.99 3591.8C1449.88 3598.42 1486.63 3597.6 1521.21 3593.79L1504.21 3592.43Z" fill="white" stroke="#263238" stroke-miterlimit="10" stroke-linecap="round" stroke-linejoin="round"/>
<path d="M1654.21 3442.43C1654.21 3442.43 1601.96 3457.6 1561.51 3450.86C1521.06 3444.12 1499.15 3477.82 1521.06 3506.48C1542.97 3535.13 1652.52 3519.96 1662.64 3514.9C1672.76 3509.85 1676.13 3464.34 1654.21 3442.43Z" stroke="#263238" stroke-miterlimit="10" stroke-linecap="round" stroke-linejoin="round"/>
<path d="M1752.07 3386.35C1752.07 3386.35 2327.96 3149.76 2533.41 3037.7C2738.86 2925.63 2888.28 2959.87 2888.28 3081.28C2888.28 3202.68 2720.19 3283.62 2586.33 3342.76C2452.47 3401.91 1932.62 3523.31 1873.47 3532.65C1814.32 3541.99 1804.98 3545.1 1804.98 3545.1C1804.98 3545.1 1773.85 3579.34 1764.52 3582.45C1755.18 3585.57 1627.55 3563.78 1627.55 3563.78C1627.55 3563.78 1658.68 3498.4 1649.34 3470.39C1640 3442.38 1630.66 3411.24 1630.66 3411.24C1630.66 3411.24 1702.26 3358.33 1752.07 3386.35Z" fill="#263238" stroke="#263238" stroke-miterlimit="10" stroke-linecap="round" stroke-linejoin="round"/>
<path d="M3887.84 2118.55H3545.3V2412.81H3887.84V2118.55Z" fill="#263238" stroke="#263238" stroke-miterlimit="10" stroke-linecap="round" stroke-linejoin="round"/>
<path d="M3887.84 2177.83H3545.3V2412.81H3887.84V2177.83Z" fill="#B0B0B0" stroke="#263238" stroke-miterlimit="10" stroke-linecap="round" stroke-linejoin="round"/>
<path d="M3611.97 2079.47H2931.5V2456.49H3611.97V2079.47Z" fill="white" stroke="#263238" stroke-miterlimit="10" stroke-linecap="round" stroke-linejoin="round"/>
<path d="M3591.28 2079.47H2910.81V2456.49H3591.28V2079.47Z" fill="white" stroke="#263238" stroke-miterlimit="10" stroke-linecap="round" stroke-linejoin="round"/>
<path d="M3309.24 2170.28H3139.02V2340.5H3309.24V2170.28Z" fill="#92E3A9" stroke="#263238" stroke-miterlimit="10" stroke-linecap="round" stroke-linejoin="round"/>
<path d="M203.441 3090.19H545.976V2795.93H203.441L203.441 3090.19Z" fill="#263238" stroke="#263238" stroke-miterlimit="10" stroke-linecap="round" stroke-linejoin="round"/>
<path d="M203.441 3090.18H545.976V2855.21H203.441L203.441 3090.18Z" fill="#B0B0B0" stroke="#263238" stroke-miterlimit="10" stroke-linecap="round" stroke-linejoin="round"/>
<path d="M479.317 3133.86H1159.78V2756.85H479.317V3133.86Z" fill="white" stroke="#263238" stroke-miterlimit="10" stroke-linecap="round" stroke-linejoin="round"/>
<path d="M500.002 3133.86H1180.47V2756.85H500.002V3133.86Z" fill="white" stroke="#263238" stroke-miterlimit="10" stroke-linecap="round" stroke-linejoin="round"/>
<path d="M930.761 3028.78C974.979 2988.12 977.862 2919.31 937.2 2875.09C896.538 2830.87 827.73 2827.99 783.512 2868.65C739.294 2909.31 736.411 2978.12 777.073 3022.34C817.735 3066.56 886.543 3069.44 930.761 3028.78Z" fill="#92E3A9" stroke="#263238" stroke-miterlimit="10" stroke-linecap="round" stroke-linejoin="round"/>
</svg>
