<svg width="4032" height="3573" viewBox="0 0 4032 3573" fill="none" xmlns="http://www.w3.org/2000/svg">
<path d="M3050.3 851.746C3024.93 808.174 2998.32 765.253 2968.05 724.361C2618.72 252.421 1683.14 -4.4986 1219.56 483.308C1109.07 599.569 1070.56 740.063 996.194 873.399C827.044 1176.65 511.032 1357.96 312.867 1638.77C159.264 1856.46 179.738 2135.44 265.426 2370.75C358.541 2626.46 522.402 2805.05 784.514 2940.8C1078.36 3092.99 1392.64 3050.73 1710.26 2997.77C1853.11 2973.96 2000.37 2949.66 2146.43 2958.75C2329.29 2970.13 2509.82 3015.98 2691.25 3038.26C2879.92 3061.44 3075.68 3066.91 3257.43 3016.41C3839.47 2854.66 3977.37 2096.68 3738.01 1662.48C3653.28 1508.79 3509.69 1390.22 3376.36 1269.91C3232.43 1140.06 3144.21 1012.96 3050.3 851.746Z" fill="#92E3A9"/>
<path opacity="0.8" d="M3050.3 851.746C3024.93 808.174 2998.32 765.253 2968.05 724.361C2618.72 252.421 1683.14 -4.4986 1219.56 483.308C1109.07 599.569 1070.56 740.063 996.194 873.399C827.044 1176.65 511.032 1357.96 312.867 1638.77C159.264 1856.46 179.738 2135.44 265.426 2370.75C358.541 2626.46 522.402 2805.05 784.514 2940.8C1078.36 3092.99 1392.64 3050.73 1710.26 2997.77C1853.11 2973.96 2000.37 2949.66 2146.43 2958.75C2329.29 2970.13 2509.82 3015.98 2691.25 3038.26C2879.92 3061.44 3075.68 3066.91 3257.43 3016.41C3839.47 2854.66 3977.37 2096.68 3738.01 1662.48C3653.28 1508.79 3509.69 1390.22 3376.36 1269.91C3232.43 1140.06 3144.21 1012.96 3050.3 851.746Z" fill="white"/>
<g opacity="0.3">
<path d="M3567.44 306.98C3567.44 306.98 3486.33 172.851 3340.33 148.897C3194.34 124.944 3124.04 239.912 3102.41 278.24C3080.79 316.56 3026.71 278.24 2961.83 283.033C2896.94 287.82 2875.31 350.101 2842.87 364.468C2810.43 378.841 2734.72 326.147 2691.46 345.307C2648.21 364.468 2606.92 401.931 2606.92 401.931H3805.35C3805.35 401.931 3783.73 316.567 3713.43 292.613C3643.14 268.659 3610.7 306.98 3567.44 306.98Z" stroke="black" stroke-miterlimit="10"/>
<path d="M936.367 843.809C936.367 843.809 880.548 751.494 780.063 735.013C679.586 718.524 631.202 797.651 616.315 824.027C601.429 850.402 564.214 824.027 519.555 827.32C474.897 830.621 460.011 873.478 437.682 883.365C415.352 893.252 363.251 856.989 333.479 870.177C303.706 883.365 275.297 909.148 275.297 909.148H1100.11C1100.11 909.148 1085.22 850.395 1036.84 833.914C988.469 817.433 966.14 843.809 936.367 843.809Z" stroke="black" stroke-miterlimit="10"/>
<path d="M3640.98 1344.68C3640.98 1344.68 3608.16 1290.42 3549.11 1280.74C3490.06 1271.05 3461.62 1317.56 3452.87 1333.06C3444.12 1348.56 3422.25 1333.06 3396 1334.99C3369.75 1336.93 3361 1362.13 3347.88 1367.94C3334.76 1373.75 3304.14 1352.43 3286.64 1360.18C3269.14 1367.94 3252.44 1383.09 3252.44 1383.09H3737.22C3737.22 1383.09 3728.47 1348.55 3700.04 1338.87C3671.6 1329.18 3658.48 1344.68 3640.98 1344.68Z" stroke="black" stroke-miterlimit="10"/>
<path d="M1809.17 1956.37C1809.17 1956.37 1776.36 1902.11 1717.31 1892.42C1658.26 1882.73 1629.81 1929.24 1621.07 1944.74C1612.32 1960.24 1590.45 1944.74 1564.2 1946.68C1537.95 1948.61 1529.2 1973.8 1516.08 1979.62C1502.95 1985.43 1472.33 1964.12 1454.83 1971.87C1437.34 1979.62 1420.63 1994.77 1420.63 1994.77H1905.42C1905.42 1994.77 1896.67 1960.24 1868.24 1950.55C1839.79 1940.86 1826.67 1956.37 1809.17 1956.37Z" stroke="black" stroke-miterlimit="10"/>
</g>
<path d="M2041.64 3404.52C2920.5 3404.52 3632.95 3374.41 3632.95 3337.28C3632.95 3300.14 2920.5 3270.04 2041.64 3270.04C1162.79 3270.04 450.334 3300.14 450.334 3337.28C450.334 3374.41 1162.79 3404.52 2041.64 3404.52Z" fill="#263238" stroke="#263238" stroke-miterlimit="10"/>
<path opacity="0.3" d="M3307.97 1945.46V1714.75L3162.51 1685.44C3150 1606.47 3127.08 1530.5 3095.1 1458.54L3205.47 1367.95L3075.26 1168.15L2932.59 1207.23C2877.98 1145.51 2815.44 1089.63 2746.24 1040.75L2790.76 913.206L2565.23 797.844L2463.93 894.703C2382.91 865.755 2297.36 844.702 2208.32 832.978L2174.97 703.079H1914.54L1881.44 831.943C1792.3 843.023 1706.56 863.326 1625.33 891.659L1523.07 793.879L1297.54 909.234L1341.66 1035.63C1271.99 1084.01 1208.91 1139.41 1153.73 1200.72L1009.77 1161.27L879.54 1361.08L988.872 1450.83C956.197 1522.6 932.432 1598.39 919.199 1677.28L772.571 1706.83V1937.54L918.03 1966.86C930.537 2045.83 953.455 2121.79 985.445 2193.75L875.073 2284.35L1005.28 2484.15L1147.95 2445.06C1202.57 2506.78 1265.1 2562.66 1334.3 2611.55L1289.78 2739.09L1515.31 2854.44L1616.61 2757.59C1697.63 2786.53 1783.18 2807.59 1872.23 2819.31L1905.59 2949.21H2166.01L2199.1 2820.35C2288.24 2809.27 2373.98 2788.96 2455.21 2760.63L2557.47 2858.41L2783.01 2743.06L2738.89 2616.66C2808.55 2568.28 2871.64 2512.88 2926.81 2451.57L3070.78 2491.02L3200.99 2291.21L3091.66 2201.47C3124.33 2129.69 3148.1 2053.9 3161.33 1975.02L3307.97 1945.46ZM2902.65 1826.14C2902.65 2248.08 2516.55 2590.14 2040.27 2590.14C1564 2590.14 1177.89 2248.09 1177.89 1826.14C1177.89 1404.21 1564 1062.15 2040.27 1062.15C2516.55 1062.15 2902.65 1404.21 2902.65 1826.14Z" fill="black"/>
<path opacity="0.3" d="M3663.24 865.284V791.715L3616.86 782.37C3612.87 757.188 3605.56 732.969 3595.37 710.023L3630.56 681.133L3589.04 617.422L3543.55 629.882C3526.13 610.207 3506.19 592.383 3484.13 576.794L3498.32 536.124L3426.41 499.339L3394.11 530.223C3368.28 520.993 3341 514.277 3312.6 510.541L3301.97 469.12H3218.92L3208.38 510.212C3179.95 513.742 3152.61 520.221 3126.71 529.251L3094.1 498.075L3022.19 534.859L3036.26 575.166C3014.04 590.597 2993.93 608.257 2976.33 627.803L2930.43 615.229L2888.9 678.939L2923.76 707.558C2913.35 730.448 2905.77 754.616 2901.55 779.763L2854.79 789.186V862.755L2901.18 872.106C2905.17 897.289 2912.47 921.507 2922.68 944.453L2887.48 973.344L2929.01 1037.05L2974.49 1024.59C2991.91 1044.28 3011.85 1062.09 3033.91 1077.68L3019.72 1118.35L3091.63 1155.14L3123.94 1124.25C3149.77 1133.48 3177.05 1140.2 3205.44 1143.94L3216.08 1185.36H3299.12L3309.67 1144.27C3338.09 1140.73 3365.43 1134.26 3391.33 1125.23L3423.94 1156.4L3495.86 1119.62L3481.79 1079.32C3504 1063.89 3524.11 1046.23 3541.71 1026.67L3587.62 1039.25L3629.14 975.537L3594.28 946.925C3604.7 924.036 3612.28 899.868 3616.49 874.721L3663.24 865.284ZM3534 827.235C3534 961.778 3410.89 1070.85 3259.02 1070.85C3107.15 1070.85 2984.03 961.778 2984.03 827.235C2984.03 692.692 3107.15 583.624 3259.02 583.624C3410.89 583.624 3534 692.692 3534 827.235Z" fill="black"/>
<path opacity="0.3" d="M907.289 2618.91V2563.13L872.122 2556.04C869.098 2536.95 863.558 2518.58 855.824 2501.19L882.508 2479.28L851.026 2430.98L816.537 2440.43C803.336 2425.51 788.216 2412 771.483 2400.18L782.249 2369.35L727.72 2341.46L703.229 2364.87C683.642 2357.87 662.958 2352.79 641.435 2349.95L633.371 2318.54H570.407L562.408 2349.7C540.861 2352.38 520.128 2357.29 500.492 2364.14L475.768 2340.5L421.239 2368.39L431.908 2398.94C415.062 2410.64 399.813 2424.03 386.475 2438.86L351.671 2429.32L320.189 2477.63L346.623 2499.32C338.72 2516.68 332.979 2535 329.777 2554.07L294.328 2561.21V2616.99L329.495 2624.08C332.519 2643.17 338.059 2661.54 345.793 2678.93L319.109 2700.83L350.591 2749.14L385.08 2739.69C398.289 2754.61 413.401 2768.12 430.134 2779.94L419.369 2810.77L473.897 2838.66L498.388 2815.25C517.975 2822.25 538.659 2827.33 560.182 2830.17L568.246 2861.57H631.21L639.209 2830.42C660.756 2827.74 681.489 2822.83 701.125 2815.98L725.849 2839.62L780.378 2811.73L769.709 2781.18C786.547 2769.48 801.804 2756.09 815.142 2741.26L849.946 2750.8L881.428 2702.49L854.994 2680.8C862.897 2663.44 868.638 2645.12 871.84 2626.05L907.289 2618.91ZM809.295 2590.06C809.295 2692.07 715.954 2774.76 600.809 2774.76C485.663 2774.76 392.322 2692.07 392.322 2590.06C392.322 2488.05 485.663 2405.36 600.809 2405.36C715.954 2405.36 809.295 2488.05 809.295 2590.06Z" fill="black"/>
<path d="M3104.71 3317.17C3102.59 3317.17 3100.79 3315.72 3100.63 3313.81C3087.3 3155.16 3169.8 2999.21 3315.93 2906.83C3317.78 2905.66 3320.34 2906.05 3321.64 2907.68C3322.96 2909.3 3322.53 2911.58 3320.69 2912.73C3176.88 3003.65 3095.68 3157.13 3108.81 3313.27C3108.98 3315.27 3107.29 3317 3105.03 3317.15C3104.91 3317.16 3104.81 3317.17 3104.71 3317.17Z" fill="#263238"/>
<path d="M3190.02 3181.22C3142.17 3168.04 3105.75 3232.03 3107.33 3233.24C3106.16 3240.79 3105.2 3248.4 3104.46 3256.05C3109.34 3246.78 3133.57 3233.71 3170.77 3228.05C3207.42 3221.26 3236.13 3192.28 3190.02 3181.22Z" fill="#263238"/>
<path d="M3050.01 3148.84C3002.56 3137.4 3009.64 3197.13 3044.71 3213.41C3078.46 3230.38 3099.87 3246.44 3103.74 3256.02C3103.9 3248.32 3104.28 3240.66 3104.87 3233.01C3102.99 3233.46 3094.48 3161.14 3050.01 3148.84Z" fill="#263238"/>
<path d="M3214.8 3119.15C3170.14 3099.13 3122.32 3156.05 3123.63 3157.4C3121.06 3164.56 3118.68 3171.8 3116.5 3179.1C3123.06 3170.85 3149.38 3161.84 3187.09 3161.97C3224.49 3160.93 3258.15 3136.94 3214.8 3119.15Z" fill="#263238"/>
<path d="M3082.93 3066.4C3038.33 3048.1 3034.17 3107.53 3065.65 3128.63C3095.72 3150.26 3113.79 3169.1 3115.8 3178.95C3117.41 3171.52 3119.22 3164.14 3121.24 3156.81C3119.34 3157.04 3124.45 3085.2 3082.93 3066.4Z" fill="#263238"/>
<path d="M3250.81 3061.89C3210.53 3035.59 3152.8 3084.39 3153.85 3085.85C3149.98 3092.48 3146.3 3099.2 3142.79 3106.01C3150.79 3098.94 3178.38 3094.08 3215.51 3099.85C3252.52 3104.46 3290.19 3085.87 3250.81 3061.89Z" fill="#263238"/>
<path d="M3130.77 2990.34C3090.24 2965.71 3075.02 3023.55 3102.11 3048.94C3127.69 3074.67 3141.98 3095.82 3142.13 3105.76C3145.1 3098.75 3148.26 3091.79 3151.61 3084.91C3149.68 3084.9 3168.13 3015.09 3130.77 2990.34Z" fill="#263238"/>
<path d="M3297.19 3010.68C3262.41 2978.79 3196.2 3018.47 3197.01 3020.02C3191.95 3025.98 3187.05 3032.05 3182.32 3038.24C3191.52 3032.47 3219.63 3031.78 3255.15 3042.97C3290.74 3053.01 3331.46 3040.18 3297.19 3010.68Z" fill="#263238"/>
<path d="M3192.38 2922.31C3157.05 2892.03 3131 2946.95 3152.95 2975.97C3173.32 3005.13 3183.43 3028.09 3181.72 3037.9C3185.96 3031.43 3190.38 3025.05 3194.98 3018.76C3193.02 3018.52 3224.47 2952.3 3192.38 2922.31Z" fill="#263238"/>
<path d="M3353.1 2966.76C3324.84 2930.12 3251.53 2959.75 3252.1 2961.38C3245.95 2966.53 3239.95 2971.81 3234.1 2977.23C3244.28 2972.89 3272.19 2976.32 3305.12 2992.59C3338.34 3007.74 3381.22 3000.97 3353.1 2966.76Z" fill="#263238"/>
<path d="M3266.63 2863.97C3237.54 2828.84 3200.93 2879.43 3217.06 2911.35C3231.55 2943.18 3237.13 2967.37 3233.56 2976.81C3238.98 2971.04 3244.57 2965.38 3250.32 2959.84C3248.38 2959.33 3292.44 2898.36 3266.63 2863.97Z" fill="#263238"/>
<path d="M3287.32 2930.79C3286 2930.63 3326.67 2876.68 3360.83 2858.08C3393.78 2838.94 3417.8 2856.32 3417.96 2871.56C3418.4 2886.88 3394.84 2899.38 3373.03 2906.01C3350.89 2911.03 3287.19 2929.71 3287.32 2930.79Z" fill="#263238"/>
<path d="M3287.32 2933.2C3287.21 2933.2 3287.08 2933.19 3286.96 2933.18C3285.81 2933.04 3284.86 2932.25 3284.62 2931.26C3284.6 2931.19 3284.6 2931.11 3284.6 2931.01C3284.51 2930.34 3284.46 2929.83 3285.24 2929.19C3290.71 2918.23 3330.05 2871.99 3359.4 2856.01C3375.63 2846.57 3392.38 2844.65 3405.25 2850.75C3414.54 2855.14 3420.6 2863.3 3420.68 2871.53C3421.29 2892.26 3385.03 2904.9 3373.91 2908.28C3352.32 2913.19 3294.34 2930.23 3289.14 2932.57C3288.64 2932.98 3288 2933.2 3287.32 2933.2ZM3388.7 2852.04C3381.74 2852.04 3372.88 2853.97 3362.33 2860.1C3335.39 2874.78 3304.71 2911.31 3293.88 2925.68C3299.27 2923.93 3307.73 2921.42 3320.97 2917.58C3338.03 2912.61 3360.49 2906.35 3372.36 2903.66C3393.24 2897.3 3415.64 2885.51 3415.23 2871.62C3415.16 2865.1 3410.24 2858.6 3402.69 2855.03C3399.61 2853.57 3394.9 2852.04 3388.7 2852.04Z" fill="#263238"/>
<path d="M2961.05 3317.17C2962.55 3317.17 2963.83 3316.14 2963.94 3314.79C2973.37 3202.56 2915.02 3092.25 2811.64 3026.9C2810.34 3026.07 2808.53 3026.34 2807.6 3027.5C2806.67 3028.65 2806.97 3030.26 2808.28 3031.08C2910.02 3095.4 2967.45 3203.97 2958.17 3314.41C2958.05 3315.83 2959.25 3317.05 2960.84 3317.16C2960.91 3317.17 2960.98 3317.17 2961.05 3317.17Z" fill="#263238"/>
<path d="M2900.7 3221C2934.55 3211.68 2960.31 3256.94 2959.19 3257.8C2960.02 3263.15 2960.7 3268.52 2961.22 3273.94C2957.77 3267.38 2940.63 3258.14 2914.31 3254.14C2888.4 3249.32 2868.09 3228.83 2900.7 3221Z" fill="#263238"/>
<path d="M2999.74 3198.1C3033.31 3190 3028.31 3232.25 3003.49 3243.78C2979.62 3255.79 2964.48 3267.15 2961.74 3273.92C2961.62 3268.47 2961.36 3263.05 2960.94 3257.64C2962.26 3257.96 2968.29 3206.8 2999.74 3198.1Z" fill="#263238"/>
<path d="M2883.17 3177.1C2914.77 3162.93 2948.59 3203.2 2947.67 3204.15C2949.49 3209.22 2951.17 3214.33 2952.71 3219.5C2948.07 3213.67 2929.45 3207.29 2902.77 3207.38C2876.32 3206.65 2852.5 3189.68 2883.17 3177.1Z" fill="#263238"/>
<path d="M2976.45 3139.78C3008.01 3126.83 3010.95 3168.87 2988.68 3183.8C2967.41 3199.09 2954.63 3212.42 2953.21 3219.4C2952.07 3214.15 2950.79 3208.92 2949.36 3203.73C2950.71 3203.89 2947.09 3153.09 2976.45 3139.78Z" fill="#263238"/>
<path d="M2857.7 3136.59C2886.19 3117.98 2927.04 3152.51 2926.29 3153.54C2929.02 3158.22 2931.63 3162.98 2934.11 3167.79C2928.46 3162.79 2908.93 3159.36 2882.67 3163.44C2856.49 3166.7 2829.85 3153.55 2857.7 3136.59Z" fill="#263238"/>
<path d="M2942.63 3085.97C2971.3 3068.56 2982.06 3109.47 2962.9 3127.43C2944.8 3145.63 2934.69 3160.59 2934.59 3167.62C2932.49 3162.66 2930.25 3157.74 2927.88 3152.87C2929.24 3152.87 2916.19 3103.48 2942.63 3085.97Z" fill="#263238"/>
<path d="M2824.89 3100.36C2849.5 3077.81 2896.33 3105.88 2895.77 3106.97C2899.35 3111.19 2902.81 3115.48 2906.15 3119.86C2899.65 3115.78 2879.76 3115.29 2854.64 3123.2C2829.46 3130.3 2800.65 3121.22 2824.89 3100.36Z" fill="#263238"/>
<path d="M2899.04 3037.85C2924.03 3016.43 2942.46 3055.28 2926.93 3075.81C2912.51 3096.43 2905.36 3112.68 2906.58 3119.62C2903.58 3115.04 2900.45 3110.53 2897.19 3106.08C2898.58 3105.91 2876.33 3059.06 2899.04 3037.85Z" fill="#263238"/>
<path d="M2785.35 3069.29C2805.34 3043.38 2857.2 3064.34 2856.79 3065.49C2861.14 3069.14 2865.39 3072.88 2869.53 3076.71C2862.32 3073.64 2842.58 3076.07 2819.29 3087.58C2795.78 3098.28 2765.45 3093.49 2785.35 3069.29Z" fill="#263238"/>
<path d="M2846.51 2996.58C2867.09 2971.74 2892.98 3007.51 2881.57 3030.09C2871.32 3052.61 2867.38 3069.73 2869.91 3076.4C2866.07 3072.32 2862.12 3068.32 2858.04 3064.4C2859.42 3064.04 2828.25 3020.91 2846.51 2996.58Z" fill="#263238"/>
<path d="M2831.88 3043.85C2832.81 3043.74 2804.04 3005.58 2779.88 2992.42C2756.57 2978.88 2739.58 2991.17 2739.47 3001.95C2739.16 3012.79 2755.82 3021.63 2771.25 3026.32C2786.91 3029.87 2831.97 3043.09 2831.88 3043.85Z" fill="#263238"/>
<path d="M2831.88 3045.55C2831.96 3045.55 2832.04 3045.55 2832.13 3045.54C2832.94 3045.45 2833.62 3044.88 2833.79 3044.18C2833.79 3044.13 2833.8 3044.07 2833.8 3044.01C2833.87 3043.54 2833.9 3043.17 2833.34 3042.72C2829.47 3034.97 2801.65 3002.26 2780.89 2990.96C2769.4 2984.29 2757.56 2982.92 2748.45 2987.24C2741.88 2990.34 2737.6 2996.11 2737.53 3001.93C2737.11 3016.6 2762.75 3025.54 2770.62 3027.94C2785.9 3031.41 2826.92 3043.46 2830.59 3045.12C2830.94 3045.4 2831.4 3045.55 2831.88 3045.55ZM2760.16 2988.14C2765.09 2988.14 2771.35 2989.51 2778.81 2993.84C2797.88 3004.22 2819.58 3030.07 2827.24 3040.24C2823.42 3039 2817.44 3037.22 2808.07 3034.5C2796.01 3030.99 2780.12 3026.57 2771.73 3024.66C2756.95 3020.16 2741.11 3011.81 2741.4 3001.99C2741.45 2997.37 2744.93 2992.78 2750.27 2990.25C2752.44 2989.23 2755.78 2988.14 2760.16 2988.14Z" fill="#263238"/>
<path d="M869.001 3317.17C870.501 3317.17 871.775 3316.14 871.888 3314.79C881.315 3202.56 822.963 3092.25 719.591 3026.9C718.285 3026.07 716.478 3026.34 715.551 3027.5C714.616 3028.65 714.922 3030.26 716.228 3031.08C817.964 3095.4 875.396 3203.97 866.114 3314.41C866.001 3315.83 867.194 3317.05 868.791 3317.16C868.856 3317.17 868.928 3317.17 869.001 3317.17Z" fill="#263238"/>
<path d="M808.658 3221C842.511 3211.68 868.267 3256.94 867.146 3257.8C867.977 3263.15 868.654 3268.52 869.179 3273.94C865.727 3267.38 848.591 3258.14 822.27 3254.14C796.345 3249.32 776.039 3228.83 808.658 3221Z" fill="#263238"/>
<path d="M907.693 3198.1C941.263 3190 936.255 3232.25 911.442 3243.78C887.573 3255.79 872.429 3267.15 869.687 3273.92C869.574 3268.47 869.308 3263.05 868.889 3257.64C870.219 3257.96 876.235 3206.8 907.693 3198.1Z" fill="#263238"/>
<path d="M791.127 3177.1C822.721 3162.93 856.542 3203.2 855.623 3204.15C857.445 3209.22 859.122 3214.33 860.663 3219.5C856.026 3213.67 837.406 3207.29 810.73 3207.38C784.28 3206.65 760.459 3189.68 791.127 3177.1Z" fill="#263238"/>
<path d="M884.411 3139.78C915.966 3126.83 918.909 3168.87 896.636 3183.8C875.364 3199.09 862.582 3212.42 861.163 3219.4C860.026 3214.15 858.744 3208.92 857.316 3203.73C858.655 3203.89 855.042 3153.09 884.411 3139.78Z" fill="#263238"/>
<path d="M765.652 3136.59C794.142 3117.98 834.979 3152.51 834.237 3153.54C836.97 3158.22 839.583 3162.98 842.059 3167.79C836.406 3162.79 816.875 3159.36 790.619 3163.44C764.443 3166.7 737.799 3153.55 765.652 3136.59Z" fill="#263238"/>
<path d="M850.574 3085.97C879.25 3068.56 890.007 3109.47 870.847 3127.43C852.751 3145.63 842.639 3160.59 842.534 3167.62C840.438 3162.66 838.196 3157.74 835.825 3152.87C837.196 3152.87 824.14 3103.48 850.574 3085.97Z" fill="#263238"/>
<path d="M732.84 3100.36C757.443 3077.81 804.279 3105.88 803.715 3106.97C807.295 3111.19 810.754 3115.48 814.101 3119.86C807.593 3115.78 787.708 3115.29 762.588 3123.2C737.404 3130.3 708.6 3121.22 732.84 3100.36Z" fill="#263238"/>
<path d="M806.988 3037.85C831.979 3016.43 850.405 3055.28 834.873 3075.81C820.463 3096.43 813.31 3112.68 814.528 3119.62C811.528 3115.04 808.399 3110.53 805.15 3106.08C806.529 3105.91 784.288 3059.06 806.988 3037.85Z" fill="#263238"/>
<path d="M693.294 3069.29C713.285 3043.38 765.144 3064.34 764.741 3065.49C769.088 3069.14 773.337 3072.88 777.474 3076.71C770.273 3073.64 750.532 3076.07 727.235 3087.58C703.729 3098.28 673.4 3093.49 693.294 3069.29Z" fill="#263238"/>
<path d="M754.459 2996.58C775.039 2971.74 800.932 3007.51 789.522 3030.09C779.272 3052.61 775.329 3069.73 777.853 3076.4C774.023 3072.32 770.063 3068.32 765.991 3064.4C767.37 3064.04 736.203 3020.91 754.459 2996.58Z" fill="#263238"/>
<path d="M739.824 3043.85C740.759 3043.74 711.987 3005.58 687.827 2992.42C664.522 2978.88 647.531 2991.17 647.418 3001.95C647.104 3012.79 663.772 3021.63 679.199 3026.32C694.859 3029.87 739.921 3043.09 739.824 3043.85Z" fill="#263238"/>
<path d="M739.824 3045.55C739.904 3045.55 739.993 3045.55 740.082 3045.54C740.888 3045.45 741.565 3044.88 741.735 3044.18C741.743 3044.13 741.751 3044.07 741.751 3044.01C741.807 3043.54 741.848 3043.17 741.291 3042.72C737.421 3034.97 709.6 3002.26 688.835 2990.96C677.352 2984.29 665.506 2982.92 656.402 2987.24C649.829 2990.34 645.547 2996.11 645.483 3001.93C645.055 3016.6 670.699 3025.54 678.569 3027.94C693.843 3031.41 734.856 3043.46 738.533 3045.12C738.888 3045.4 739.348 3045.55 739.824 3045.55ZM668.11 2988.14C673.038 2988.14 679.303 2989.51 686.762 2993.84C705.826 3004.22 727.526 3030.07 735.187 3040.24C731.372 3039 725.389 3037.22 716.019 3034.5C703.955 3030.99 688.069 3026.57 679.674 3024.66C664.901 3020.16 649.063 3011.81 649.346 3001.99C649.394 2997.37 652.878 2992.78 658.216 2990.25C660.393 2989.23 663.724 2988.14 668.11 2988.14Z" fill="#263238"/>
<path d="M1760.34 2861.39L1767.31 3219.77L1925.41 3223.88L1981.2 2890.22L1760.34 2861.39Z" fill="#263238" stroke="#263238" stroke-miterlimit="10"/>
<path d="M1767.31 3219.77C1767.31 3219.77 1753.36 3254.78 1744.07 3267.14C1734.77 3279.5 1699.89 3316.57 1681.29 3347.47C1662.7 3378.36 1702.22 3401.02 1753.36 3401.02C1804.5 3401.02 1855.65 3374.24 1869.61 3351.59C1883.56 3328.94 1899.83 3312.45 1899.83 3312.45C1899.83 3312.45 1909.13 3314.51 1911.45 3285.68C1913.77 3256.84 1925.4 3223.89 1925.4 3223.89L1767.31 3219.77Z" fill="#878787" stroke="#263238" stroke-miterlimit="10"/>
<path d="M1753.36 3401.01C1804.51 3401.01 1855.66 3374.24 1869.61 3351.58C1883.56 3328.93 1899.83 3312.45 1899.83 3312.45C1899.83 3312.45 1909.13 3314.5 1911.45 3285.67C1911.73 3282.21 1912.15 3278.68 1912.66 3275.16C1903.28 3281.35 1893.73 3288.04 1888.19 3292.94C1874.62 3304.96 1856.53 3358.37 1787.21 3381.06C1717.88 3403.76 1681.29 3347.46 1681.29 3347.46C1662.7 3378.36 1702.22 3401.01 1753.36 3401.01Z" fill="#878787" stroke="#263238" stroke-miterlimit="10"/>
<path d="M2257.86 2896.4L2283.44 3205.34L2439.21 3190.93L2474.08 2884.04L2257.86 2896.4Z" fill="#263238" stroke="#263238" stroke-miterlimit="10"/>
<path d="M2439.21 3190.93C2439.21 3190.93 2455.48 3236.24 2474.08 3256.84C2492.68 3277.43 2539.18 3328.93 2525.23 3363.94C2511.28 3398.95 2415.96 3388.66 2381.08 3374.23C2346.21 3359.82 2341.56 3320.68 2325.29 3306.27C2309.01 3291.85 2302.04 3279.49 2297.39 3263.02C2292.73 3246.54 2283.44 3205.34 2283.44 3205.34L2439.21 3190.93Z" fill="#878787" stroke="#263238" stroke-miterlimit="10"/>
<path d="M2509.15 3353.03C2495.58 3370.39 2459.41 3374.39 2417.21 3369.06C2375.01 3363.71 2343.36 3307.64 2334.31 3288.94C2328.33 3276.57 2309.18 3266.57 2296.89 3261.2C2297.06 3261.81 2297.23 3262.46 2297.39 3263.02C2302.04 3279.49 2309.01 3291.85 2325.29 3306.27C2341.56 3320.68 2346.21 3359.82 2381.08 3374.23C2415.96 3388.65 2511.28 3398.95 2525.23 3363.93C2529.73 3352.62 2527.88 3339.59 2522.74 3326.43C2520.33 3334.04 2516.15 3344.06 2509.15 3353.03Z" fill="#878787" stroke="#263238" stroke-miterlimit="10"/>
<path d="M2511.14 2019.25C2511.14 2019.25 2519.82 2196.55 2519.82 2344.58C2519.82 2492.61 2508.93 2910.95 2508.93 2910.95C2508.93 2910.95 2145.68 2920.61 2054.87 2933.48C1964.06 2946.35 1691.63 2891.64 1691.63 2891.64C1691.63 2891.64 1677.09 2537.66 1680.73 2447.55C1684.36 2357.44 1697.75 1922.4 1697.75 1922.4V1852.66C1697.75 1852.66 1585.06 1090.16 1587.37 1082.01C1589.66 1073.86 1877.33 965.799 1877.33 965.799L2194.92 931.137C2194.92 931.137 2379.03 935.216 2392.83 941.331C2406.64 947.446 2656.62 1215.74 2656.62 1215.74C2656.62 1215.74 2643.72 1545.55 2636.35 1671.27C2632.11 1743.42 2610.53 1828.44 2592.12 1850.87C2573.71 1873.29 2498.69 1864.9 2498.69 1864.9L2502.4 1961.14L2511.14 2019.25Z" fill="#92E3A9" stroke="#263238" stroke-miterlimit="10"/>
<path d="M2352.74 2036.18C2352.49 2091.49 2351.89 2139.27 2350.83 2175.36" stroke="#263238" stroke-miterlimit="10"/>
<path d="M2343.52 1120.3C2343.52 1120.3 2352.96 1640.98 2352.87 1974.7" stroke="#263238" stroke-miterlimit="10"/>
<path d="M1997.82 2508.62C2001.12 2548.92 2004.38 2579.86 2007.43 2596.09" stroke="#263238" stroke-miterlimit="10"/>
<path d="M1963.59 1874.38C1963.59 1874.38 1978.65 2242.05 1993.9 2457.07" stroke="#263238" stroke-miterlimit="10"/>
<path d="M1997.29 1551.26C1999.79 1576 2002.02 1594.21 2003.78 1602.52" stroke="#263238" stroke-miterlimit="10"/>
<path d="M1963.59 1113.83C1963.59 1113.83 1981.42 1380.37 1994.45 1521.76" stroke="#263238" stroke-miterlimit="10"/>
<path d="M2270.46 1295.07L2266.81 1553.98" stroke="#263238" stroke-miterlimit="10"/>
<path d="M1835.74 1068.52C1835.74 1068.52 1846.2 1122.53 1864.96 1207.69" stroke="#263238" stroke-miterlimit="10"/>
<path d="M1911.19 891.459C1911.19 891.459 1870.72 916.856 1869.03 925.821C1867.35 934.787 1862.28 973.629 1872.4 984.088C1882.53 994.547 1953.35 1040.86 1966.84 1048.33C1980.33 1055.81 2020.81 1085.68 2020.81 1085.68L2056.22 1133.49C2056.22 1133.49 2062.97 1072.24 2066.34 1064.77C2069.72 1057.29 2159.1 951.218 2160.78 943.746C2162.47 936.273 2150.66 889.959 2145.61 883.986C2140.55 878.007 2106.82 873.527 2106.82 873.527C2106.82 873.527 1963.47 883.986 1911.19 891.459Z" fill="white" stroke="#263238" stroke-miterlimit="10"/>
<path d="M1902.76 954.212L1869.03 925.821" stroke="#263238" stroke-miterlimit="10"/>
<path d="M2118.63 903.411L2145.61 883.986" stroke="#263238" stroke-miterlimit="10"/>
<path d="M1894.33 863.069L1902.77 954.205C1902.77 954.205 1911.2 966.156 1958.42 982.588C2005.64 999.026 2032.62 1031.89 2032.62 1031.89C2032.62 1031.89 2046.11 987.067 2054.55 969.136C2062.98 951.204 2118.63 903.396 2118.63 903.396L2111.89 854.096L1894.33 863.069Z" fill="white" stroke="#263238" stroke-miterlimit="10"/>
<path d="M2022.05 913.176L1902.76 954.212L1897.52 883.472L2022.05 913.176Z" fill="#263238" stroke="#263238" stroke-miterlimit="10"/>
<path d="M1970.29 384.356C1970.29 384.356 1848.4 434.45 1775.52 463.398C1702.63 492.338 1604.62 515.72 1614.67 519.057C1624.73 522.393 1857.19 574.715 1912.48 585.853C1967.77 596.983 2162.54 516.835 2182.65 507.926C2202.76 499.018 2307.05 461.169 2298.26 458.947C2289.46 456.718 2168.83 428.892 2083.38 412.189C1997.93 395.487 1979.07 387.693 1970.29 384.356Z" fill="#92E3A9" stroke="#263238" stroke-miterlimit="10"/>
<path d="M1823.26 717.21C1823.26 717.21 1816.98 701.622 1800.64 711.645C1784.31 721.661 1793.1 757.288 1801.9 769.533C1810.7 781.777 1833.32 792.908 1833.32 792.908L1823.26 717.21Z" fill="white" stroke="#263238" stroke-miterlimit="10"/>
<path d="M2144.94 706.079C2144.94 706.079 2157.51 686.04 2170.08 703.85C2182.64 721.66 2153.74 775.098 2133.64 782.892L2144.94 706.079Z" fill="white" stroke="#263238" stroke-miterlimit="10"/>
<path d="M1819.5 671.567C1819.5 671.567 1824.52 792.908 1848.4 828.528C1872.28 864.147 1933.84 920.928 1990.39 933.173C2046.93 945.418 2109.76 865.269 2122.33 845.23C2134.9 825.191 2148.72 652.642 2146.21 642.626C2143.69 632.603 2103.49 600.327 2033.12 590.304C1962.75 580.288 1833.33 618.137 1824.53 631.496C1815.72 644.848 1819.5 671.567 1819.5 671.567Z" fill="white" stroke="#263238" stroke-miterlimit="10"/>
<path d="M1955.54 762.853C1955.54 762.853 1951.78 777.326 1956.8 781.777C1961.83 786.228 1989.47 796.251 1999.53 794.022C2009.58 791.793 2027.17 786.228 2028.43 775.098C2029.69 763.967 2027.17 757.288 2027.17 757.288" stroke="#263238" stroke-miterlimit="10"/>
<path d="M2066.13 807.381C2066.13 807.381 2034.71 819.626 2000.78 822.97C1966.86 826.306 1911.56 812.947 1911.56 812.947" stroke="#263238" stroke-miterlimit="10"/>
<path d="M1927.9 719.439C1927.9 727.433 1922.84 733.912 1916.6 733.912C1910.35 733.912 1905.28 727.433 1905.28 719.439C1905.28 711.444 1910.35 704.965 1916.6 704.965C1922.84 704.965 1927.9 711.444 1927.9 719.439Z" fill="#263238"/>
<path d="M2058.59 714.981C2058.59 722.975 2053.52 729.454 2047.28 729.454C2041.03 729.454 2035.97 722.975 2035.97 714.981C2035.97 706.986 2041.03 700.507 2047.28 700.507C2053.52 700.514 2058.59 706.986 2058.59 714.981Z" fill="#263238"/>
<path d="M1970.62 697.171C1970.62 697.171 1961.04 690.491 1948.73 688.262C1936.42 686.033 1858.45 682.697 1843.39 690.491C1828.34 698.285 1836.55 732.791 1843.39 738.363C1850.23 743.928 1913.16 753.951 1936.42 748.379C1959.67 742.814 1971.99 713.866 1970.62 697.171Z" stroke="#263238" stroke-miterlimit="10"/>
<path d="M2002.99 697.171C2002.99 697.171 2012.4 690.491 2024.52 688.262C2036.63 686.033 2113.34 682.697 2128.15 690.491C2142.95 698.285 2134.87 732.791 2128.15 738.363C2121.41 743.928 2059.51 753.951 2036.63 748.379C2013.75 742.814 2001.64 713.866 2002.99 697.171Z" stroke="#263238" stroke-miterlimit="10"/>
<path d="M1951.99 688.262H2021.62L2002.98 697.171H1970.63L1951.99 688.262Z" fill="#263238" stroke="#263238" stroke-miterlimit="10"/>
<path d="M1876.38 677.132C1876.38 677.132 1910.31 663.772 1948 671.566" stroke="#263238" stroke-miterlimit="10"/>
<path d="M2020.89 670.452C2020.89 670.452 2059.84 655.979 2088.75 672.681" stroke="#263238" stroke-miterlimit="10"/>
<path d="M1834.57 701.622L1823.26 704.965" stroke="#263238" stroke-miterlimit="10"/>
<path d="M1886.09 613.679C1886.09 613.679 1858.45 638.168 1867.24 638.168C1876.04 638.168 1926.3 611.45 1926.3 611.45C1926.3 611.45 1871.02 644.848 1892.38 652.642C1913.74 660.436 1986.62 657.093 2006.73 645.963C2026.83 634.832 2050.71 617.022 2050.71 617.022C2050.71 617.022 2034.37 642.626 2048.19 637.061C2062.01 631.496 2085.89 604.777 2087.15 601.441C2088.4 598.098 1986.61 572.494 1886.09 613.679Z" fill="#263238" stroke="#263238" stroke-miterlimit="10"/>
<path d="M1854.68 622.587C1854.68 622.587 1858.45 647.077 1849.66 661.551C1840.86 676.025 1819.5 696.064 1819.5 696.064C1819.5 696.064 1804.42 651.535 1815.73 635.947C1827.03 620.359 1850.91 614.793 1854.68 622.587Z" fill="#263238" stroke="#263238" stroke-miterlimit="10"/>
<path d="M2121.07 624.809C2121.07 624.809 2114.79 651.528 2122.33 664.887C2129.87 678.246 2143.69 689.377 2143.69 689.377C2143.69 689.377 2151.23 652.642 2146.21 642.619C2141.18 632.603 2123.58 612.564 2121.07 624.809Z" fill="#263238" stroke="#263238" stroke-miterlimit="10"/>
<path d="M1811.95 676.018C1811.95 676.018 1883.57 628.146 1987.87 624.809C2092.16 621.473 2147.46 662.658 2147.46 662.658C2147.46 662.658 2153.74 650.414 2149.97 628.146C2146.21 605.878 2134.9 529.073 2129.87 519.05C2124.85 509.034 2040.65 471.178 1962.74 472.292C1884.84 473.407 1801.9 517.935 1798.13 535.745C1794.36 553.569 1811.95 676.018 1811.95 676.018Z" fill="#92E3A9" stroke="#263238" stroke-miterlimit="10"/>
<path d="M2809.58 1174.93C2809.58 1174.93 2835.38 1258.2 2846.44 1333.3C2857.49 1408.41 2851.97 1460.65 2796.68 1501.47C2741.39 1542.29 2667.67 1746.38 2640.02 1790.46C2612.38 1834.55 2592.11 1850.87 2592.11 1850.87C2592.11 1850.87 2645.56 1584.73 2645.56 1455.76C2645.56 1326.77 2682.42 1228.81 2704.53 1194.52C2726.64 1160.23 2798.52 1117.78 2809.58 1174.93Z" fill="#263238" stroke="#263238" stroke-miterlimit="10"/>
<path d="M2105.53 1177.59L2143.91 1073.67C2143.91 1073.67 2214.29 1066.12 2220.69 1064.23C2227.08 1062.34 2320.92 981.095 2333.72 977.315C2346.52 973.536 2359.32 973.536 2352.91 990.539C2346.52 1007.54 2271.87 1081.23 2271.87 1081.23C2271.87 1081.23 2301.73 1092.57 2299.6 1107.69C2297.47 1122.8 2297.47 1122.8 2297.47 1122.8C2297.47 1122.8 2308.13 1143.58 2312.39 1158.7C2316.66 1173.82 2325.19 1196.49 2314.52 1211.6C2303.86 1226.72 2244.14 1264.5 2210.02 1273.96C2175.89 1283.4 2156.7 1287.18 2156.7 1287.18L2041.53 1377.87L1988.21 1255.06L2105.53 1177.59Z" fill="white" stroke="#263238" stroke-miterlimit="10"/>
<path d="M2220.7 1064.22L2160.98 1094.46" stroke="#263238" stroke-miterlimit="10"/>
<path d="M1968.87 1403.26C1968.87 1403.26 1907.65 1647.34 1903.27 1751.94C1898.9 1856.54 1870.81 2001.28 1870.81 2001.28C1870.81 2001.28 1815.81 1926.28 1807.06 1790.68C1798.31 1655.09 1855.16 1438.13 1855.16 1438.13L1968.87 1403.26Z" fill="#263238" stroke="#263238" stroke-miterlimit="10"/>
<path d="M2009.56 1234.27L2060.74 1394.87L1885.86 1491.23L1883.73 1292.84L2009.56 1234.27Z" fill="white" stroke="#263238" stroke-miterlimit="10"/>
<path d="M1670.46 1081.23C1640.6 1062.34 1591.55 1068.01 1587.35 1082.01C1583.16 1096.02 1516.9 1323.07 1516.9 1389.2C1516.9 1455.32 1589.41 1517.67 1591.55 1530.9C1593.68 1544.12 1651.14 1825.56 1710.87 1903.02C1770.58 1980.48 1866.55 2008.83 1870.82 2001.27C1875.08 1993.71 1849.61 1804.86 1858.14 1768.96C1866.67 1733.07 1909.32 1496.89 1917.85 1411.87C1926.39 1326.85 1922.12 1270.17 1922.12 1270.17L1794.16 1304.17C1794.16 1304.17 1819.75 1258.83 1802.69 1230.49C1785.63 1202.15 1700.32 1141.69 1700.32 1141.69" fill="#92E3A9"/>
<path d="M1670.46 1081.23C1640.6 1062.34 1591.55 1068.01 1587.35 1082.01C1583.16 1096.02 1516.9 1323.07 1516.9 1389.2C1516.9 1455.32 1589.41 1517.67 1591.55 1530.9C1593.68 1544.12 1651.14 1825.56 1710.87 1903.02C1770.58 1980.48 1866.55 2008.83 1870.82 2001.27C1875.08 1993.71 1849.61 1804.86 1858.14 1768.96C1866.67 1733.06 1909.32 1496.89 1917.85 1411.87C1926.39 1326.85 1922.12 1270.17 1922.12 1270.17L1794.16 1304.17C1794.16 1304.17 1819.75 1258.83 1802.69 1230.49C1785.63 1202.15 1700.32 1141.69 1700.32 1141.69" stroke="#263238" stroke-miterlimit="10"/>
<path d="M1571.04 1418.31C1569.72 1441.14 1572.36 1461 1572.36 1461" stroke="#263238" stroke-miterlimit="10"/>
<path d="M1762.16 1307.95C1762.16 1307.95 1606.48 1336.29 1585.15 1366.53" stroke="#263238" stroke-miterlimit="10"/>
<path d="M1572.35 1321.18C1572.35 1321.18 1606.48 1306.07 1636.33 1306.07C1666.19 1306.07 1730.17 1300.4 1730.17 1300.4" stroke="#263238" stroke-miterlimit="10"/>
<path d="M2460.62 1748.15C2460.73 1828.07 2465.72 1838.15 2483.02 1844.54" stroke="#263238" stroke-miterlimit="10"/>
<path d="M2414.77 1001.88C2414.77 1001.88 2467.3 1337.65 2463.04 1577.6C2462.1 1630.43 2461.3 1672.48 2460.9 1706.02" stroke="#263238" stroke-miterlimit="10"/>
<path d="M2526.23 535.581L2577.63 1104.05C2577.63 1104.05 2590.84 1120.96 2646.64 1106.65L2623.15 526.472C2623.15 526.472 2551.2 504.361 2526.23 535.581Z" fill="white" stroke="#263238" stroke-miterlimit="10"/>
<path d="M2553.71 817.34C2553.71 817.34 2590.65 798.851 2633.23 813.161L2633.9 834.057C2633.9 834.057 2581.61 829.513 2553.71 841.222V817.34Z" fill="#92E3A9" stroke="#263238" stroke-miterlimit="10"/>
<path d="M2534.98 770.018L2542.35 815.733C2542.35 815.733 2511.02 851.653 2516.54 856.553C2522.07 861.454 2540.5 864.719 2540.5 864.719L2553.71 817.347C2553.71 817.347 2577.36 794.515 2575.52 784.713C2573.67 774.919 2547.88 752.058 2542.35 752.058C2536.82 752.058 2534.98 770.018 2534.98 770.018Z" fill="#92E3A9" stroke="#263238" stroke-miterlimit="10"/>
<path d="M2691.63 1107.99C2691.63 1107.99 2649.23 1202.69 2652.93 1274.52C2656.61 1346.36 2684.26 1416.56 2700.84 1427.99C2717.43 1439.43 2774.56 1431.26 2785.62 1398.6C2796.68 1365.95 2826.17 1264.72 2820.63 1232.07C2815.1 1199.42 2802.21 1158.6 2798.51 1143.91C2794.82 1129.21 2717.43 1088.4 2691.63 1107.99Z" fill="white" stroke="#263238" stroke-miterlimit="10"/>
<path d="M2764.53 1045.33C2764.53 1045.33 2709.08 930.079 2700.55 911.191C2692.02 892.295 2694.16 877.185 2683.49 877.185C2672.83 877.185 2557.66 869.627 2549.13 875.292C2540.6 880.964 2547 916.856 2547 916.856C2547 916.856 2540.6 933.859 2540.6 947.089C2540.6 960.32 2540.6 960.313 2540.6 960.313C2540.6 960.313 2547 994.318 2549.14 1001.88C2551.27 1009.43 2551.27 1030.22 2557.67 1039.66C2557.67 1039.66 2589.66 1043.44 2598.19 1043.44C2606.72 1043.44 2621.65 1062.34 2638.71 1081.23C2655.77 1100.13 2679.23 1119.02 2679.23 1119.02C2679.23 1119.02 2679.23 1183.26 2679.23 1222.93C2679.23 1262.61 2692.03 1345.75 2713.36 1343.85C2734.69 1341.96 2798.67 1255.05 2802.93 1209.71C2807.19 1164.36 2773.06 1060.44 2764.53 1045.33Z" fill="white" stroke="#263238" stroke-miterlimit="10"/>
<path d="M2547 916.856L2631.95 910.226C2631.95 910.226 2646.64 899.817 2658.39 905.025" stroke="#263238" stroke-miterlimit="10"/>
<path d="M2545.32 970.064L2626.08 955.755C2626.08 955.755 2640.77 942.746 2652.52 946.646" stroke="#263238" stroke-miterlimit="10"/>
<path d="M2549.13 1001.88L2612.86 997.383C2612.86 997.383 2634.89 981.773 2645.17 984.374C2655.45 986.974 2662.79 990.875 2662.79 990.875" stroke="#263238" stroke-miterlimit="10"/>
<path d="M2679.22 1119.02C2679.22 1119.02 2699.5 1124.86 2712.71 1117.06L2679.22 1119.02Z" fill="white"/>
<path d="M2679.22 1119.02C2679.22 1119.02 2699.5 1124.86 2712.71 1117.06" stroke="#263238" stroke-miterlimit="10"/>
</svg>
