<svg width="4032" height="2546" viewBox="0 0 4032 2546" fill="none" xmlns="http://www.w3.org/2000/svg">
<path d="M3741.62 1411.95C3741.62 1411.95 3795.38 505.57 2983.6 256.062C2171.83 6.55376 1763.25 189.866 1505.2 424.098C1247.16 658.33 1161.14 811.09 865.46 841.642C569.78 872.194 295.604 923.114 155.828 1264.28C16.0524 1605.44 193.46 1875.32 462.26 2043.35C731.06 2211.39 1042.87 2033.17 1290.16 2140.1C1537.46 2247.03 1693.36 2425.25 2198.71 2445.62C2704.05 2465.99 2720.18 2328.51 2978.23 2114.64C3236.28 1900.78 3693.24 2124.83 3741.62 1411.95Z" fill="#92E3A9"/>
<path opacity="0.7" d="M3741.62 1411.95C3741.62 1411.95 3795.38 505.57 2983.6 256.062C2171.83 6.55376 1763.25 189.866 1505.2 424.098C1247.16 658.33 1161.14 811.09 865.46 841.642C569.78 872.194 295.604 923.114 155.828 1264.28C16.0524 1605.44 193.46 1875.32 462.26 2043.35C731.06 2211.39 1042.87 2033.17 1290.16 2140.1C1537.46 2247.03 1693.36 2425.25 2198.71 2445.62C2704.05 2465.99 2720.18 2328.51 2978.23 2114.64C3236.28 1900.78 3693.24 2124.83 3741.62 1411.95Z" fill="white"/>
<path d="M3226.09 1488.18C3246.11 1496.46 3295.06 1495.42 3295.1 1495.42C3295.6 1495.41 3284.57 1465.07 3283.64 1463.23C3272.91 1441.95 3238.94 1406.81 3211.31 1410.35C3191.4 1412.89 3180.32 1431.77 3184.82 1449.52C3189.41 1467.66 3209.05 1481.13 3226.09 1488.18Z" fill="#263238"/>
<path d="M3242.99 1622.48C3263.75 1625.35 3307.44 1613.35 3310.91 1612.38C3317.81 1635.54 3326.87 1658.78 3337.41 1681.82C3343.41 1695 3349.9 1708.09 3356.58 1721.14C3352.6 1715.61 3348.99 1710.7 3348.41 1710.06C3332.11 1692.23 3289.56 1666.83 3263.89 1677.16C3245.39 1684.59 3239.99 1705.56 3249.27 1721.57C3258.75 1737.91 3281.46 1745.99 3299.86 1748.53C3318.54 1751.11 3356 1741.59 3365.88 1738.94C3368.5 1743.92 3371.05 1748.92 3373.69 1753.89C3386.34 1777.76 3399.07 1801.51 3410.81 1825.17C3414.95 1833.51 3418.7 1841.86 3422.49 1850.21C3418.94 1845.31 3415.92 1841.2 3415.38 1840.62C3399.09 1822.78 3356.54 1797.39 3330.87 1807.71C3312.37 1815.15 3306.96 1836.12 3316.24 1852.12C3325.73 1868.46 3348.43 1876.55 3366.83 1879.08C3384.65 1881.55 3419.31 1873.05 3431.07 1869.96C3434.68 1878.61 3438.31 1887.28 3441.39 1895.82C3443.35 1901.71 3445.68 1907.24 3447.3 1913.24C3449.05 1919.16 3450.77 1925.02 3452.48 1930.82C3455.34 1942.1 3458.36 1953.73 3460.86 1964.81C3462.65 1972.49 3464.22 1979.86 3465.82 1987.27C3461.8 1978.93 3453.56 1962.75 3452.71 1961.46C3439.47 1941.49 3401.46 1910.29 3374.44 1916.81C3354.97 1921.51 3346.26 1941.46 3352.89 1958.61C3359.64 1976.12 3380.79 1987.37 3398.58 1992.52C3418.16 1998.19 3461.52 1993.01 3466.93 1992.33C3469.53 2004.6 3471.94 2016.56 3474.01 2027.87C3478.66 2052.85 3482.17 2075.25 3484.84 2094.2H3503.11C3499.93 2074.59 3495.76 2051.23 3490.25 2025C3487.66 2012.53 3484.64 1999.26 3481.4 1985.65C3484.65 1984.42 3503.15 1977.34 3519.53 1968.66C3533.81 1983.3 3570.38 2000.44 3575.11 2002.62C3570.14 2014.21 3565.17 2025.45 3560.31 2035.97C3550.2 2058.01 3540.6 2077.56 3532.11 2094.2H3551.88C3559.17 2078.87 3567.18 2061.41 3575.53 2042.06C3580.64 2030.31 3585.86 2017.65 3591.07 2004.61C3596.32 2005.65 3639.24 2013.91 3659.24 2009.64C3677.38 2005.75 3699.36 1996.03 3707.48 1979.04C3715.43 1962.41 3708.32 1941.9 3689.26 1935.84C3662.84 1927.43 3622.48 1955.87 3607.69 1974.85C3606.82 1975.97 3598.79 1989.11 3593.87 1997.49C3595.97 1992.15 3598.07 1986.99 3600.17 1981.47C3604.39 1970.57 3608.26 1959.59 3612.47 1947.78C3614.29 1942.01 3616.13 1936.18 3617.99 1930.3C3619.97 1924.5 3621.27 1918.14 3622.96 1912.01C3626.56 1897.71 3629.46 1883.05 3632.05 1868.23C3642.13 1871.7 3678.11 1883.56 3696.75 1882.31C3715.3 1881.08 3738.57 1874.63 3749.32 1859C3759.84 1843.7 3756.09 1822.4 3738.23 1813.68C3713.45 1801.57 3669.01 1823.89 3651.36 1840.53C3650.26 1841.57 3639.01 1854.86 3632.98 1862.27C3634.46 1853.35 3635.99 1844.45 3637.17 1835.37C3640.61 1809.18 3643.21 1782.57 3645.95 1756.03C3646.78 1747.91 3647.71 1739.82 3648.62 1731.71C3652.19 1732.99 3694.63 1747.95 3715.51 1746.57C3734.06 1745.33 3757.33 1738.88 3768.08 1723.25C3778.6 1707.95 3774.84 1686.65 3756.99 1677.93C3732.21 1665.82 3687.77 1688.14 3670.12 1704.78C3668.79 1706.03 3652.63 1725.18 3648.78 1730.24C3650.77 1712.39 3652.93 1694.63 3655.8 1677.2C3659.74 1653.15 3665.01 1629.75 3671.88 1607.44C3673.54 1608.04 3717.77 1623.85 3739.15 1622.43C3757.71 1621.19 3780.98 1614.74 3791.72 1599.11C3802.23 1583.82 3798.49 1562.52 3780.63 1553.79C3755.84 1541.69 3711.41 1564.01 3693.76 1580.64C3692.38 1581.95 3675 1602.56 3672.14 1606.5C3672.55 1605.18 3672.82 1603.76 3673.25 1602.44C3680.9 1578.71 3691.47 1556.64 3702.42 1536.43C3708.77 1524.67 3715.53 1513.78 3722.35 1503.31C3730.27 1507.06 3766.66 1523.79 3786.04 1524.53C3804.63 1525.23 3828.51 1521.23 3841 1506.82C3853.24 1492.71 3851.97 1471.15 3835.24 1460.62C3812 1446 3765.25 1463.57 3745.78 1478.27C3744.72 1479.07 3734.91 1488.33 3727.86 1495.16C3731.02 1490.49 3734.18 1485.6 3737.3 1481.18C3748.96 1464.54 3760.73 1449.98 3771.26 1437.16C3777.31 1429.93 3782.93 1423.49 3788.26 1417.52C3798.05 1417.36 3837.51 1416.22 3854.76 1408.56C3871.6 1401.06 3890.85 1387.1 3894.93 1368.85C3898.91 1350.98 3887.3 1332.4 3867.33 1330.37C3839.6 1327.54 3806.65 1363.53 3796.52 1385.08C3795.65 1386.94 3785.49 1417.55 3786 1417.55C3786 1417.55 3786.47 1417.54 3786.59 1417.54C3781.34 1423.18 3775.78 1429.29 3769.86 1436.09C3759.01 1448.71 3746.88 1463.06 3734.79 1479.53C3722.65 1495.95 3709.97 1514.12 3698.42 1534.4C3686.82 1554.71 3675.72 1576.64 3667.36 1600.64C3667.26 1600.91 3667.2 1601.2 3667.1 1601.47C3667.25 1593.73 3666.89 1572.08 3666.66 1570.43C3663.45 1547.04 3642.76 1503.62 3615.33 1498.82C3595.58 1495.36 3578.85 1510.02 3577.27 1528.22C3575.67 1546.8 3589.89 1565.4 3603.76 1577.14C3619.41 1590.38 3662.84 1603.19 3666.29 1604.21C3658.55 1627.12 3652.58 1651.24 3647.94 1675.96C3645.28 1690.1 3643.06 1704.41 3641.03 1718.79C3640.93 1712.09 3640.78 1706.11 3640.66 1705.27C3637.46 1681.87 3616.76 1638.46 3589.34 1633.66C3569.58 1630.19 3552.85 1644.86 3551.28 1663.06C3549.67 1681.64 3563.9 1700.24 3577.77 1711.98C3591.85 1723.89 3628.63 1735.52 3638.41 1738.48C3637.69 1744 3636.91 1749.51 3636.22 1755.04C3632.87 1781.54 3629.66 1808.01 3625.66 1833.88C3624.26 1843 3622.53 1851.93 3620.82 1860.86C3620.73 1854.92 3620.59 1849.91 3620.48 1849.16C3617.28 1825.76 3596.59 1782.35 3569.16 1777.54C3549.4 1774.08 3532.67 1788.74 3531.09 1806.95C3529.48 1825.52 3543.71 1844.14 3557.59 1855.87C3571.02 1867.23 3604.88 1878.26 3616.48 1881.82C3614.45 1890.93 3612.42 1900.05 3610.02 1908.79C3608.23 1914.72 3606.95 1920.54 3604.81 1926.41C3602.82 1932.25 3600.84 1938.04 3598.89 1943.77C3594.7 1954.68 3590.45 1965.96 3586.08 1976.5C3583.1 1983.85 3580.11 1990.81 3577.14 1997.83C3578.64 1988.77 3581.21 1970.97 3581.24 1969.46C3581.62 1953.8 3575.74 1928.32 3564.05 1910.42C3564.12 1908.1 3563.98 1905.8 3563.59 1903.51C3560.54 1885.48 3542.65 1872.09 3523.24 1876.99C3496.29 1883.78 3479.2 1928.59 3477.92 1952.14C3477.84 1953.53 3478.8 1968.7 3479.58 1978.25C3478.22 1972.7 3476.97 1967.3 3475.5 1961.6C3472.68 1950.31 3469.5 1939.12 3466.14 1927.07C3464.31 1921.3 3462.44 1915.48 3460.56 1909.6C3458.83 1903.74 3456.21 1897.75 3454.05 1891.75C3448.73 1877.95 3442.61 1864.2 3436.13 1850.49C3446.57 1848.12 3483.48 1839.21 3498.3 1828.44C3513.06 1817.71 3528.71 1800.17 3528.57 1781.52C3528.43 1763.26 3512.9 1747.46 3492.93 1749.52C3465.2 1752.37 3441.14 1794.2 3436.11 1817.3C3435.8 1818.74 3434.15 1835.7 3433.44 1845.04C3429.48 1836.82 3425.57 1828.6 3421.27 1820.42C3408.88 1796.78 3395.57 1773.21 3382.39 1749.66C3378.34 1742.44 3374.41 1735.21 3370.44 1727.98C3374.17 1727.17 3418.28 1717.48 3434.89 1705.41C3449.64 1694.69 3465.29 1677.14 3465.15 1658.5C3465.01 1640.24 3449.48 1624.44 3429.51 1626.5C3401.79 1629.35 3377.72 1671.18 3372.69 1694.28C3372.32 1696.02 3369.99 1720.43 3369.72 1726.66C3360.99 1710.74 3352.44 1694.8 3344.69 1678.76C3333.96 1656.64 3324.73 1634.38 3317.47 1612.18C3319.21 1611.81 3365.3 1601.88 3382.3 1589.52C3397.06 1578.8 3412.71 1561.25 3412.57 1542.61C3412.44 1524.35 3396.91 1508.55 3376.93 1510.6C3349.2 1513.46 3325.14 1555.29 3320.12 1578.39C3319.72 1580.21 3317.23 1606.47 3317.14 1611.25C3316.71 1609.93 3316.11 1608.61 3315.7 1607.29C3308.27 1583.5 3304.22 1559.57 3301.59 1536.99C3300.04 1523.87 3299.33 1511.25 3298.92 1498.95C3307.71 1497.93 3347.8 1492.88 3364.4 1483.36C3380.32 1474.24 3397.91 1458.43 3399.93 1439.88C3401.91 1421.71 3388.3 1404.39 3368.21 1404.35C3340.32 1404.3 3311.55 1443.38 3303.87 1465.82C3303.46 1467.04 3300.66 1479.89 3298.77 1489.27C3298.68 1483.72 3298.47 1477.99 3298.5 1472.68C3298.54 1452.7 3299.87 1434.41 3301.19 1418.22C3302.01 1409.02 3302.96 1400.72 3303.93 1392.96C3312 1387.7 3344.25 1366.14 3354.17 1350.73C3363.85 1335.69 3371.77 1313.98 3364.54 1296.63C3357.46 1279.65 3336.96 1270.22 3319.12 1278.95C3294.34 1291.08 3287.82 1338.32 3291.92 1361.59C3292.28 1363.6 3301.63 1394.44 3302.06 1394.18C3302.06 1394.18 3302.45 1393.92 3302.54 1393.85C3301.45 1401.3 3300.37 1409.3 3299.39 1418.07C3297.69 1434.26 3295.93 1452.57 3295.44 1472.63C3294.89 1492.66 3294.89 1514.45 3297.07 1537.4C3299.22 1560.4 3302.73 1584.49 3309.74 1608.87C3309.82 1609.15 3309.94 1609.43 3310.02 1609.7C3305.63 1603.17 3292.72 1585.31 3291.56 1584.04C3275.26 1566.2 3232.71 1540.8 3207.04 1551.13C3188.55 1558.57 3183.13 1579.54 3192.42 1595.54C3201.89 1611.86 3224.59 1619.94 3242.99 1622.48Z" fill="#263238"/>
<path d="M3721.22 1498.38C3721.65 1498.64 3730.13 1467.57 3730.43 1465.55C3733.86 1442.19 3725.99 1395.13 3700.88 1383.65C3682.8 1375.37 3662.57 1385.33 3655.98 1402.49C3649.24 1420 3657.78 1441.51 3667.89 1456.29C3679.75 1473.66 3721.19 1498.36 3721.22 1498.38Z" fill="#263238"/>
<path d="M3657.82 2344.86H3390.26L3356.82 2063.4H3691.27L3657.82 2344.86Z" fill="white" stroke="#263238" stroke-miterlimit="10" stroke-linecap="round" stroke-linejoin="round"/>
<path d="M3362.95 2114.96L3366.18 2142.24H3681.9L3685.14 2114.96H3362.95Z" fill="#263238"/>
<path d="M3674.77 2202.22L3678.01 2174.96H3370.07L3373.32 2202.22H3674.77Z" fill="#263238"/>
<path d="M2264.69 1720.33H2102.22V2341.2H2264.69V1720.33Z" fill="#263238" stroke="#263238" stroke-miterlimit="10" stroke-linecap="round" stroke-linejoin="round"/>
<path d="M3250.03 696.162H1199.51V1874.22H3250.03V696.162Z" fill="#263238" stroke="#263238" stroke-miterlimit="10" stroke-linecap="round" stroke-linejoin="round"/>
<path d="M3208.72 696.162H1158.19V1874.22H3208.72V696.162Z" fill="#92E3A9" stroke="#263238" stroke-miterlimit="10" stroke-linecap="round" stroke-linejoin="round"/>
<path d="M3134.83 738.619H1232.09V1831.77H3134.83V738.619Z" fill="white" stroke="#263238" stroke-miterlimit="10" stroke-linecap="round" stroke-linejoin="round"/>
<path d="M3134.83 1765.94H1232.09V1831.77H3134.83V1765.94Z" fill="white" stroke="#263238" stroke-miterlimit="10" stroke-linecap="round" stroke-linejoin="round"/>
<path d="M2192.33 2271.54L1589.94 2308.42V2345.56H2776.98V2308.42L2192.33 2271.54Z" fill="#263238" stroke="#263238" stroke-miterlimit="10" stroke-linecap="round" stroke-linejoin="round"/>
<path d="M3134.83 738.619H1232.09V1831.77H3134.83V738.619Z" fill="white" stroke="#263238" stroke-miterlimit="10" stroke-linecap="round" stroke-linejoin="round"/>
<path d="M1896.21 487.875L1733.06 722.178" stroke="#263238" stroke-miterlimit="10" stroke-dasharray="5 5"/>
<path d="M2155.96 362.918V309.696L2099.84 303.784C2096.76 292.541 2092.08 281.919 2086.09 272.112L2121.53 230.139L2081.8 192.504L2037.68 225.928C2027.36 220.179 2016.17 215.688 2004.33 212.694L1998.06 159.299H1941.87L1935.63 212.449C1923.76 215.362 1912.55 219.802 1902.19 225.48L1857.88 191.908L1818.14 229.543L1853.43 271.333C1847.36 281.105 1842.62 291.701 1839.46 302.919L1783.08 308.856V362.078L1839.2 367.989C1842.28 379.232 1846.96 389.849 1852.96 399.662L1817.51 441.635L1857.25 479.27L1901.37 445.846C1911.68 451.595 1922.88 456.086 1934.72 459.08L1940.98 512.475H1997.17L2003.41 459.325C2015.29 456.407 2026.5 451.972 2036.86 446.294L2081.17 479.866L2120.91 442.231L2085.62 400.441C2091.69 390.669 2096.43 380.073 2099.59 368.855L2155.96 362.918ZM1969.52 399.402C1932.49 399.402 1902.46 370.963 1902.46 335.884C1902.46 300.806 1932.49 272.367 1969.52 272.367C2006.56 272.367 2036.58 300.806 2036.58 335.884C2036.58 370.968 2006.56 399.402 1969.52 399.402Z" fill="#92E3A9" stroke="#263238" stroke-miterlimit="10" stroke-linecap="round" stroke-linejoin="round"/>
<path d="M2376.77 256.088L2370.54 220.851L2332.7 222.827C2329.35 215.708 2325 209.165 2319.88 203.299L2338.44 171.79L2307.73 151.045L2282.43 177.803C2274.92 175.079 2267 173.282 2258.8 172.543L2248.4 137.852L2211.2 143.748L2213.29 179.591C2205.77 182.768 2198.87 186.882 2192.67 191.73L2159.41 174.158L2137.5 203.243L2165.75 227.206C2162.88 234.314 2160.98 241.825 2160.2 249.585L2123.57 259.433L2129.8 294.67L2167.64 292.694C2171 299.813 2175.34 306.351 2180.46 312.222L2161.91 343.731L2192.61 364.476L2217.91 337.718C2225.42 340.442 2233.35 342.239 2241.54 342.978L2251.94 377.669L2289.14 371.773L2287.05 335.93C2294.57 332.753 2301.48 328.639 2307.67 323.791L2340.94 341.364L2362.84 312.278L2334.59 288.315C2337.46 281.207 2339.36 273.696 2340.14 265.936L2376.77 256.088ZM2257.61 299.813C2233.09 303.698 2209.89 288.025 2205.78 264.8C2201.68 241.576 2218.22 219.599 2242.74 215.708C2267.26 211.823 2290.47 227.496 2294.57 250.721C2298.68 273.945 2282.13 295.923 2257.61 299.813Z" fill="#263238" stroke="#263238" stroke-miterlimit="10"/>
<path d="M1416.91 490.334L1419.53 502.814" stroke="#263238" stroke-miterlimit="10"/>
<path d="M1424.46 526.293L1461.43 702.384" stroke="#263238" stroke-miterlimit="10" stroke-dasharray="4.7 4.7"/>
<path d="M1463.9 714.123L1466.52 726.609" stroke="#263238" stroke-miterlimit="10"/>
<path d="M1454.73 468.465H1530.64V200.789H1454.73V468.465Z" fill="#92E3A9" stroke="#263238" stroke-miterlimit="10" stroke-linecap="round" stroke-linejoin="round"/>
<path d="M1353.52 468.465H1429.43V260.716H1353.52V468.465Z" fill="#263238" stroke="#263238" stroke-miterlimit="10"/>
<path d="M1252.31 468.465H1328.21V308.658H1252.31V468.465Z" fill="#92E3A9" stroke="#263238" stroke-miterlimit="10" stroke-linecap="round" stroke-linejoin="round"/>
<path d="M1151.09 468.465H1227V348.609H1151.09V468.465Z" fill="#263238" stroke="#263238" stroke-miterlimit="10"/>
<path d="M1186.6 330.923L1179.19 321.702L1256.81 265.766L1295.29 277.916L1358.83 213.099L1396.23 223.879L1463.99 150.3L1492.69 167.898L1522.5 147.922L1529.57 157.383L1493 181.886L1466.24 165.484L1400.24 237.149L1362.59 226.293L1298.9 291.267L1259.07 278.7L1186.6 330.923Z" fill="#263238"/>
<path d="M1535.75 179.416L1559.73 130.08L1502.63 135.07L1535.75 179.416Z" fill="#263238"/>
<path d="M821.808 480.832L833.017 487.854" stroke="#263238" stroke-miterlimit="10"/>
<path d="M855.494 501.928L1203.9 720.105" stroke="#263238" stroke-miterlimit="10" stroke-dasharray="5.01 5.01"/>
<path d="M1215.13 727.143L1226.35 734.164" stroke="#263238" stroke-miterlimit="10"/>
<path d="M884.228 547.781H425.381V294.943C425.381 277.014 440.724 262.477 459.658 262.477H849.956C868.885 262.477 884.233 277.014 884.233 294.943L884.228 547.781Z" fill="white" stroke="#263238" stroke-miterlimit="10" stroke-linecap="round" stroke-linejoin="round"/>
<path d="M541.138 377.139H758.479" stroke="#263238" stroke-miterlimit="10" stroke-linecap="round" stroke-linejoin="round"/>
<path d="M541.138 410.338H758.479" stroke="#263238" stroke-miterlimit="10" stroke-linecap="round" stroke-linejoin="round"/>
<path d="M541.138 443.543H758.479" stroke="#263238" stroke-miterlimit="10" stroke-linecap="round" stroke-linejoin="round"/>
<path d="M541.138 476.748H758.479" stroke="#263238" stroke-miterlimit="10" stroke-linecap="round" stroke-linejoin="round"/>
<path d="M884.228 307.531V289.052C884.228 274.377 871.665 262.477 856.171 262.477H453.433C437.94 262.477 425.376 274.371 425.376 289.052V307.531H884.228Z" fill="#92E3A9" stroke="#263238" stroke-miterlimit="10" stroke-linecap="round" stroke-linejoin="round"/>
<path d="M805.777 286.169C805.777 282.467 802.605 279.463 798.696 279.463C794.788 279.463 791.616 282.467 791.616 286.169C791.616 289.871 794.788 292.875 798.696 292.875C802.605 292.87 805.777 289.871 805.777 286.169Z" fill="#263238" stroke="#263238" stroke-miterlimit="10" stroke-linecap="round" stroke-linejoin="round"/>
<path d="M834.097 286.169C834.097 282.467 830.925 279.463 827.017 279.463C823.108 279.463 819.937 282.467 819.937 286.169C819.937 289.871 823.108 292.875 827.017 292.875C830.925 292.875 834.097 289.871 834.097 286.169Z" fill="#263238" stroke="#263238" stroke-miterlimit="10" stroke-linecap="round" stroke-linejoin="round"/>
<path d="M862.418 286.169C862.418 282.467 859.246 279.463 855.338 279.463C851.43 279.463 848.258 282.467 848.258 286.169C848.258 289.871 851.43 292.875 855.338 292.875C859.246 292.87 862.418 289.871 862.418 286.169Z" fill="#263238" stroke="#263238" stroke-miterlimit="10" stroke-linecap="round" stroke-linejoin="round"/>
<path d="M367.17 608.421C359.466 602.382 358.558 591.506 365.165 584.397L494.049 444.342L513.747 459.791L392.469 605.809C386.319 613.279 374.868 614.466 367.17 608.421Z" fill="#263238" stroke="#263238" stroke-miterlimit="10" stroke-linejoin="round"/>
<path d="M459.75 481.609L365.164 584.396C358.563 591.51 359.466 602.381 367.17 608.421C374.873 614.46 386.319 613.278 392.464 605.808L481.931 498.087L459.75 481.609Z" fill="white" stroke="#263238" stroke-miterlimit="10" stroke-linejoin="round"/>
<path d="M601.537 340.378C566.953 313.253 515.703 317.821 487.066 350.578C458.428 383.334 463.25 431.882 497.834 459.007C532.417 486.132 583.672 481.564 612.31 448.807C640.937 416.045 636.12 367.503 601.537 340.378ZM505.312 450.442C475.717 427.233 471.593 385.697 496.097 357.666C520.601 329.634 564.458 325.729 594.048 348.938C623.643 372.147 627.766 413.688 603.262 441.714C578.759 469.746 534.907 473.651 505.312 450.442Z" fill="#263238" stroke="#263238" stroke-miterlimit="10" stroke-linejoin="round"/>
<path d="M661.329 1085.67H674.769" stroke="#263238" stroke-miterlimit="10"/>
<path d="M701.703 1085.67H1173.07" stroke="#263238" stroke-miterlimit="10" stroke-dasharray="5.01 5.01"/>
<path d="M1186.54 1085.67H1199.98" stroke="#263238" stroke-miterlimit="10"/>
<path d="M440.182 896.172H744.098" stroke="#263238" stroke-miterlimit="10" stroke-linecap="round" stroke-linejoin="round"/>
<path d="M592.14 1037.99V896.172" stroke="#263238" stroke-miterlimit="10" stroke-linecap="round" stroke-linejoin="round"/>
<path d="M351.301 931.475V1110.86" stroke="#263238" stroke-miterlimit="10" stroke-linecap="round" stroke-linejoin="round"/>
<path d="M643.75 1129.72H918.99V1287.38" stroke="#263238" stroke-miterlimit="10" stroke-linecap="round" stroke-linejoin="round"/>
<path d="M744.098 1132.44V1284.51" stroke="#263238" stroke-miterlimit="10" stroke-linecap="round" stroke-linejoin="round"/>
<path d="M494.657 836.428H296.825V964.064H494.657V836.428Z" fill="#263238" stroke="#263238" stroke-miterlimit="10"/>
<path d="M868.816 836.428H670.984V964.064H868.816V836.428Z" fill="#92E3A9" stroke="#263238" stroke-miterlimit="10" stroke-linecap="round" stroke-linejoin="round"/>
<path d="M809.202 1246.49H682.457V1328.26H809.202V1246.49Z" fill="#92E3A9" stroke="#263238" stroke-miterlimit="10" stroke-linecap="round" stroke-linejoin="round"/>
<path d="M422.14 1069.97H295.396V1151.75H422.14V1069.97Z" fill="white" stroke="#263238" stroke-miterlimit="10" stroke-linecap="round" stroke-linejoin="round"/>
<path d="M975.492 1246.49H848.747V1328.26H975.492V1246.49Z" fill="#263238" stroke="#263238" stroke-miterlimit="10"/>
<path d="M592.126 1037.98L492.416 1132.43L592.126 1226.87L691.836 1132.43L592.126 1037.98Z" fill="#92E3A9" stroke="#263238" stroke-miterlimit="10" stroke-linecap="round" stroke-linejoin="round"/>
<path d="M958.88 1690.5L971.599 1686.39" stroke="#263238" stroke-miterlimit="10"/>
<path d="M997.119 1678.13L1188.53 1616.25" stroke="#263238" stroke-miterlimit="10" stroke-dasharray="5.02 5.02"/>
<path d="M1201.28 1612.12L1214 1608.01" stroke="#263238" stroke-miterlimit="10"/>
<path d="M928.667 1611.33H322.754V1746.13H928.667V1611.33Z" fill="white" stroke="#263238" stroke-miterlimit="10" stroke-linecap="round" stroke-linejoin="round"/>
<path d="M926.662 1778.4H609.967V1956.86H926.662V1778.4Z" fill="white" stroke="#263238" stroke-miterlimit="10" stroke-linecap="round" stroke-linejoin="round"/>
<path d="M609.967 1956.86L720.207 1873.33L766.306 1905.6L862.521 1835.36L924.656 1892.31V1956.86H609.967Z" fill="#263238" stroke="#263238" stroke-miterlimit="10" stroke-linecap="round" stroke-linejoin="round"/>
<path d="M664.082 1844.85C676.258 1844.85 686.129 1835.5 686.129 1823.97C686.129 1812.44 676.258 1803.09 664.082 1803.09C651.906 1803.09 642.035 1812.44 642.035 1823.97C642.035 1835.5 651.906 1844.85 664.082 1844.85Z" fill="#263238" stroke="#263238" stroke-miterlimit="10" stroke-linecap="round" stroke-linejoin="round"/>
<path d="M926.662 1981.54H609.967V2160H926.662V1981.54Z" fill="white" stroke="#263238" stroke-miterlimit="10" stroke-linecap="round" stroke-linejoin="round"/>
<path d="M609.967 2160.01L720.207 2076.47L766.306 2108.74L862.521 2038.5L924.656 2095.45V2160.01H609.967Z" fill="#263238" stroke="#263238" stroke-miterlimit="10" stroke-linecap="round" stroke-linejoin="round"/>
<path d="M664.082 2047.99C676.258 2047.99 686.129 2038.64 686.129 2027.11C686.129 2015.58 676.258 2006.23 664.082 2006.23C651.906 2006.23 642.035 2015.58 642.035 2027.11C642.035 2038.64 651.906 2047.99 664.082 2047.99Z" fill="#263238" stroke="#263238" stroke-miterlimit="10" stroke-linecap="round" stroke-linejoin="round"/>
<path d="M331.979 1791.83H572.701" stroke="#263238" stroke-miterlimit="10"/>
<path d="M331.979 1842.5H572.701" stroke="#263238" stroke-miterlimit="10"/>
<path d="M331.979 1893.16H572.701" stroke="#263238" stroke-miterlimit="10"/>
<path d="M331.979 1943.83H572.701" stroke="#263238" stroke-miterlimit="10"/>
<path d="M331.979 1994.5H572.701" stroke="#263238" stroke-miterlimit="10"/>
<path d="M331.979 2045.17H572.701" stroke="#263238" stroke-miterlimit="10"/>
<path d="M331.979 2095.84H572.701" stroke="#263238" stroke-miterlimit="10"/>
<path d="M331.979 2146.5H572.701" stroke="#263238" stroke-miterlimit="10"/>
<path d="M3095.15 797.957H2177.69V1044.18H3095.15V797.957Z" fill="white" stroke="#263238" stroke-miterlimit="10" stroke-linecap="round" stroke-linejoin="round"/>
<path d="M3091.49 1103.13H2513.01V1429.11H3091.49V1103.13Z" fill="white" stroke="#263238" stroke-miterlimit="10" stroke-linecap="round" stroke-linejoin="round"/>
<path d="M2513.01 1429.11L2714.37 1276.52L2798.58 1335.48L2974.33 1207.17L3087.83 1311.2V1429.11H2513.01Z" fill="#263238" stroke="#263238" stroke-miterlimit="10" stroke-linecap="round" stroke-linejoin="round"/>
<path d="M2652.13 1186.36C2652.13 1207.43 2634.1 1224.51 2611.86 1224.51C2589.61 1224.51 2571.58 1207.43 2571.58 1186.36C2571.58 1165.29 2589.61 1148.21 2611.86 1148.21C2634.1 1148.22 2652.13 1165.29 2652.13 1186.36Z" fill="#263238" stroke="#263238" stroke-miterlimit="10" stroke-linecap="round" stroke-linejoin="round"/>
<path d="M3091.49 1474.2H2513.01V1800.18H3091.49V1474.2Z" fill="white" stroke="#263238" stroke-miterlimit="10" stroke-linecap="round" stroke-linejoin="round"/>
<path d="M2513.01 1800.18L2714.37 1647.59L2798.58 1706.54L2974.33 1578.23L3087.83 1682.27V1800.18H2513.01Z" fill="#263238" stroke="#263238" stroke-miterlimit="10" stroke-linecap="round" stroke-linejoin="round"/>
<path d="M2652.13 1557.42C2652.13 1578.49 2634.1 1595.57 2611.86 1595.57C2589.61 1595.57 2571.58 1578.49 2571.58 1557.42C2571.58 1536.36 2589.61 1519.28 2611.86 1519.28C2634.1 1519.28 2652.13 1536.36 2652.13 1557.42Z" fill="#263238" stroke="#263238" stroke-miterlimit="10" stroke-linecap="round" stroke-linejoin="round"/>
<path d="M2225.2 1632.36L2202.67 1501.38H2218.71L2233.57 1595.49L2252.17 1501.87H2265.83L2284.61 1595.98L2299.12 1501.39H2314.83L2292.63 1632.36H2278.63L2259.34 1535.34L2239.88 1632.36H2225.2V1632.36Z" fill="#263238"/>
<path d="M2335.84 1509.33H2471.09" stroke="#263238" stroke-miterlimit="10"/>
<path d="M2335.84 1544.67H2471.09" stroke="#263238" stroke-miterlimit="10"/>
<path d="M2335.84 1580.01H2471.09" stroke="#263238" stroke-miterlimit="10"/>
<path d="M2335.84 1615.35H2471.09" stroke="#263238" stroke-miterlimit="10"/>
<path d="M2335.84 1650.69H2471.09" stroke="#263238" stroke-miterlimit="10"/>
<path d="M2335.84 1686.03H2471.09" stroke="#263238" stroke-miterlimit="10"/>
<path d="M2335.84 1721.37H2471.09" stroke="#263238" stroke-miterlimit="10"/>
<path d="M2335.84 1756.71H2471.09" stroke="#263238" stroke-miterlimit="10"/>
<path d="M2335.84 1792.05H2471.09" stroke="#263238" stroke-miterlimit="10"/>
<path d="M2255.08 1108.33C2216.69 1108.33 2181.01 1119.32 2151.33 1138.15V738.619H1232.09V1831.77H2151.33V1432.24C2181.01 1451.07 2216.69 1462.05 2255.08 1462.05C2358.2 1462.05 2441.81 1382.87 2441.81 1285.19C2441.81 1187.51 2358.21 1108.33 2255.08 1108.33Z" fill="#263238" stroke="#263238" stroke-miterlimit="10" stroke-linecap="round" stroke-linejoin="round"/>
<path d="M1327.7 905.463H1741.43" stroke="white" stroke-width="2" stroke-miterlimit="10" stroke-linecap="round" stroke-linejoin="round"/>
<path d="M1327.7 1022.73H1543.71" stroke="white" stroke-width="2" stroke-miterlimit="10" stroke-linecap="round" stroke-linejoin="round"/>
<path d="M1327.7 958.23H1529.07" stroke="#92E3A9" stroke-width="2" stroke-miterlimit="10" stroke-linecap="round" stroke-linejoin="round"/>
<path d="M1573.01 958.23H1679.18" stroke="#92E3A9" stroke-width="2" stroke-miterlimit="10" stroke-linecap="round" stroke-linejoin="round"/>
<path d="M1741.43 958.23H1847.6" stroke="#92E3A9" stroke-width="2" stroke-miterlimit="10" stroke-linecap="round" stroke-linejoin="round"/>
<path d="M1327.7 1072.56H1529.07" stroke="white" stroke-width="2" stroke-miterlimit="10" stroke-linecap="round" stroke-linejoin="round"/>
<path d="M1573.01 1072.56H1679.18" stroke="white" stroke-width="2" stroke-miterlimit="10" stroke-linecap="round" stroke-linejoin="round"/>
<path d="M1741.43 1072.56H1847.6" stroke="#92E3A9" stroke-width="2" stroke-miterlimit="10" stroke-linecap="round" stroke-linejoin="round"/>
<path d="M1327.7 1186.89H1529.07" stroke="white" stroke-width="2" stroke-miterlimit="10" stroke-linecap="round" stroke-linejoin="round"/>
<path d="M1573.01 1186.89H1679.18" stroke="#92E3A9" stroke-width="2" stroke-miterlimit="10" stroke-linecap="round" stroke-linejoin="round"/>
<path d="M1741.43 1186.89H1847.6" stroke="white" stroke-width="2" stroke-miterlimit="10" stroke-linecap="round" stroke-linejoin="round"/>
<path d="M1452.18 1236.73H1605.34" stroke="white" stroke-width="2" stroke-miterlimit="10" stroke-linecap="round" stroke-linejoin="round"/>
<path d="M1638.76 1236.73H1719.51" stroke="white" stroke-width="2" stroke-miterlimit="10" stroke-linecap="round" stroke-linejoin="round"/>
<path d="M1766.85 1236.73H1847.6" stroke="white" stroke-width="2" stroke-miterlimit="10" stroke-linecap="round" stroke-linejoin="round"/>
<path d="M1452.18 1298.29H1605.34" stroke="white" stroke-width="2" stroke-miterlimit="10" stroke-linecap="round" stroke-linejoin="round"/>
<path d="M1638.76 1298.29H1719.51" stroke="white" stroke-width="2" stroke-miterlimit="10" stroke-linecap="round" stroke-linejoin="round"/>
<path d="M1766.85 1298.29H1847.6" stroke="white" stroke-width="2" stroke-miterlimit="10" stroke-linecap="round" stroke-linejoin="round"/>
<path d="M1327.7 1365.72H1741.43" stroke="#92E3A9" stroke-width="2" stroke-miterlimit="10" stroke-linecap="round" stroke-linejoin="round"/>
<path d="M1327.7 1482.99H1543.71" stroke="white" stroke-width="2" stroke-miterlimit="10" stroke-linecap="round" stroke-linejoin="round"/>
<path d="M1327.7 1418.49H1529.07" stroke="#92E3A9" stroke-width="2" stroke-miterlimit="10" stroke-linecap="round" stroke-linejoin="round"/>
<path d="M1573.01 1418.49H1679.18" stroke="white" stroke-width="2" stroke-miterlimit="10" stroke-linecap="round" stroke-linejoin="round"/>
<path d="M1741.43 1418.49H1847.6" stroke="#92E3A9" stroke-width="2" stroke-miterlimit="10" stroke-linecap="round" stroke-linejoin="round"/>
<path d="M1327.7 1532.82H1529.07" stroke="#92E3A9" stroke-width="2" stroke-miterlimit="10" stroke-linecap="round" stroke-linejoin="round"/>
<path d="M1573.01 1532.82H1679.18" stroke="#92E3A9" stroke-width="2" stroke-miterlimit="10" stroke-linecap="round" stroke-linejoin="round"/>
<path d="M1741.43 1532.82H1847.6" stroke="white" stroke-width="2" stroke-miterlimit="10" stroke-linecap="round" stroke-linejoin="round"/>
<path d="M1327.7 1647.16H1529.07" stroke="white" stroke-width="2" stroke-miterlimit="10" stroke-linecap="round" stroke-linejoin="round"/>
<path d="M1573.01 1647.16H1679.18" stroke="#92E3A9" stroke-width="2" stroke-miterlimit="10" stroke-linecap="round" stroke-linejoin="round"/>
<path d="M1741.43 1647.16H1847.6" stroke="#92E3A9" stroke-width="2" stroke-miterlimit="10" stroke-linecap="round" stroke-linejoin="round"/>
<path d="M1452.18 1696.99H1605.34" stroke="white" stroke-width="2" stroke-miterlimit="10" stroke-linecap="round" stroke-linejoin="round"/>
<path d="M1638.76 1696.99H1719.51" stroke="white" stroke-width="2" stroke-miterlimit="10" stroke-linecap="round" stroke-linejoin="round"/>
<path d="M1766.85 1696.99H1847.6" stroke="white" stroke-width="2" stroke-miterlimit="10" stroke-linecap="round" stroke-linejoin="round"/>
<path d="M1452.18 1758.56H1605.34" stroke="white" stroke-width="2" stroke-miterlimit="10" stroke-linecap="round" stroke-linejoin="round"/>
<path d="M1638.76 1758.56H1719.51" stroke="white" stroke-width="2" stroke-miterlimit="10" stroke-linecap="round" stroke-linejoin="round"/>
<path d="M1766.85 1758.56H1847.6" stroke="white" stroke-width="2" stroke-miterlimit="10" stroke-linecap="round" stroke-linejoin="round"/>
<path d="M1338.99 835.138L1377.89 816.16V821.639L1345.11 837.2V837.358L1377.89 852.924V858.403L1338.99 839.426V835.138Z" fill="white" stroke="white" stroke-miterlimit="10"/>
<path d="M1401.15 861.58L1424.54 804.01H1430.24L1406.77 861.58H1401.15Z" fill="white" stroke="white" stroke-miterlimit="10"/>
<path d="M1492.22 839.502L1453.32 858.403V852.924L1486.36 837.358V837.2L1453.32 821.639V816.16L1492.22 835.062V839.502Z" fill="white" stroke="white" stroke-miterlimit="10"/>
<path d="M462.11 2345.56H3876.02" stroke="#263238" stroke-miterlimit="10"/>
<path d="M284.853 2345.56H376.766" stroke="#263238" stroke-miterlimit="10"/>
</svg>
