<svg width="4032" height="2688" viewBox="0 0 4032 2688" fill="none" xmlns="http://www.w3.org/2000/svg">
<path d="M3765.51 657.275C3666.32 518.8 3538.24 410.216 3394.24 337.048C3196.09 236.372 2882.78 99.585 2649.95 103.757C2282.72 110.337 1456.21 561.373 1024.43 647.179C592.651 732.985 -42.3142 1053.31 89.758 1705.42C221.83 2357.52 572.335 2552.01 1242.86 2466.2C1913.39 2380.4 2152.14 2294.59 2695.67 2403.28C3239.21 2511.96 3864.02 2437.6 3930.05 1659.66C3978.4 1090.09 3906.94 854.736 3765.51 657.275Z" fill="#92E3A9"/>
<path opacity="0.7" d="M3765.51 657.275C3666.32 518.8 3538.24 410.216 3394.24 337.048C3196.09 236.372 2882.78 99.585 2649.95 103.757C2282.72 110.337 1456.21 561.373 1024.43 647.179C592.651 732.985 -42.3142 1053.31 89.758 1705.42C221.83 2357.52 572.335 2552.01 1242.86 2466.2C1913.39 2380.4 2152.14 2294.59 2695.67 2403.28C3239.21 2511.96 3864.02 2437.6 3930.05 1659.66C3978.4 1090.09 3906.94 854.736 3765.51 657.275Z" fill="white"/>
<path d="M489.721 681.919L504.188 858.585C504.188 858.585 378.276 837.941 344.843 904.808C311.41 971.675 311.41 1146.27 389.421 1239.14C445.622 1306.05 505.671 1278.47 534.858 1257.83L549.991 1450.88C549.991 1522.99 688.493 1655.75 859.337 1655.75C1030.19 1655.75 1168.68 1522.99 1168.68 1450.88L1228.95 681.914L489.721 681.919ZM433.999 1161.12C385.706 1120.26 411.71 941.956 433.999 919.667C450.535 903.131 489.538 915.216 508.58 922.554L528.509 1176.84C503.618 1183.13 464.4 1186.84 433.999 1161.12Z" fill="#263238" stroke="#263238" stroke-miterlimit="10"/>
<path d="M859.342 837.941C1063.48 837.941 1228.96 768.087 1228.96 681.919C1228.96 595.75 1063.48 525.896 859.342 525.896C655.206 525.896 489.721 595.75 489.721 681.919C489.721 768.087 655.206 837.941 859.342 837.941Z" fill="white" stroke="#263238" stroke-miterlimit="10"/>
<path d="M859.342 820.738C1040.97 820.738 1188.21 758.586 1188.21 681.919C1188.21 605.251 1040.97 543.1 859.342 543.1C677.711 543.1 530.471 605.251 530.471 681.919C530.471 758.586 677.711 820.738 859.342 820.738Z" fill="white" stroke="#263238" stroke-miterlimit="10"/>
<path d="M628.266 780.665C687.665 805.432 769.257 820.732 859.342 820.732C949.428 820.732 1031.02 805.432 1090.42 780.665C1031.02 755.898 949.428 740.598 859.342 740.598C769.257 740.598 687.66 755.903 628.266 780.665Z" fill="#92E3A9" stroke="#263238" stroke-miterlimit="10"/>
<path d="M2166.56 1092.66C2166.56 1092.66 2342.36 1510.17 2384.69 1532.25C2427.01 1554.31 3667.29 1446.66 3667.29 1446.66L3632.11 1407.49L3630.42 1137.29L3676.79 1135.24L3202.99 511.209L2132.29 589.398C2132.29 589.398 2074.85 629.207 2067.19 663.608C2059.52 698.009 2061.25 750.017 2061.25 750.017L2166.56 1092.66Z" fill="#263238" stroke="#263238" stroke-miterlimit="10"/>
<path d="M3630.42 1137.28L2413.58 1235.27C2413.58 1235.27 2356.35 1268.16 2347.43 1344.08C2338.5 1420.01 2369.22 1497.14 2392.04 1508.23C2414.85 1519.31 2444.59 1520.22 2444.59 1520.22L3632.11 1407.49L3630.42 1137.28Z" fill="#E0E0E0" stroke="#263238" stroke-miterlimit="10"/>
<path d="M2392.33 194.278L1901.54 871.933C1901.54 871.933 1874.8 898.281 1876.07 962.826C1877.35 1027.38 1880.62 1132.72 1899.85 1140.1C1919.08 1147.48 3339.14 1255.27 3339.14 1255.27L3666.99 497.957L3641.39 486.99L3650.31 300.529L3671.6 240.065L2428.37 181.795L2392.33 194.278Z" fill="#92E3A9" stroke="#263238" stroke-miterlimit="10"/>
<path d="M1945.69 891.217C1945.69 891.217 1901.26 877.482 1888.67 920.151C1876.08 962.82 1907.06 1117.53 1907.06 1117.53C1907.06 1117.53 1933.58 1128.56 1945.77 1128.93C1957.96 1129.3 3324.58 1219.54 3324.58 1219.54L3641.39 486.99L3650.31 300.529L3347.22 956.95L1945.69 891.217Z" fill="white" stroke="#263238" stroke-miterlimit="10"/>
<path d="M3315.88 955.482L1945.69 891.223C1945.69 891.223 1901.26 877.487 1888.67 920.156C1876.08 962.826 1907.06 1117.54 1907.06 1117.54C1907.06 1117.54 1933.58 1128.57 1945.77 1128.94C1957.96 1129.31 3324.58 1219.54 3324.58 1219.54L3322.69 961.315L3315.88 955.482Z" fill="#E0E0E0" stroke="#263238" stroke-miterlimit="10"/>
<path d="M2129.74 2279.6C2129.74 2279.6 2179.95 2352.02 2232.44 2350.86C2582.22 2343.08 3185.36 2510.5 3255.4 2510.5C3325.44 2510.5 3377.42 2504.29 3377.42 2489.43C3377.42 2474.58 3131.22 1500.42 3131.22 1500.42L3082.41 1485.56L3250.08 2436.38C3250.08 2436.38 3042.08 2406.66 2621.86 2336.63C2201.63 2266.59 2218.87 2207.45 2167.94 2218.06C2117 2228.66 2129.74 2279.6 2129.74 2279.6Z" fill="#92E3A9" stroke="#263238" stroke-miterlimit="10"/>
<path d="M3305.26 2485.19C3233.1 2480.94 3092.75 2444.39 2746.46 2373.3C2400.17 2302.21 2140.34 2259.12 2140.34 2259.12L2133.05 2284.1C2145.03 2299.88 2187.9 2351.85 2232.44 2350.86C2582.23 2343.09 3185.37 2510.5 3255.4 2510.5C3325.44 2510.5 3377.42 2504.29 3377.42 2489.44C3377.42 2488.21 3341.25 2487.3 3305.26 2485.19Z" fill="#263238" stroke="#263238" stroke-miterlimit="10"/>
<path d="M996.398 1462.49C996.398 1462.49 970.932 1470.98 966.685 1490.08C962.438 1509.18 718.368 2487.58 741.716 2489.71C765.063 2491.83 2051.21 2500.32 2066.07 2485.46C2080.92 2470.61 2129.73 2279.59 2129.73 2279.59L2021.49 2426.03L905.135 2398.44L1038.84 1485.83L996.398 1462.49Z" fill="#92E3A9" stroke="#263238" stroke-miterlimit="10"/>
<path d="M2066.07 2485.47C2080.93 2470.61 2129.74 2279.6 2129.74 2279.6L2122.58 2289.29L2055.46 2462.12L754.698 2478.87L741.721 2489.71C765.063 2491.84 2051.21 2500.32 2066.07 2485.47Z" fill="#263238" stroke="#263238" stroke-miterlimit="10"/>
<path d="M1026.11 1449.76L996.398 1462.49L790.529 2457.88L2055.46 2462.12L2140.35 2243.52L951.831 2300.82L1062.19 1447.63L1026.11 1449.76Z" fill="white" stroke="#263238" stroke-miterlimit="10"/>
<path d="M875.427 2332.66L817.759 2428.58L790.529 2457.87L2055.46 2462.12L2140.35 2243.52L951.831 2300.82L875.427 2332.66Z" fill="#E0E0E0" stroke="#263238" stroke-miterlimit="10"/>
<path d="M2140.35 2243.52V2048.26L1119.5 2160.74L1043.09 2294.46L2140.35 2243.52Z" fill="#B8B8B8" stroke="#263238" stroke-miterlimit="10"/>
<path d="M1072.81 1341.52L1043.09 1345.76L875.428 2332.66C875.428 2332.66 1013.38 2322.05 1200.15 2277.48C1386.92 2232.91 1766.82 2164.99 1894.16 2184.09C2021.5 2203.19 2129.74 2279.6 2129.74 2279.6C2129.74 2279.6 2288.65 2311.15 2466.93 2347.23C2645.21 2383.3 2910.5 2438.49 3086.66 2468.2C3262.81 2497.92 3305.26 2485.18 3305.26 2485.18L3086.66 1468.57L3065.43 1462.2L3182.16 2383.3C3182.16 2383.3 2445.97 2179.84 2348.34 2179.84C2250.71 2179.84 2197.65 2075.85 2002.39 2037.64C1807.14 1999.44 1588.53 2075.84 1403.89 2107.68C1219.24 2139.51 1062.19 2192.57 1062.19 2192.57L1111 1341.51H1072.81V1341.52Z" fill="#E0E0E0" stroke="#263238" stroke-miterlimit="10"/>
<path d="M951.831 2300.82L875.428 2332.66L1043.09 1345.76L1111.01 1341.52L951.831 2300.82Z" fill="white" stroke="#263238" stroke-miterlimit="10"/>
<path d="M2114.88 1209.93C2114.88 1209.93 2133.98 1175.97 2308.01 1220.54C2482.05 1265.11 2664.3 1377.31 2812.87 1398.53C2961.43 1419.76 3059.06 1440.98 3059.06 1440.98L3260.69 2463.96C3260.69 2463.96 2931.72 2419.39 2621.86 2336.62C2312 2253.85 2180.67 2198.95 2140.35 2243.52L2114.88 1209.93Z" fill="white" stroke="#263238" stroke-miterlimit="10"/>
<path d="M2640.62 1489.4C2640.62 1489.4 2651.33 1489.4 3004.9 1567.08" stroke="#263238" stroke-miterlimit="10"/>
<path d="M2644.13 1532.42C2644.13 1532.42 2654.03 1532.9 2776.03 1559.04C2832.17 1571.08 2913.4 1589.52 3012.44 1611.27" stroke="#263238" stroke-miterlimit="10"/>
<path d="M2647.65 1575.45C2647.65 1575.45 2662.18 1576.42 2781.11 1601.9C2840.12 1614.57 2927.54 1635.17 3019.97 1655.47" stroke="#263238" stroke-miterlimit="10"/>
<path d="M2651.16 1618.48C2651.16 1618.48 2670.33 1619.92 2786.19 1644.76C2848.06 1658.05 2941.67 1680.82 3027.5 1699.67" stroke="#263238" stroke-miterlimit="10"/>
<path d="M2654.68 1661.5C2654.68 1661.5 2678.48 1663.42 2791.27 1687.62C2856.01 1701.54 2955.81 1726.46 3035.04 1743.87" stroke="#263238" stroke-miterlimit="10"/>
<path d="M2658.2 1704.53C2658.2 1704.53 2686.62 1706.93 2796.35 1730.48C2863.95 1745.02 2969.94 1772.11 3042.57 1788.06" stroke="#263238" stroke-miterlimit="10"/>
<path d="M2661.71 1747.55C2661.71 1747.55 2694.77 1750.43 2801.43 1773.33C2871.9 1788.5 2984.08 1817.76 3050.11 1832.26" stroke="#263238" stroke-miterlimit="10"/>
<path d="M2665.23 1790.57C2665.23 1790.57 2702.92 1793.93 2806.51 1816.18C2879.84 1831.98 2998.22 1863.4 3057.64 1876.45" stroke="#263238" stroke-miterlimit="10"/>
<path d="M2668.74 1833.6C2668.74 1833.6 2711.07 1837.44 2811.59 1859.04C2887.79 1875.46 3012.35 1909.04 3065.17 1920.65" stroke="#263238" stroke-miterlimit="10"/>
<path d="M2672.26 1876.62C2672.26 1876.62 2719.22 1880.94 2816.67 1901.9C2895.73 1918.95 3026.49 1954.69 3072.71 1964.85" stroke="#263238" stroke-miterlimit="10"/>
<path d="M2675.77 1919.65C2675.77 1919.65 2727.37 1924.45 2821.75 1944.76C2903.67 1962.43 3040.63 2000.35 3080.24 2009.05" stroke="#263238" stroke-miterlimit="10"/>
<path d="M2679.29 1962.68C2679.29 1962.68 2735.52 1967.96 2826.83 1987.62C2911.62 2005.92 3054.77 2045.99 3087.78 2053.25" stroke="#263238" stroke-miterlimit="10"/>
<path d="M2682.8 2005.7C2682.8 2005.7 2743.66 2011.46 2831.9 2030.48C2919.55 2049.4 3068.89 2091.64 3095.31 2097.44" stroke="#263238" stroke-miterlimit="10"/>
<path d="M2686.32 2048.72C2686.32 2048.72 2751.81 2054.97 2836.99 2073.33C2927.51 2092.89 3083.04 2137.29 3102.84 2141.64" stroke="#263238" stroke-miterlimit="10"/>
<path d="M2689.83 2091.75C2689.83 2091.75 2759.96 2098.47 2842.06 2116.19C2935.44 2136.37 3097.16 2182.94 3110.37 2185.83" stroke="#263238" stroke-miterlimit="10"/>
<path d="M2693.35 2134.77C2693.35 2134.77 2768.1 2141.98 2847.14 2159.05C2943.39 2179.85 3111.3 2228.58 3117.91 2230.03" stroke="#263238" stroke-miterlimit="10"/>
<path d="M2696.86 2177.8C2696.86 2177.8 2776.25 2185.48 2852.22 2201.9C2951.33 2223.33 3125.43 2274.23 3125.43 2274.23" stroke="#263238" stroke-miterlimit="10"/>
<path d="M2181.41 1318.43C2181.41 1318.43 2258.16 1320.92 2331.15 1344.47C2398.42 1366.17 2450.5 1411.74 2587.22 1474.67" stroke="#263238" stroke-miterlimit="10"/>
<path d="M2590.6 1518.34C2462.43 1459.34 2410.89 1415.26 2338.6 1391.8C2260.95 1366.61 2184.66 1363.59 2181.68 1364.54" stroke="#263238" stroke-miterlimit="10"/>
<path d="M2593.99 1562.02C2474.37 1506.95 2423.37 1464.36 2346.06 1439.14C2263.75 1412.3 2187.92 1408.76 2181.95 1410.66" stroke="#263238" stroke-miterlimit="10"/>
<path d="M2597.39 1605.69C2486.31 1554.56 2435.85 1513.46 2353.53 1486.48C2266.55 1457.99 2191.18 1453.92 2182.22 1456.77" stroke="#263238" stroke-miterlimit="10"/>
<path d="M2600.77 1649.36C2498.24 1602.16 2448.33 1562.56 2360.98 1533.81C2269.34 1503.67 2194.42 1499.09 2182.49 1502.88" stroke="#263238" stroke-miterlimit="10"/>
<path d="M2604.17 1693.04C2510.17 1649.77 2460.81 1611.66 2368.44 1581.14C2272.15 1549.36 2197.68 1544.25 2182.76 1549" stroke="#263238" stroke-miterlimit="10"/>
<path d="M2607.56 1736.71C2522.11 1697.38 2473.28 1660.76 2375.9 1628.48C2274.95 1595.04 2200.94 1589.41 2183.04 1595.11" stroke="#263238" stroke-miterlimit="10"/>
<path d="M2610.95 1780.38C2534.04 1744.98 2485.76 1709.85 2383.36 1675.81C2277.74 1640.73 2204.19 1634.58 2183.3 1641.22" stroke="#263238" stroke-miterlimit="10"/>
<path d="M2614.34 1824.06C2545.98 1792.59 2498.24 1758.95 2390.82 1723.15C2280.54 1686.42 2207.45 1679.75 2183.57 1687.34" stroke="#263238" stroke-miterlimit="10"/>
<path d="M2617.73 1867.73C2557.92 1840.2 2510.72 1808.05 2398.28 1770.48C2283.34 1732.11 2210.71 1724.91 2183.85 1733.46" stroke="#263238" stroke-miterlimit="10"/>
<path d="M2621.12 1911.4C2569.86 1887.8 2523.2 1857.15 2405.74 1817.81C2286.14 1777.79 2213.96 1770.08 2184.12 1779.56" stroke="#263238" stroke-miterlimit="10"/>
<path d="M2624.51 1955.07C2581.79 1935.41 2535.67 1906.25 2413.2 1865.15C2288.94 1823.48 2217.21 1815.24 2184.39 1825.68" stroke="#263238" stroke-miterlimit="10"/>
<path d="M2627.9 1998.75C2593.72 1983.01 2548.15 1955.35 2420.66 1912.49C2291.73 1869.17 2220.46 1860.4 2184.66 1871.79" stroke="#263238" stroke-miterlimit="10"/>
<path d="M2631.29 2042.42C2605.66 2030.62 2560.63 2004.44 2428.12 1959.82C2294.54 1914.85 2223.72 1905.57 2184.94 1917.91" stroke="#263238" stroke-miterlimit="10"/>
<path d="M2634.68 2086.09C2617.59 2078.23 2573.1 2053.54 2435.57 2007.16C2297.33 1960.54 2226.97 1950.74 2185.2 1964.03" stroke="#263238" stroke-miterlimit="10"/>
<path d="M2638.07 2129.77C2629.53 2125.83 2585.58 2102.64 2443.04 2054.49C2300.13 2006.23 2230.23 1995.9 2185.47 2010.14" stroke="#263238" stroke-miterlimit="10"/>
<path d="M2641.46 2173.44C2641.46 2173.44 2598.06 2151.74 2450.5 2101.83C2302.93 2051.92 2233.49 2041.07 2185.75 2056.26" stroke="#263238" stroke-miterlimit="10"/>
<path d="M2114.88 1209.93L2140.35 2243.52C2140.35 2243.52 2063.94 2086.46 1860.2 2092.83C1656.45 2099.19 1206.51 2256.25 1134.35 2271.11C1062.19 2285.97 951.832 2300.82 951.832 2300.82L1072.81 1313.92C1072.81 1313.92 1607.64 1216.29 1720.13 1182.33C1832.61 1148.37 1930.24 1112.29 2002.4 1129.27C2074.56 1146.26 2114.88 1158.99 2114.88 1209.93Z" fill="white" stroke="#263238" stroke-miterlimit="10"/>
<path d="M1189.24 1432.94L1585.67 1344.54" stroke="#263238" stroke-miterlimit="10"/>
<path d="M1184.88 1477.13C1184.88 1477.13 1436.57 1420.39 1442.43 1418.54C1447.82 1416.85 1584.66 1386.4 1584.66 1386.4" stroke="#263238" stroke-miterlimit="10"/>
<path d="M1180.53 1521.33C1180.53 1521.33 1428.48 1464.8 1440.2 1461.12C1450.98 1457.73 1583.66 1428.25 1583.66 1428.25" stroke="#263238" stroke-miterlimit="10"/>
<path d="M1176.18 1565.53C1176.18 1565.53 1420.39 1509.21 1437.96 1503.68C1454.13 1498.6 1582.65 1470.11 1582.65 1470.11" stroke="#263238" stroke-miterlimit="10"/>
<path d="M1171.82 1609.72C1171.82 1609.72 1412.29 1553.62 1435.73 1546.25C1457.28 1539.48 1581.65 1511.96 1581.65 1511.96" stroke="#263238" stroke-miterlimit="10"/>
<path d="M1167.47 1653.92C1167.47 1653.92 1404.2 1598.02 1433.49 1588.81C1460.43 1580.35 1580.64 1553.8 1580.64 1553.8" stroke="#263238" stroke-miterlimit="10"/>
<path d="M1163.12 1698.12C1163.12 1698.12 1396.09 1642.43 1431.25 1631.38C1463.58 1621.22 1579.64 1595.66 1579.64 1595.66" stroke="#263238" stroke-miterlimit="10"/>
<path d="M1158.77 1742.31C1158.77 1742.31 1388 1686.84 1429.01 1673.95C1466.72 1662.09 1578.63 1637.51 1578.63 1637.51" stroke="#263238" stroke-miterlimit="10"/>
<path d="M1154.42 1786.51C1154.42 1786.51 1379.91 1731.24 1426.78 1716.51C1469.88 1702.97 1577.63 1679.37 1577.63 1679.37" stroke="#263238" stroke-miterlimit="10"/>
<path d="M1150.06 1830.71C1150.06 1830.71 1371.81 1775.66 1424.54 1759.08C1473.03 1743.84 1576.63 1721.22 1576.63 1721.22" stroke="#263238" stroke-miterlimit="10"/>
<path d="M1145.71 1874.9C1145.71 1874.9 1363.71 1820.06 1422.3 1801.65C1476.18 1784.71 1575.62 1763.08 1575.62 1763.08" stroke="#263238" stroke-miterlimit="10"/>
<path d="M1141.36 1919.1C1141.36 1919.1 1355.61 1864.47 1420.07 1844.21C1479.33 1825.58 1574.61 1804.92 1574.61 1804.92" stroke="#263238" stroke-miterlimit="10"/>
<path d="M1137 1963.3C1137 1963.3 1347.52 1908.88 1417.83 1886.78C1482.48 1866.46 1573.62 1846.78 1573.62 1846.78" stroke="#263238" stroke-miterlimit="10"/>
<path d="M1132.65 2007.5C1132.65 2007.5 1339.41 1953.29 1415.59 1929.35C1485.63 1907.34 1572.6 1888.63 1572.6 1888.63" stroke="#263238" stroke-miterlimit="10"/>
<path d="M1128.3 2051.69C1128.3 2051.69 1331.32 1997.7 1413.36 1971.92C1488.78 1948.21 1571.6 1930.49 1571.6 1930.49" stroke="#263238" stroke-miterlimit="10"/>
<path d="M1123.95 2095.89C1123.95 2095.89 1323.22 2042.11 1411.12 2014.48C1491.93 1989.08 1570.6 1972.34 1570.6 1972.34" stroke="#263238" stroke-miterlimit="10"/>
<path d="M1119.6 2140.08C1119.6 2140.08 1315.13 2086.51 1408.88 2057.05C1495.09 2029.96 1569.6 2014.19 1569.6 2014.19" stroke="#263238" stroke-miterlimit="10"/>
<path d="M1641.92 1328.47C1641.92 1328.47 2011.56 1210.62 2065.13 1269.54" stroke="#263238" stroke-miterlimit="10"/>
<path d="M1640.75 1371.33C1640.75 1371.33 1766.19 1330.91 1879.08 1309.66C1965.19 1293.64 2044.07 1290.22 2065.3 1313.57" stroke="#263238" stroke-miterlimit="10"/>
<path d="M1639.57 1414.19C1639.57 1414.19 1767.29 1372.61 1878.63 1351.98C1967.03 1335.96 2045.66 1335.8 2065.47 1357.6" stroke="#263238" stroke-miterlimit="10"/>
<path d="M1638.4 1457.05C1638.4 1457.05 1768.34 1414.02 1878.17 1394.31C1968.83 1378.04 2047.24 1381.39 2065.63 1401.63" stroke="#263238" stroke-miterlimit="10"/>
<path d="M1637.23 1499.9C1637.23 1499.9 1769.43 1455.67 1877.72 1436.64C1970.67 1420.3 2048.82 1426.98 2065.81 1445.67" stroke="#263238" stroke-miterlimit="10"/>
<path d="M1636.06 1542.76C1636.06 1542.76 1770.52 1497.33 1877.27 1478.96C1972.5 1462.57 2050.4 1472.56 2065.97 1489.69" stroke="#263238" stroke-miterlimit="10"/>
<path d="M1634.88 1585.62C1634.88 1585.62 1771.62 1539.01 1876.81 1521.29C1974.33 1504.86 2051.98 1518.15 2066.14 1533.72" stroke="#263238" stroke-miterlimit="10"/>
<path d="M1633.71 1628.47C1633.71 1628.47 1772.72 1580.7 1876.36 1563.61C1976.17 1547.15 2053.57 1563.73 2066.3 1577.74" stroke="#263238" stroke-miterlimit="10"/>
<path d="M1632.54 1671.33C1632.54 1671.33 1773.83 1622.41 1875.9 1605.93C1978.01 1589.46 2055.14 1609.32 2066.47 1621.77" stroke="#263238" stroke-miterlimit="10"/>
<path d="M1631.37 1714.19C1631.37 1714.19 1774.93 1664.13 1875.45 1648.26C1979.85 1631.78 2056.73 1654.91 2066.64 1665.8" stroke="#263238" stroke-miterlimit="10"/>
<path d="M1630.2 1757.04C1630.2 1757.04 1776.04 1705.86 1874.99 1690.59C1981.7 1674.12 2058.31 1700.49 2066.8 1709.84" stroke="#263238" stroke-miterlimit="10"/>
<path d="M1629.03 1799.9C1629.03 1799.9 1777.14 1747.61 1874.54 1732.92C1983.55 1716.47 2059.9 1746.08 2066.97 1753.87" stroke="#263238" stroke-miterlimit="10"/>
<path d="M1627.85 1842.76C1627.85 1842.76 1778.26 1789.36 1874.09 1775.24C1985.4 1758.83 2061.48 1791.66 2067.14 1797.9" stroke="#263238" stroke-miterlimit="10"/>
<path d="M1626.68 1885.62C1626.68 1885.62 1779.37 1831.13 1873.63 1817.57C1987.24 1801.22 2063.06 1837.25 2067.31 1841.92" stroke="#263238" stroke-miterlimit="10"/>
<path d="M1625.51 1928.47C1625.51 1928.47 1780.51 1873.07 1873.18 1859.89C1989.13 1843.83 2064.65 1882.84 2067.48 1885.95" stroke="#263238" stroke-miterlimit="10"/>
<path d="M1624.34 1971.33C1624.34 1971.33 1781.61 1914.78 1872.73 1902.22C1990.97 1886.15 2066.23 1928.42 2067.65 1929.98" stroke="#263238" stroke-miterlimit="10"/>
<path d="M1623.17 2014.19C1623.17 2014.19 1782.71 1956.49 1872.27 1944.55C1992.81 1928.47 2067.81 1974.01 2067.81 1974.01" stroke="#263238" stroke-miterlimit="10"/>
<path d="M2510.49 2331.36C2536.78 2336.86 2553.2 2340.96 2553.2 2340.96" stroke="#263238" stroke-miterlimit="10"/>
<path d="M2102.31 2243.39C2120.23 2264.19 2129.74 2279.6 2129.74 2279.6C2129.74 2279.6 2225.6 2240.91 2341.51 2244.32C2408.09 2246.28 2440.82 2317.5 2491.17 2327.43" stroke="#263238" stroke-miterlimit="10"/>
<path d="M2044.97 2189.19C2061.73 2201.9 2076.21 2215.35 2088.22 2227.88" stroke="#263238" stroke-miterlimit="10"/>
<path d="M1724.46 2142.05C1761.96 2131.82 1874.46 2111.37 1973.32 2148.86C2000.42 2159.14 2024.41 2173.6 2044.97 2189.19" stroke="#263238" stroke-miterlimit="10"/>
<path d="M1986.21 2179.9C1953.63 2168.02 1904.96 2155.75 1840.57 2154.22C1711.81 2151.16 1411.35 2218.61 1411.35 2218.61" stroke="#263238" stroke-miterlimit="10"/>
<path d="M2035.26 2203.27C2035.26 2203.27 2026.81 2197.38 2010.05 2189.67" stroke="#263238" stroke-miterlimit="10"/>
<path d="M2016.38 2290.33L1204.02 2329.39" stroke="#263238" stroke-miterlimit="10"/>
<path d="M2092.81 2286.66L2048.45 2288.79" stroke="#263238" stroke-miterlimit="10"/>
<path d="M1410.2 2367.62L1457.55 2366.42" stroke="#263238" stroke-miterlimit="10"/>
<path d="M1007.46 2377.82L1383 2368.31" stroke="#263238" stroke-miterlimit="10"/>
<path d="M1939.99 2390.59L1981.71 2389.21" stroke="#263238" stroke-miterlimit="10"/>
<path d="M1377.79 2409.15L1906.52 2391.7" stroke="#263238" stroke-miterlimit="10"/>
<path d="M1756.35 2351.23L1645.56 2355.03" stroke="#263238" stroke-miterlimit="10"/>
<path d="M2061.47 2340.79L1786.69 2350.19" stroke="#263238" stroke-miterlimit="10"/>
<path d="M1242.59 2413.04L1280.93 2412" stroke="#263238" stroke-miterlimit="10"/>
<path d="M862.176 2423.39L1218.67 2413.7" stroke="#263238" stroke-miterlimit="10"/>
<path d="M1500.55 1238.06C1500.55 1238.06 1579.58 1134.14 1629.37 1090.84C1679.17 1047.53 1764.69 979.335 1799.33 979.335C1833.97 979.335 1842.63 1000.98 1844.8 1008.56C1846.96 1016.14 1876.19 1125.48 1876.19 1130.89C1876.19 1136.3 1845.88 1144.96 1843.72 1138.47C1841.55 1131.98 1828.56 1038.88 1823.15 1021.56C1817.73 1004.24 1818.81 994.495 1777.68 1011.82C1736.55 1029.14 1615.3 1159.04 1590.4 1189.35C1565.51 1219.66 1541.69 1251.06 1541.69 1251.06C1541.69 1251.06 1512.46 1238.06 1500.55 1238.06Z" fill="#263238" stroke="#263238" stroke-miterlimit="10"/>
<path d="M2838.22 1343.99C2835.67 1340.32 2832.31 1336.09 2829.9 1335.48C2826.11 1334.54 2800.71 1377.63 2794.48 1388.31C2801.68 1380.44 2806.09 1375.91 2806.09 1376.62C2806.09 1379.87 2793.1 1443.74 2781.19 1474.05C2769.28 1504.36 2772.53 1518.43 2784.44 1517.35C2796.35 1516.27 2812.59 1462.14 2822.33 1431.83C2829.52 1409.47 2836.68 1370.66 2838.22 1343.99Z" fill="white" stroke="#263238" stroke-miterlimit="10"/>
<path d="M2837.48 1321.42C2833.15 1301.93 2805.01 1326.83 2793.1 1344.15C2781.19 1361.47 2727.07 1419.93 2696.76 1449.15C2666.45 1478.38 2552.78 1575.81 2540.87 1584.47C2528.97 1593.13 2514.89 1608.29 2506.23 1609.37C2497.57 1610.45 2474.84 1609.37 2464.01 1602.88C2453.19 1596.38 2447.78 1584.47 2395.81 1556.33C2343.85 1528.18 2118.69 1463.23 2102.45 1462.14C2086.21 1461.06 2073.22 1477.3 2050.49 1487.04C2027.75 1496.78 1989.87 1498.95 1973.63 1484.87C1957.38 1470.8 1937.9 1435.07 1927.08 1409.1C1916.25 1383.12 1898.93 1376.62 1883.77 1367.96C1868.62 1359.3 1686.75 1279.19 1653.19 1268.36C1619.63 1257.54 1586.07 1249.96 1570.92 1248.88C1555.76 1247.8 1541.69 1251.04 1541.69 1251.04C1541.69 1251.04 1539.52 1254.29 1530.86 1247.8C1522.2 1241.3 1494.05 1229.39 1485.39 1246.72C1476.73 1264.04 1463.74 1304.09 1471.32 1319.25C1478.89 1334.4 1478.89 1334.4 1478.89 1334.4C1478.89 1334.4 1471.32 1431.83 1474.57 1465.39C1477.81 1498.95 1503.8 1542.25 1525.44 1568.23C1547.09 1594.22 1633.7 1642.93 1697.57 1658.08C1761.44 1673.24 1800.41 1664.58 1817.73 1652.67C1835.05 1640.76 1888.09 1581.22 1901.08 1567.15C1914.07 1553.07 1912.99 1544.41 1955.21 1557.41C1997.43 1570.39 2012.58 1600.71 2020.16 1623.44C2027.74 1646.17 2055.88 1737.1 2078.62 1766.33C2101.35 1795.56 2133.83 1830.2 2189.04 1854.02C2244.25 1877.84 2281.05 1896.24 2333.01 1889.74C2384.97 1883.25 2413.12 1859.43 2429.36 1831.29C2445.6 1803.14 2456.42 1746.85 2461.84 1729.53C2467.25 1712.21 2484.57 1701.39 2484.57 1701.39C2484.57 1701.39 2506.22 1691.64 2512.71 1676.49C2519.21 1661.33 2570.09 1614.78 2570.09 1614.78C2570.09 1614.78 2652.36 1549.83 2683.75 1514.11C2715.15 1478.38 2806.08 1373.38 2806.08 1376.63C2806.08 1379.87 2793.09 1443.75 2781.18 1474.06C2769.27 1504.37 2772.52 1518.44 2784.43 1517.36C2796.34 1516.28 2812.58 1462.15 2822.32 1431.84C2832.07 1401.52 2841.82 1340.9 2837.48 1321.42ZM1917.33 1500.03C1917.33 1500.03 1915.16 1508.69 1908.67 1518.43C1902.17 1528.18 1858.87 1597.46 1831.81 1619.11C1804.74 1640.76 1773.35 1659.17 1740.87 1655.92C1708.4 1652.67 1625.04 1621.27 1563.33 1572.56C1501.63 1523.85 1492.97 1459.98 1499.46 1398.27C1505.96 1336.56 1527.61 1294.35 1560.08 1287.85C1592.56 1281.36 1699.73 1308.42 1773.34 1347.39C1846.96 1386.36 1909.74 1433.99 1914.07 1450.23C1918.41 1466.48 1917.33 1500.03 1917.33 1500.03ZM2435.87 1721.95C2429.37 1778.25 2416.38 1810.72 2396.89 1836.7C2377.41 1862.69 2354.68 1874.6 2294.05 1869.18C2233.43 1863.77 2187.96 1841.03 2145.74 1810.72C2103.53 1780.41 2089.45 1740.36 2073.22 1702.47C2056.98 1664.58 2028.83 1588.8 2045.07 1541.17C2061.31 1493.54 2108.93 1505.45 2108.93 1505.45C2108.93 1505.45 2148.99 1514.11 2152.24 1515.19C2155.49 1516.27 2394.73 1586.64 2405.55 1602.87C2416.38 1619.11 2442.36 1665.66 2435.87 1721.95Z" fill="#263238" stroke="#263238" stroke-miterlimit="10"/>
<path d="M1902.17 1402.6C1902.17 1402.6 1911.92 1409.1 1921.66 1436.16C1931.4 1463.22 1945.48 1507.61 1984.45 1516.27C2023.42 1524.93 2062.39 1491.37 2062.39 1491.37" stroke="white" stroke-miterlimit="10"/>
<path d="M2108.94 1487.04C2108.94 1487.04 2283.23 1530.35 2360.08 1564.99C2436.95 1599.63 2444.53 1629.94 2447.77 1632.11C2451.02 1634.27 2483.5 1648.34 2499.73 1636.43" stroke="white" stroke-miterlimit="10"/>
<path d="M1490.81 1257.55C1490.81 1257.55 1510.3 1274.87 1525.46 1270.54C1540.61 1266.21 1562.26 1261.88 1584.99 1268.37C1607.73 1274.86 1691.08 1293.27 1782.01 1334.4C1872.95 1375.54 1893.52 1392.86 1893.52 1392.86" stroke="white" stroke-miterlimit="10"/>
<path d="M1490.81 1446.99C1490.81 1446.99 1486.49 1518.44 1535.2 1560.65" stroke="white" stroke-miterlimit="10"/>
</svg>
