<svg width="4032" height="3532" viewBox="0 0 4032 3532" fill="none" xmlns="http://www.w3.org/2000/svg">
<path d="M3940.19 1454.77C3988.5 2157.91 3622.26 2831.05 2987.47 3174.06C2874.9 3234.89 2750.32 3287.46 2612.74 3327.7C1596.67 3624.86 1217.66 3374.62 951.552 3061.83C685.44 2749.03 935.424 2217.28 628.992 1998.31C322.56 1779.35 -48.384 1466.56 104.832 1005.18C258.048 543.801 637.056 238.82 991.872 270.106C1346.69 301.386 1717.63 708.025 1967.62 442.143C2217.6 176.261 3015.94 -81.7939 3540.1 363.945C3820.22 602.15 3913.78 1070.39 3940.19 1454.77Z" fill="#92E3A9"/>
<path opacity="0.7" d="M3940.19 1454.77C3988.5 2157.91 3622.26 2831.05 2987.47 3174.06C2874.9 3234.89 2750.32 3287.46 2612.74 3327.7C1596.67 3624.86 1217.66 3374.62 951.552 3061.83C685.44 2749.03 935.424 2217.28 628.992 1998.31C322.56 1779.35 -48.384 1466.56 104.832 1005.18C258.048 543.801 637.056 238.82 991.872 270.106C1346.69 301.386 1717.63 708.025 1967.62 442.143C2217.6 176.261 3015.94 -81.7939 3540.1 363.945C3820.22 602.15 3913.78 1070.39 3940.19 1454.77Z" fill="white"/>
<path d="M1815.34 417.786L1444.07 174.191" stroke="#263238" stroke-miterlimit="10"/>
<path d="M2820.99 1077.58L1851.84 441.733" stroke="#263238" stroke-miterlimit="10"/>
<path d="M2924.72 1145.63L2878.17 1115.09" stroke="#263238" stroke-miterlimit="10"/>
<path d="M2370.96 1015.72L1535.47 745.309" stroke="#263238" stroke-miterlimit="10"/>
<path d="M2772.38 1145.63L2424.83 1033.15" stroke="#263238" stroke-miterlimit="10"/>
<path d="M1454.72 1167.84L1358.76 1166.98" stroke="#263238" stroke-miterlimit="10"/>
<path d="M2370.65 1176.03L1530.72 1168.52" stroke="#263238" stroke-miterlimit="10"/>
<path d="M2553.03 1177.65L2431.45 1176.57" stroke="#263238" stroke-miterlimit="10"/>
<path d="M2868.03 810.269L2723.64 361.006" stroke="#263238" stroke-miterlimit="10"/>
<path d="M2900.34 910.775L2881.76 852.971" stroke="#263238" stroke-miterlimit="10"/>
<path d="M3139.38 1090.87L3314.67 953.478" stroke="#263238" stroke-miterlimit="10"/>
<path d="M3083.13 1134.96L3117.49 1108.02" stroke="#263238" stroke-miterlimit="10"/>
<path d="M3585.18 712.221L3924 419.722" stroke="#263238" stroke-miterlimit="10"/>
<path d="M3503.57 782.677L3560.26 733.738" stroke="#263238" stroke-miterlimit="10"/>
<path d="M3232.52 160.869L3247.66 72.7734" stroke="#263238" stroke-miterlimit="10"/>
<path d="M3155.28 610.648L3227.33 191.152" stroke="#263238" stroke-miterlimit="10"/>
<path d="M3144.06 675.926L3150.41 638.967" stroke="#263238" stroke-miterlimit="10"/>
<path d="M3726.97 995.975L3814.32 969.492" stroke="#263238" stroke-miterlimit="10"/>
<path d="M3350 1110.28L3671.37 1012.84" stroke="#263238" stroke-miterlimit="10"/>
<path d="M3180.63 1161.65L3315.93 1120.61" stroke="#263238" stroke-miterlimit="10"/>
<path d="M2401.78 496.642L2607.87 707.947" stroke="#263238" stroke-miterlimit="10"/>
<path d="M2071.67 158.177L2377.41 471.663" stroke="#263238" stroke-miterlimit="10"/>
<path d="M2997.11 771.48C2992.38 771.48 2988.56 774.836 2988.56 778.975V1211.72H3005.66V778.975C3005.65 774.829 3001.83 771.48 2997.11 771.48Z" fill="#263238" stroke="#263238" stroke-miterlimit="10"/>
<path d="M3005.65 778.968C3005.65 778.968 3024.01 806.405 3082.94 800.45C3141.87 794.495 3175.87 766.698 3241.61 788.533C3307.34 810.375 3300.54 834.202 3339.07 842.142C3377.6 850.082 3404.8 852.067 3404.8 852.067C3404.8 852.067 3350.4 869.938 3311.87 889.788C3273.34 909.645 3218.94 879.863 3189.47 891.773C3160.01 903.69 3130.54 935.457 3089.74 943.397C3048.94 951.337 3006.44 931.48 3006.44 931.48L3005.65 778.968Z" fill="#92E3A9" stroke="#263238" stroke-miterlimit="10"/>
<path d="M1047.13 546.372C1047.13 546.372 1012.31 454.851 882.951 441.775C753.597 428.7 773.499 494.077 733.695 515.863C693.891 537.655 654.087 502.787 609.316 511.504C564.536 520.221 554.585 555.089 529.708 568.165C504.831 581.24 465.027 555.089 425.231 559.448C385.427 563.806 375.476 589.957 360.55 598.674C345.623 607.391 295.868 611.749 295.868 611.749H1275.99C1275.99 611.749 1251.11 537.655 1176.48 520.228C1101.86 502.787 1081.96 542.014 1047.13 546.372Z" stroke="#263238" stroke-miterlimit="10"/>
<path d="M1160.37 710.737C1160.37 710.737 1141.38 660.83 1070.84 653.702C1000.31 646.575 1011.16 682.22 989.453 694.101C967.744 705.983 946.044 686.974 921.626 691.728C897.209 696.482 891.782 715.491 878.218 722.626C864.654 729.753 842.946 715.498 821.246 717.872C799.546 720.245 794.118 734.507 785.974 739.261C777.837 744.015 750.71 746.389 750.71 746.389H1285.16C1285.16 746.389 1271.6 705.99 1230.9 696.482C1190.21 686.974 1179.36 708.363 1160.37 710.737Z" stroke="#263238" stroke-miterlimit="10"/>
<path d="M2836.99 174.099C2836.99 174.099 2818 124.192 2747.46 117.064C2676.93 109.937 2687.78 145.582 2666.07 157.463C2644.37 169.345 2622.66 150.336 2598.24 155.09C2573.83 159.844 2568.4 178.853 2554.84 185.988C2541.27 193.115 2519.56 178.86 2497.86 181.234C2476.16 183.607 2470.74 197.87 2462.59 202.624C2454.46 207.378 2427.32 209.751 2427.32 209.751H2961.77C2961.77 209.751 2948.21 169.352 2907.51 159.844C2866.83 150.329 2855.98 171.719 2836.99 174.099Z" stroke="#263238" stroke-miterlimit="10"/>
<path d="M3810.72 1117.45C3810.72 1117.45 3791.72 1067.55 3721.19 1060.42C3650.65 1053.29 3661.51 1088.94 3639.8 1100.82C3618.1 1112.7 3596.39 1093.69 3571.97 1098.44C3547.55 1103.2 3542.13 1122.21 3528.56 1129.34C3515 1136.47 3493.29 1122.22 3471.59 1124.59C3449.89 1126.96 3444.46 1141.22 3436.32 1145.98C3428.18 1150.73 3401.05 1153.11 3401.05 1153.11H3935.5C3935.5 1153.11 3921.93 1112.71 3881.24 1103.2C3840.55 1093.69 3829.71 1115.08 3810.72 1117.45Z" stroke="#263238" stroke-miterlimit="10"/>
<path d="M2867.31 2576.41L2714.52 2556.07L2589.84 2542.15L2451.72 2529.3L2335.6 2520.74L2147.36 2508.96L1994.57 2504.84C1807.82 2535.79 1464.79 2632.77 1187.22 2726.47C1045.74 2774.23 920.594 2822.76 845.494 2852.92C866.025 2928.44 898.515 2999.5 951.552 3061.84C1217.66 3374.64 1596.67 3624.88 2612.74 3327.72C2661.77 3313.38 2709.08 3297.41 2754.86 3280.12L2793.97 3199.6L2877.08 3057.19L3081.21 2747.75L3168 2627.82L3044.54 2603.2L2867.31 2576.41Z" fill="#92E3A9"/>
<path d="M3665.35 2182.97L3541.72 2113.57L3413.28 2052.59L3286.05 2001.07L3140.81 1949.54L2993.18 1906.43L2828.74 1868.58L2711.11 1847.55L2587.48 1844.4L2364.23 1849.65L2062.37 1865.99C2062.37 1865.99 2192.4 1921.16 2338.68 1999.47C2484.96 2077.78 2596.7 2213.04 2665.78 2298.47C2734.86 2383.9 2812.06 2565.43 2812.06 2565.43L2903.16 2579.36L3082 2608.81L3214.04 2636.14L3372.48 2667.68L3544.38 2711.21C3651.12 2578.6 3738.33 2432.16 3803.76 2276.38L3665.35 2182.97Z" fill="#92E3A9"/>
<path d="M1290.67 1955.82L1310.3 1911.38L1344.67 1851.17L1403.58 1772.33L1473.95 1696.36L1567.22 1621.82L1662.14 1553.01L1599.95 1534.38L1377.4 1488.5L1323.4 1499.98L1239.94 1518.61L1087.76 1563.05L968.301 1608.92L825.931 1679.16L641.015 1783.8C624.42 1792.74 526.216 1860.11 483.792 1889.32C532.28 1928.05 581.414 1964.31 628.992 1998.31C660.288 2020.67 685.698 2046.34 706.527 2074.66L752.298 2063.33L881.572 2030.36L1074.66 1993.09L1290.67 1955.82Z" fill="#92E3A9"/>
<path d="M2953.51 1213.75L2824.64 1303.68L2715.43 1393.61L2604.03 1502.68L2510.11 1598.34L2453.33 1672.97L2403.09 1738.02L2383.43 1766.72L2564.72 1841.34L2587.48 1844.4L2641.17 1841.34L2730.72 1640.44L2802.8 1517.98L2894.54 1382.13L2979.72 1274.98L3036.52 1213.75H2953.51Z" fill="#92E3A9"/>
<path d="M1383.48 1490.44C1383.48 1490.44 916.199 1524.87 335.39 2003.05" stroke="#263238" stroke-miterlimit="10"/>
<path d="M1662.97 1551.65C1662.97 1551.65 1370.37 1727.62 1291.77 1953.32" stroke="#263238" stroke-miterlimit="10"/>
<path d="M2703.71 3383.37C2805 3131.54 3068.69 2762.45 3169.41 2625.9" stroke="#263238" stroke-miterlimit="10"/>
<path d="M415.07 3047.55C415.07 3047.55 1165.59 2665.88 1994.57 2504.82" stroke="#263238" stroke-miterlimit="10"/>
<path d="M2048.79 1867.08C2048.79 1867.08 2619.38 2025.45 2811.46 2569.82" stroke="#263238" stroke-miterlimit="10"/>
<path d="M2709.77 1847.29C2709.77 1847.29 3528.94 1961.11 3958.29 2416.41" stroke="#263238" stroke-miterlimit="10"/>
<path d="M2380.51 1768.74C2380.51 1768.74 2568.27 1466.74 2957.06 1214.62" stroke="#263238" stroke-miterlimit="10"/>
<path d="M3037.31 1211.12C3037.31 1211.12 2733.95 1543.17 2643.06 1843.94" stroke="#263238" stroke-miterlimit="10"/>
<path d="M3659.02 2432.78C3651.56 2429.3 3641.89 2430.4 3632.51 2435.79C3616.52 2444.41 3595.42 2468.35 3590.38 2476.34C3583.74 2481.17 3577.35 2486.24 3571.26 2491.53C3576.6 2482.06 3590.93 2456.24 3578.87 2440.34C3562.05 2420.25 3540.87 2449.18 3550.2 2467.43C3557.22 2482.68 3560.6 2494.84 3560.31 2501.56C3552.47 2509.12 3545.16 2517.04 3538.41 2525.31C3541.74 2515.48 3551.06 2487.69 3535.92 2473.7C3515.48 2456.39 3500.42 2487.79 3513.12 2504.39C3523.05 2518.44 3528.74 2529.95 3529.7 2536.58C3523.42 2545.18 3517.73 2554.09 3512.62 2563.25C3514 2553.29 3518.06 2524.24 3500.28 2512.6C3476.84 2498.52 3468.04 2531.6 3483.71 2546.11C3496.21 2558.54 3504.03 2569.08 3506.21 2575.49C3501.65 2584.87 3497.7 2594.47 3494.4 2604.26C3493.86 2594.09 3492.31 2564.91 3472.62 2556.09C3446.83 2545.63 3444.42 2579.61 3462.63 2591.68C3477.29 2602.1 3486.99 2611.38 3490.38 2617.42C3487.66 2627.33 3485.56 2637.39 3484.17 2647.57C3481.62 2637.21 3474.45 2608.95 3453.59 2603.24C3426.14 2596.7 3430.23 2630.85 3450.52 2640.16C3466.83 2648.27 3478.12 2656 3482.71 2661.52C3481.82 2673.46 3481.83 2685.5 3482.86 2697.57C3482.95 2698.67 3483.99 2699.49 3485.22 2699.49C3485.28 2699.49 3485.34 2699.49 3485.4 2699.49C3486.7 2699.4 3487.68 2698.41 3487.58 2697.26C3486.58 2685.36 3486.56 2673.49 3487.44 2661.72C3492.82 2656.86 3505.5 2651.22 3523.42 2648.53C3544.62 2644.65 3561.22 2628.08 3534.56 2621.75C3512.81 2615.83 3495.15 2637.14 3489.03 2646.89C3490.41 2637.16 3492.45 2627.54 3495.07 2618.05C3501.37 2614.18 3514.86 2610.68 3532.86 2610.74C3554.48 2610.15 3573.96 2596.43 3548.89 2586.26C3528.77 2577.34 3507.57 2595.09 3499.52 2603.75C3502.69 2594.57 3506.43 2585.55 3510.73 2576.74C3517.69 2573.9 3531.62 2572.49 3549.3 2575.21C3570.7 2577.84 3592.49 2567.21 3569.71 2553.5C3551.6 2541.8 3527.38 2556.08 3517.79 2563.4C3522.63 2554.86 3527.99 2546.56 3533.87 2538.54C3541.25 2536.75 3555.26 2537.4 3572.21 2542.68C3592.8 2548.42 3616.35 2541.08 3596.54 2524.21C3580.79 2509.94 3553.9 2520.75 3543.19 2526.54C3549.6 2518.78 3556.53 2511.35 3563.91 2504.24C3571.51 2503.5 3585.3 2506.14 3601.12 2513.87C3620.34 2522.53 3645.13 2518.66 3628.87 2499.1C3616 2482.6 3586.98 2489.61 3575.38 2493.78C3581.54 2488.49 3587.96 2483.41 3594.66 2478.59C3603.56 2475.71 3630.11 2468.1 3640.91 2465.67C3647.35 2463.73 3668.31 2456.5 3667.97 2444.65C3667.9 2439.96 3664.4 2435.29 3659.02 2432.78Z" fill="#263238"/>
<path d="M3729.29 2589.71C3725.89 2585.56 3719.5 2583.65 3711.82 2584.48C3698.91 2585.54 3677.5 2594.74 3671.59 2598.35C3665.79 2599.57 3660.06 2601 3654.44 2602.65C3661.06 2598.2 3678.93 2586.04 3676.99 2572.96C3673.56 2556.02 3650.37 2568.28 3649.79 2582.09C3648.83 2593.41 3646.69 2601.85 3644.17 2605.94C3636.69 2608.52 3629.39 2611.48 3622.32 2614.8C3627.81 2609.6 3643.27 2594.88 3638.76 2582.15C3632.13 2565.96 3611.86 2581.39 3613.94 2595.07C3615.2 2606.43 3614.71 2615.09 3612.99 2619.46C3606.11 2623.1 3599.48 2627.11 3593.12 2631.42C3597.45 2625.61 3610.08 2608.7 3603.12 2596.73C3593.5 2581.74 3576.53 2599.88 3581.18 2613.07C3584.6 2624.11 3585.77 2632.74 3584.89 2637.29C3578.79 2641.87 3573.01 2646.77 3567.55 2651.95C3570.76 2645.51 3579.96 2627.02 3570.84 2616.29C3558.5 2602.91 3545.17 2623.32 3552.25 2635.67C3557.7 2646.05 3560.48 2654.38 3560.48 2659.03C3555.34 2664.44 3550.54 2670.12 3546.13 2676.05C3548.15 2668.96 3553.55 2649.52 3542.62 2640.42C3527.89 2629.03 3518.53 2651.28 3527.85 2662.48C3535.13 2671.86 3539.43 2679.67 3540.36 2684.32C3535.65 2691.48 3531.47 2698.94 3527.89 2706.7C3527.57 2707.4 3527.93 2708.19 3528.68 2708.52C3528.73 2708.53 3528.76 2708.55 3528.8 2708.56C3529.64 2708.86 3530.59 2708.51 3530.93 2707.77C3534.45 2700.13 3538.57 2692.77 3543.22 2685.71C3548.26 2684.13 3558.07 2684.04 3570.11 2687.16C3584.6 2690.42 3600.66 2684.59 3586.34 2673.54C3574.93 2664.06 3556.57 2672.54 3549.38 2676.94C3553.62 2671.29 3558.24 2665.87 3563.17 2660.69C3568.42 2659.98 3578 2661.42 3589.13 2666.26C3602.74 2671.67 3619.58 2668.38 3607.59 2655.38C3598.24 2644.48 3578.92 2649.8 3570.9 2653.03C3576.07 2648.19 3581.52 2643.6 3587.26 2639.29C3592.56 2639.39 3601.68 2642.24 3611.7 2648.65C3624.04 2656 3641.24 2655.24 3631.9 2640.66C3624.75 2628.56 3604.77 2630.94 3596.29 2632.91C3602.25 2628.92 3608.47 2625.21 3614.91 2621.8C3620.11 2622.66 3628.57 2626.82 3637.23 2634.62C3647.98 2643.68 3665.14 2645.43 3658.73 2629.68C3653.94 2616.63 3633.52 2616.13 3624.86 2616.86C3631.53 2613.76 3638.42 2611.01 3645.47 2608.58C3650.44 2610.15 3658.06 2615.48 3665.17 2624.5C3674.05 2635.01 3690.77 2639.24 3687.51 2622.76C3685.28 2609.1 3664.85 2605.68 3656.22 2605.17C3661.87 2603.54 3667.62 2602.1 3673.46 2600.91C3679.97 2601.5 3699.08 2603.88 3706.62 2605.27C3711.28 2605.79 3726.79 2606.91 3730.7 2599.47C3732.29 2596.54 3731.75 2592.71 3729.29 2589.71Z" fill="#263238"/>
<path d="M1490.82 2306.6C1485.16 2304.84 1478.49 2306.52 1472.56 2311.17C1462.37 2318.69 1450.45 2337.47 1447.87 2343.55C1443.79 2347.56 1439.92 2351.7 1436.28 2355.98C1438.88 2348.83 1445.83 2329.38 1435.44 2319.34C1421.2 2306.79 1409.83 2329.06 1418.59 2341.02C1425.35 2351.07 1429.2 2359.29 1429.81 2364.04C1425.22 2370.07 1421.05 2376.32 1417.3 2382.74C1418.46 2375.54 1421.64 2355.16 1409.32 2346.74C1392.89 2336.47 1386.1 2359.92 1397.02 2370.4C1405.68 2379.34 1411.07 2386.9 1412.55 2391.47C1409.18 2398.09 1406.26 2404.87 1403.78 2411.78C1403.55 2404.66 1402.89 2383.88 1389.01 2377.35C1370.85 2369.64 1368.66 2393.68 1381.42 2402.42C1391.69 2409.98 1398.46 2416.66 1400.76 2420.96C1398.69 2427.96 1397.09 2435.07 1395.94 2442.25C1394.34 2435.17 1389.73 2414.82 1374.84 2410.46C1355.46 2405.5 1357.88 2429.58 1372.12 2436.37C1383.67 2442.33 1391.6 2447.94 1394.71 2451.86C1393.99 2459.08 1393.74 2466.34 1393.99 2473.61C1390.95 2466.57 1382.49 2447.39 1367.16 2445.32C1347.11 2443.27 1354.1 2466.88 1369.47 2471.53C1381.9 2475.71 1390.76 2480.09 1394.65 2483.55C1395.47 2492.01 1396.93 2500.47 1399.11 2508.84C1399.31 2509.6 1400.14 2510.09 1401 2509.97C1401.04 2509.97 1401.08 2509.96 1401.12 2509.95C1402.02 2509.77 1402.6 2508.98 1402.39 2508.19C1400.24 2499.92 1398.8 2491.59 1398 2483.25C1401.19 2479.33 1409.42 2474.21 1421.67 2470.66C1436.08 2465.96 1445.74 2452.79 1426.25 2450.82C1410.26 2448.68 1400.44 2465.28 1397.32 2472.69C1397.12 2465.73 1397.39 2458.79 1398.08 2451.89C1402.04 2448.58 1411.09 2444.87 1423.73 2443.25C1438.84 2440.82 1450.86 2429.39 1432.02 2424.57C1416.83 2420.18 1404.08 2434.6 1399.47 2441.43C1400.6 2434.69 1402.13 2428.01 1404.09 2421.43C1408.63 2418.79 1418.24 2416.51 1430.98 2416.78C1446.33 2416.64 1460.34 2407.16 1442.69 2399.65C1428.55 2393.11 1413.28 2405.38 1407.43 2411.41C1409.8 2404.97 1412.56 2398.64 1415.72 2392.46C1420.69 2390.53 1430.61 2389.68 1443.14 2391.81C1458.29 2393.93 1473.94 2386.6 1457.99 2376.6C1445.21 2368.04 1427.63 2378.12 1420.81 2383.17C1424.37 2377.13 1428.34 2371.27 1432.67 2365.6C1437.92 2364.38 1447.92 2364.96 1459.95 2368.91C1474.49 2373.21 1491.43 2368.19 1477.65 2355.97C1466.62 2345.58 1447.08 2353.19 1439.45 2357.19C1443.13 2352.91 1447.02 2348.74 1451.15 2344.74C1457.05 2341.89 1474.76 2334.09 1482.06 2331.38C1486.34 2329.42 1500.19 2322.4 1498.51 2314.12C1497.91 2310.81 1494.9 2307.87 1490.82 2306.6Z" fill="#263238"/>
<path d="M1559.11 2410.27C1556.21 2407.67 1551.51 2406.92 1546.21 2408.22C1537.27 2410.16 1523.35 2418.6 1519.64 2421.68C1515.71 2423.07 1511.86 2424.6 1508.12 2426.29C1512.23 2422.56 1523.31 2412.36 1520.36 2403.36C1515.91 2391.78 1501.11 2402.54 1502.36 2412.29C1503.06 2420.32 1502.57 2426.45 1501.3 2429.55C1496.36 2432.06 1491.59 2434.81 1487.03 2437.8C1490.26 2433.64 1499.33 2421.87 1494.63 2413.36C1488.02 2402.61 1475.65 2415.32 1478.77 2424.73C1481.02 2432.59 1481.73 2438.71 1481.05 2441.94C1476.66 2445.14 1472.49 2448.56 1468.54 2452.18C1470.88 2447.7 1477.7 2434.65 1471.37 2426.9C1462.81 2417.27 1453.08 2431.58 1457.94 2440.41C1461.67 2447.85 1463.54 2453.79 1463.46 2457.07C1459.74 2460.86 1456.27 2464.83 1453.06 2468.97C1454.54 2464.16 1458.76 2450.32 1451.06 2443.63C1440.78 2435.38 1433.88 2450.95 1440.35 2458.96C1445.43 2465.74 1448.39 2471.33 1448.95 2474.6C1445.99 2478.88 1443.3 2483.31 1440.92 2487.88C1441.49 2482.71 1442.93 2468.56 1434.16 2463.18C1422.44 2456.55 1418.56 2473.04 1426.46 2480.04C1432.7 2485.95 1436.67 2491.03 1437.88 2494.21C1435.43 2499.67 1433.39 2505.3 1431.83 2511.08C1431.68 2511.61 1432.03 2512.13 1432.6 2512.29C1432.63 2512.3 1432.66 2512.3 1432.68 2512.31C1433.3 2512.44 1433.93 2512.11 1434.09 2511.56C1435.63 2505.86 1437.64 2500.31 1440.05 2494.93C1443.39 2493.35 1450.28 2492.38 1459.11 2493.45C1469.67 2494.4 1480.24 2488.82 1468.86 2482.38C1459.7 2476.78 1447.83 2484.44 1443.31 2488.2C1445.61 2483.84 1448.2 2479.61 1451.03 2475.52C1454.63 2474.53 1461.53 2474.65 1469.93 2477.02C1480.14 2479.56 1491.57 2475.68 1481.57 2467.67C1473.69 2460.88 1460.77 2466.41 1455.54 2469.41C1458.58 2465.53 1461.85 2461.8 1465.36 2458.25C1469.09 2457.83 1475.84 2458.99 1483.64 2462.56C1493.19 2466.58 1505.18 2464.45 1496.86 2455.07C1490.38 2447.24 1476.64 2450.76 1470.92 2452.93C1474.63 2449.58 1478.55 2446.39 1482.65 2443.41C1486.4 2443.54 1492.85 2445.66 1499.87 2450.34C1508.52 2455.7 1520.77 2455.34 1514.37 2444.88C1509.44 2436.15 1495.03 2437.7 1489.04 2439.02C1493.35 2436.23 1497.86 2433.65 1502.51 2431.29C1506.19 2431.94 1512.18 2434.97 1518.27 2440.65C1525.77 2447.2 1538.02 2448.62 1533.74 2437.36C1530.52 2427.97 1515.77 2427.46 1509.65 2427.9C1513.42 2426.23 1517.28 2424.7 1521.23 2423.31C1525.88 2423.13 1539.58 2423.02 1545.04 2423.3C1548.38 2423.23 1559.4 2422.58 1561.25 2417C1562.04 2414.78 1561.19 2412.14 1559.11 2410.27Z" fill="#263238"/>
<path d="M458.769 2482.71C462.43 2481.57 466.752 2482.65 470.591 2485.67C477.187 2490.54 484.912 2502.7 486.582 2506.64C489.227 2509.24 491.735 2511.92 494.097 2514.69C492.412 2510.06 487.912 2497.46 494.638 2490.96C503.863 2482.83 511.225 2497.26 505.556 2505C501.17 2511.51 498.678 2516.84 498.283 2519.91C501.258 2523.82 503.96 2527.87 506.387 2532.03C505.645 2527.36 503.573 2514.16 511.556 2508.7C522.2 2502.05 526.595 2517.24 519.523 2524.02C513.911 2529.82 510.419 2534.71 509.467 2537.67C511.653 2541.96 513.54 2546.35 515.144 2550.82C515.298 2546.21 515.725 2532.75 524.716 2528.53C536.482 2523.54 537.893 2539.1 529.635 2544.77C522.975 2549.67 518.596 2554 517.104 2556.78C518.443 2561.31 519.491 2565.92 520.225 2570.57C521.265 2565.98 524.257 2552.8 533.893 2549.97C546.441 2546.76 544.876 2562.36 535.651 2566.75C528.168 2570.62 523.031 2574.25 521.015 2576.79C521.475 2581.46 521.644 2586.17 521.483 2590.88C523.45 2586.32 528.926 2573.9 538.861 2572.55C551.852 2571.22 547.32 2586.51 537.369 2589.53C529.321 2592.23 523.579 2595.07 521.055 2597.31C520.531 2602.79 519.58 2608.27 518.168 2613.7C518.039 2614.2 517.507 2614.51 516.943 2614.44C516.919 2614.44 516.886 2614.43 516.862 2614.42C516.273 2614.3 515.91 2613.79 516.04 2613.28C517.435 2607.92 518.362 2602.53 518.886 2597.12C516.822 2594.59 511.491 2591.27 503.556 2588.96C494.218 2585.93 487.969 2577.39 500.589 2576.11C510.943 2574.72 517.306 2585.48 519.33 2590.28C519.459 2585.77 519.289 2581.27 518.838 2576.8C516.273 2574.66 510.411 2572.26 502.218 2571.2C492.428 2569.64 484.646 2562.23 496.847 2559.1C506.693 2556.26 514.943 2565.6 517.935 2570.02C517.209 2565.66 516.217 2561.33 514.951 2557.07C512.008 2555.36 505.782 2553.88 497.533 2554.06C487.59 2553.97 478.518 2547.83 489.944 2542.96C499.097 2538.73 509 2546.68 512.782 2550.58C511.25 2546.41 509.459 2542.31 507.411 2538.31C504.194 2537.05 497.766 2536.51 489.646 2537.89C479.832 2539.26 469.696 2534.51 480.034 2528.03C488.315 2522.48 499.694 2529.01 504.113 2532.29C501.807 2528.37 499.234 2524.58 496.436 2520.9C493.041 2520.11 486.558 2520.48 478.76 2523.05C469.341 2525.83 458.374 2522.58 467.301 2514.66C474.445 2507.93 487.098 2512.86 492.041 2515.45C489.654 2512.68 487.138 2509.98 484.461 2507.39C480.639 2505.54 469.163 2500.49 464.438 2498.73C461.664 2497.47 452.697 2492.92 453.777 2487.55C454.164 2485.44 456.124 2483.53 458.769 2482.71Z" fill="#263238"/>
<path d="M414.53 2549.86C416.401 2548.18 419.457 2547.69 422.884 2548.54C428.674 2549.79 437.69 2555.26 440.093 2557.25C442.633 2558.16 445.125 2559.15 447.552 2560.23C444.891 2557.82 437.714 2551.21 439.617 2545.38C442.504 2537.88 452.092 2544.85 451.277 2551.16C450.826 2556.37 451.14 2560.34 451.971 2562.35C455.172 2563.97 458.261 2565.76 461.212 2567.69C459.124 2564.99 453.245 2557.37 456.293 2551.85C460.575 2544.88 468.591 2553.12 466.567 2559.22C465.107 2564.31 464.647 2568.27 465.091 2570.36C467.938 2572.43 470.639 2574.65 473.195 2577C471.679 2574.1 467.26 2565.64 471.357 2560.62C476.905 2554.38 483.203 2563.65 480.058 2569.37C477.639 2574.18 476.437 2578.03 476.477 2580.16C478.889 2582.61 481.138 2585.19 483.219 2587.87C482.259 2584.75 479.526 2575.79 484.517 2571.46C491.178 2566.11 495.637 2576.2 491.452 2581.39C488.162 2585.78 486.243 2589.41 485.88 2591.52C487.791 2594.29 489.533 2597.16 491.073 2600.12C490.71 2596.78 489.775 2587.61 495.46 2584.12C503.048 2579.83 505.564 2590.51 500.452 2595.04C496.412 2598.87 493.839 2602.17 493.057 2604.23C494.638 2607.77 495.96 2611.41 496.976 2615.16C497.065 2615.5 496.847 2615.83 496.476 2615.94C496.46 2615.95 496.436 2615.95 496.42 2615.95C496.016 2616.04 495.613 2615.82 495.516 2615.47C494.517 2611.78 493.21 2608.18 491.654 2604.69C489.493 2603.67 485.033 2603.04 479.308 2603.74C472.462 2604.36 465.615 2600.74 472.994 2596.57C478.929 2592.95 486.614 2597.91 489.541 2600.34C488.049 2597.52 486.38 2594.77 484.541 2592.12C482.211 2591.48 477.735 2591.56 472.292 2593.1C465.68 2594.74 458.277 2592.23 464.752 2587.03C469.857 2582.64 478.227 2586.22 481.622 2588.16C479.647 2585.66 477.526 2583.23 475.26 2580.93C472.841 2580.66 468.47 2581.4 463.414 2583.72C457.221 2586.33 449.463 2584.94 454.85 2578.88C459.051 2573.8 467.946 2576.09 471.655 2577.49C469.252 2575.32 466.712 2573.25 464.051 2571.32C461.624 2571.41 457.446 2572.79 452.898 2575.81C447.294 2579.29 439.359 2579.05 443.504 2572.27C446.705 2566.62 456.027 2567.62 459.906 2568.47C457.116 2566.66 454.197 2564.99 451.181 2563.47C448.802 2563.89 444.915 2565.85 440.972 2569.52C436.109 2573.77 428.174 2574.69 430.948 2567.39C433.029 2561.31 442.584 2560.98 446.552 2561.26C444.108 2560.18 441.609 2559.19 439.044 2558.29C436.036 2558.17 427.158 2558.11 423.626 2558.28C421.465 2558.24 414.32 2557.82 413.127 2554.2C412.627 2552.78 413.175 2551.07 414.53 2549.86Z" fill="#263238"/>
<path d="M3887.67 2818.61C3675.67 2741.89 3433.83 2676.69 3169.41 2625.9C2812.98 2557.31 2415.51 2514.78 1994.57 2504.82C1931.26 2503.34 1867.56 2502.56 1803.29 2502.56C1167.52 2502.56 577.882 2576.81 92.0264 2703.6" stroke="#263238" stroke-miterlimit="10"/>
<path d="M3820.07 1922.22C3888.19 1931.23 3957 1941.12 4026.44 1951.95" stroke="#263238" stroke-miterlimit="10"/>
<path d="M301.368 2194.86C301.368 2194.86 1731.07 1654.9 3783.04 1917.4" stroke="#263238" stroke-miterlimit="10"/>
<path d="M326.382 1390.48C582.447 1384.85 1498.55 1400.73 2578.11 1846.16" stroke="#263238" stroke-miterlimit="10"/>
<path d="M255.153 1393.24C255.153 1393.24 268.644 1392.29 294.425 1391.39" stroke="#263238" stroke-miterlimit="10"/>
<path d="M1547.73 1520.24C1547.73 1520.24 2621.45 1045.06 3961.73 1263.69" stroke="#263238" stroke-miterlimit="10"/>
<path d="M721.277 2138.08L755.565 2159.78L757.468 2238.2C757.468 2238.2 719.366 2236.53 704.133 2224.85C688.892 2213.17 682.61 2192.46 682.61 2192.46L721.277 2138.08Z" fill="white" stroke="#263238" stroke-miterlimit="10"/>
<path d="M684.892 1631.85C684.892 1631.85 562.367 1935.88 570.077 1968.29C577.786 2000.7 630.202 2129 637.911 2142.5C645.62 2156.01 665.659 2158.71 665.659 2158.71C665.659 2158.71 679.529 2181.67 682.618 2192.47C685.698 2203.27 702.657 2199.22 711.906 2196.52C721.156 2193.82 727.325 2181.67 730.405 2177.61C733.486 2173.56 733.486 2178.96 733.486 2165.46C733.486 2151.95 721.156 2115.48 721.156 2115.48C721.156 2115.48 728.865 2096.58 728.865 2081.73C728.865 2066.87 710.366 1961.53 708.826 1954.79C707.286 1948.03 722.704 1903.47 722.704 1903.47L684.892 1631.85Z" fill="#92E3A9" stroke="#263238" stroke-miterlimit="10"/>
<path d="M1108.17 3083.28C1108.17 3083.28 1120.36 3100.64 1124.94 3103.31C1129.51 3105.98 1155.43 3120.68 1164.57 3124.68C1173.72 3128.69 1181.34 3135.36 1181.34 3147.39C1181.34 3159.41 1167.62 3163.41 1138.65 3172.76C1109.69 3182.11 1092.92 3196.8 1051.76 3199.47C1010.6 3202.14 995.348 3195.46 995.348 3184.78C995.348 3174.1 1001.29 3102.58 1001.29 3102.58C1001.29 3102.58 1088.35 3104.65 1108.17 3083.28Z" fill="#263238" stroke="#263238" stroke-miterlimit="10"/>
<path d="M758.5 3089.23C758.5 3089.23 755.718 3158.49 758.557 3164.03C761.395 3169.57 775.572 3178.43 803.933 3179.53C832.294 3180.64 853.567 3172.89 859.236 3168.46C864.905 3164.03 864.905 3152.95 864.905 3152.95L873.67 3091.99L758.5 3089.23Z" fill="#263238" stroke="#263238" stroke-miterlimit="10"/>
<path d="M753.605 2111.61C753.605 2111.61 735.026 2227.58 738.114 2261.34C741.195 2295.1 742.743 2343.72 742.743 2343.72L757.476 3030.83L736.518 3040.84L749.855 3089.24C749.855 3089.24 774.62 3097.58 799.385 3099.25C824.149 3100.91 873.678 3092.57 873.678 3092.57L881.299 3059.2L869.872 3032.5C869.872 3032.5 869.872 3022.49 873.686 3009.14C877.492 2995.79 896.548 2703.77 896.548 2703.77L944.174 2356.68L961.318 2381.71L1005.13 3024.15C1005.13 3024.15 989.888 3049.18 991.792 3054.19C993.695 3059.2 1001.32 3079.22 1001.32 3079.22V3102.58C1001.32 3102.58 1027.98 3112.59 1050.84 3107.59C1073.71 3102.58 1106.08 3092.57 1106.08 3092.57C1106.08 3092.57 1115.61 3069.21 1115.61 3064.2C1115.61 3059.19 1113.7 3047.52 1113.7 3040.84C1113.7 3034.16 1183.66 2300.5 1183.66 2300.5L1161.32 2121.4L753.605 2111.61Z" fill="#263238" stroke="#263238" stroke-miterlimit="10"/>
<path d="M846.438 1545.64C846.438 1545.64 686.916 1603.52 684.9 1631.85C682.876 1660.17 753.613 2111.61 753.613 2111.61L1135.57 2120.46C1135.57 2120.46 1182.05 1621.22 1173.97 1610.6C1165.89 1599.98 1007.57 1547.08 1007.57 1547.08C1007.57 1547.08 872.574 1539.1 846.438 1545.64Z" fill="#92E3A9" stroke="#263238" stroke-miterlimit="10"/>
<path d="M1081.55 1368.48C1081.55 1368.48 1089.77 1395.85 1084.84 1407.37C1079.91 1418.89 1083.2 1420.33 1083.2 1431.85C1083.2 1443.37 1086.49 1460.66 1074.97 1480.82C1063.46 1500.98 1050.31 1534.11 1037.16 1536.99C1024.01 1539.87 1012.5 1534.11 1012.5 1534.11L1007.56 1547.07L874.388 1529.79L879.323 1499.54C879.323 1499.54 876.033 1424.65 877.678 1411.68C879.323 1398.72 877.678 1356.95 917.135 1331.03C956.592 1305.11 1060.18 1302.23 1081.55 1368.48Z" fill="white" stroke="#263238" stroke-miterlimit="10"/>
<path d="M899.048 1271.99C899.048 1271.99 857.945 1283.51 843.148 1335.36C828.351 1387.21 844.793 1434.73 854.655 1444.82C864.518 1454.91 877.67 1473.63 877.67 1473.63L879.315 1499.55C879.315 1499.55 954.947 1508.19 971.39 1505.32C987.832 1502.44 994.404 1499.55 1000.98 1495.24C1007.56 1490.92 1014.14 1475.07 1019.07 1454.91C1024.01 1434.75 1045.38 1413.14 1045.38 1424.66C1045.38 1436.18 1045.38 1447.7 1045.38 1447.7C1045.38 1447.7 1063.46 1444.82 1063.46 1433.3C1063.46 1421.78 1060.17 1411.7 1063.46 1405.93C1066.75 1400.17 1078.26 1394.41 1084.84 1382.89C1091.41 1371.37 1091.41 1335.36 1091.41 1335.36C1091.41 1335.36 1111.15 1358.41 1112.79 1338.25C1114.44 1318.09 1102.93 1287.84 1068.4 1273.43C1033.87 1259.03 1009.21 1261.91 1009.21 1261.91C1009.21 1261.91 948.375 1227.33 899.048 1271.99Z" fill="#263238" stroke="#263238" stroke-miterlimit="10"/>
<path d="M1045.39 1555.72C1045.39 1555.72 1014.15 1528.35 959.891 1516.83C905.636 1505.31 864.526 1515.39 856.309 1525.47C848.083 1535.55 846.446 1545.64 846.446 1545.64C846.446 1545.64 922.079 1547.08 951.673 1549.96C981.268 1552.84 1066.82 1568.32 1066.82 1568.32L1045.39 1555.72Z" fill="#92E3A9" stroke="#263238" stroke-miterlimit="10"/>
<path d="M1105.26 1755.77L1125.47 2085.06L1190.14 2285.11L1242.69 2281.57L1254.82 2237.32C1254.82 2237.32 1260.88 2198.37 1260.88 2191.29C1260.88 2184.21 1246.74 1778.79 1224.5 1713.3C1202.27 1647.79 1176 1605.3 1151.75 1605.3" fill="#92E3A9"/>
<path d="M1105.26 1755.77L1125.47 2085.06L1190.14 2285.11L1242.69 2281.57L1254.82 2237.32C1254.82 2237.32 1260.88 2198.37 1260.88 2191.29C1260.88 2184.21 1246.74 1778.79 1224.5 1713.3C1202.27 1647.79 1176 1605.3 1151.75 1605.3" stroke="#263238" stroke-miterlimit="10"/>
<path d="M1249.27 2343.07H1229.42V2421.11H1249.27V2343.07Z" fill="#263238" stroke="#263238" stroke-miterlimit="10"/>
<path d="M1242.68 2281.57L1266.9 2339.67L1237.61 2381.53C1237.61 2381.53 1206.77 2380.18 1202.15 2376.13C1197.52 2372.07 1177.48 2354.52 1185.19 2349.11C1192.9 2343.71 1192.9 2343.71 1192.9 2343.71C1192.9 2343.71 1180.57 2309.95 1183.65 2300.49C1186.73 2291.04 1190.14 2285.09 1190.14 2285.09L1242.68 2281.57Z" fill="white" stroke="#263238" stroke-miterlimit="10"/>
<path d="M814.617 2313.3L986.058 2356.68" stroke="#7D7D7D" stroke-miterlimit="10"/>
<path d="M1217.21 2343.07H1197.37V2421.11H1217.21V2343.07Z" fill="#263238" stroke="#263238" stroke-miterlimit="10"/>
<path d="M1225.63 2778.07L1326.54 2745.41V2424L1225.63 2420.95V2778.07Z" fill="#808080" stroke="#263238" stroke-miterlimit="10"/>
<path d="M1225.63 2420.95H1129.9V2778.07H1225.63V2420.95Z" fill="#4C4C4C" stroke="#263238" stroke-miterlimit="10"/>
<path d="M850.776 1697.34C850.776 1697.34 934.327 1839.05 980.542 1871.75" stroke="#263238" stroke-miterlimit="10"/>
<path d="M896.991 1826.59C896.991 1826.59 959.205 1898.22 992.985 1910.67" stroke="#263238" stroke-miterlimit="10"/>
</svg>
