<svg width="4032" height="3711" viewBox="0 0 4032 3711" fill="none" xmlns="http://www.w3.org/2000/svg">
<path d="M3795.92 2010.83C3788.69 1887.2 3770.09 1765.62 3740.18 1649.77C3680.07 1416.95 3545.76 997.799 3293.94 655.158C2923.91 151.692 2146.85 151.692 1708.1 623.689C1269.35 1095.69 1311.64 1284.49 989.184 1308.09C666.726 1331.69 402.42 1284.49 227.98 1599.15C53.5395 1913.82 -84.715 2614.77 259.698 2967.95C604.112 3321.14 893.668 3226.58 1221.78 3235.42C1549.88 3244.26 1776.82 3447.82 2310.72 3447.82C2844.62 3447.82 3341.52 3502.89 3616.4 3101.69C3812.48 2815.49 3812.2 2289.09 3795.92 2010.83Z" fill="#92E3A9"/>
<path opacity="0.7" d="M3795.92 2010.83C3788.69 1887.2 3770.09 1765.62 3740.18 1649.77C3680.07 1416.95 3545.76 997.799 3293.94 655.158C2923.91 151.692 2146.85 151.692 1708.1 623.689C1269.35 1095.69 1311.64 1284.49 989.184 1308.09C666.726 1331.69 402.42 1284.49 227.98 1599.15C53.5395 1913.82 -84.715 2614.77 259.698 2967.95C604.112 3321.14 893.668 3226.58 1221.78 3235.42C1549.88 3244.26 1776.82 3447.82 2310.72 3447.82C2844.62 3447.82 3341.52 3502.89 3616.4 3101.69C3812.48 2815.49 3812.2 2289.09 3795.92 2010.83Z" fill="white"/>
<g opacity="0.3">
<path d="M2800.61 157.404V2389.3H3325.87V157.404H2800.61ZM3299.42 207.001V536.427H3080.8V207.001H3299.42ZM3048.13 207.001V536.427H2827.06V207.001H3048.13ZM2827.06 588.68H3048.13V915.539H2827.06V588.68ZM3299.42 2339.7H2827.06V972.221H3299.42V2339.7ZM3080.8 915.539V588.68H3299.42V915.539H3080.8Z" stroke="black" stroke-miterlimit="10" stroke-linecap="round" stroke-linejoin="round"/>
<path d="M3323.84 157.404V2389.3H3849.11V157.404H3323.84ZM3822.65 207.001V536.427H3604.03V207.001H3822.65ZM3571.36 207.001V536.427H3350.29V207.001H3571.36ZM3350.29 588.68H3571.36V915.539H3350.29V588.68ZM3822.65 2339.7H3350.29V972.221H3822.65V2339.7ZM3604.03 915.539V588.68H3822.65V915.539H3604.03Z" stroke="black" stroke-miterlimit="10" stroke-linecap="round" stroke-linejoin="round"/>
<path d="M3181.83 1342.68L3049.97 1569.21" stroke="black" stroke-miterlimit="10" stroke-linecap="round" stroke-linejoin="round"/>
<path d="M3214.57 1286.44L3193.61 1322.45" stroke="black" stroke-miterlimit="10" stroke-linecap="round" stroke-linejoin="round"/>
<path d="M2906.6 1734.41L2879.58 1778.21" stroke="black" stroke-miterlimit="10" stroke-linecap="round" stroke-linejoin="round"/>
<path d="M3081.73 1450.37L2926.81 1701.62" stroke="black" stroke-miterlimit="10" stroke-linecap="round" stroke-linejoin="round"/>
<path d="M3713.18 1411.85L3581.32 1638.38" stroke="black" stroke-miterlimit="10" stroke-linecap="round" stroke-linejoin="round"/>
<path d="M3745.92 1355.62L3724.96 1391.63" stroke="black" stroke-miterlimit="10" stroke-linecap="round" stroke-linejoin="round"/>
<path d="M3437.95 1803.57L3410.94 1847.38" stroke="black" stroke-miterlimit="10" stroke-linecap="round" stroke-linejoin="round"/>
<path d="M3613.08 1519.54L3458.17 1770.79" stroke="black" stroke-miterlimit="10" stroke-linecap="round" stroke-linejoin="round"/>
<path d="M3774.09 258.777L3710.97 367.208" stroke="black" stroke-miterlimit="10" stroke-linecap="round" stroke-linejoin="round"/>
<path d="M3789.76 231.857L3779.73 249.094" stroke="black" stroke-miterlimit="10" stroke-linecap="round" stroke-linejoin="round"/>
<path d="M3642.35 446.277L3629.42 467.247" stroke="black" stroke-miterlimit="10" stroke-linecap="round" stroke-linejoin="round"/>
<path d="M3726.18 310.318L3652.02 430.585" stroke="black" stroke-miterlimit="10" stroke-linecap="round" stroke-linejoin="round"/>
<path d="M3527.78 258.777L3464.66 367.208" stroke="black" stroke-miterlimit="10" stroke-linecap="round" stroke-linejoin="round"/>
<path d="M3543.45 231.857L3533.41 249.094" stroke="black" stroke-miterlimit="10" stroke-linecap="round" stroke-linejoin="round"/>
<path d="M3396.04 446.277L3383.11 467.247" stroke="black" stroke-miterlimit="10" stroke-linecap="round" stroke-linejoin="round"/>
<path d="M3479.86 310.318L3405.71 430.585" stroke="black" stroke-miterlimit="10" stroke-linecap="round" stroke-linejoin="round"/>
<path d="M3527.78 665.002L3464.66 773.433" stroke="black" stroke-miterlimit="10" stroke-linecap="round" stroke-linejoin="round"/>
<path d="M3543.45 638.09L3533.41 655.319" stroke="black" stroke-miterlimit="10" stroke-linecap="round" stroke-linejoin="round"/>
<path d="M3396.04 852.504L3383.11 873.473" stroke="black" stroke-miterlimit="10" stroke-linecap="round" stroke-linejoin="round"/>
<path d="M3479.86 716.551L3405.71 836.81" stroke="black" stroke-miterlimit="10" stroke-linecap="round" stroke-linejoin="round"/>
<path d="M3747.46 665.002L3684.34 773.433" stroke="black" stroke-miterlimit="10" stroke-linecap="round" stroke-linejoin="round"/>
<path d="M3763.14 638.09L3753.1 655.319" stroke="black" stroke-miterlimit="10" stroke-linecap="round" stroke-linejoin="round"/>
<path d="M3615.72 852.504L3602.79 873.473" stroke="black" stroke-miterlimit="10" stroke-linecap="round" stroke-linejoin="round"/>
<path d="M3699.55 716.551L3625.4 836.81" stroke="black" stroke-miterlimit="10" stroke-linecap="round" stroke-linejoin="round"/>
<path d="M3254.84 258.777L3191.72 367.208" stroke="black" stroke-miterlimit="10" stroke-linecap="round" stroke-linejoin="round"/>
<path d="M3270.51 231.857L3260.47 249.094" stroke="black" stroke-miterlimit="10" stroke-linecap="round" stroke-linejoin="round"/>
<path d="M3123.1 446.277L3110.17 467.247" stroke="black" stroke-miterlimit="10" stroke-linecap="round" stroke-linejoin="round"/>
<path d="M3206.92 310.318L3132.77 430.585" stroke="black" stroke-miterlimit="10" stroke-linecap="round" stroke-linejoin="round"/>
<path d="M3254.84 655.557L3191.72 763.988" stroke="black" stroke-miterlimit="10" stroke-linecap="round" stroke-linejoin="round"/>
<path d="M3270.51 628.637L3260.47 645.874" stroke="black" stroke-miterlimit="10" stroke-linecap="round" stroke-linejoin="round"/>
<path d="M3123.1 843.057L3110.17 864.026" stroke="black" stroke-miterlimit="10" stroke-linecap="round" stroke-linejoin="round"/>
<path d="M3206.92 707.105L3132.77 827.364" stroke="black" stroke-miterlimit="10" stroke-linecap="round" stroke-linejoin="round"/>
<path d="M3015.18 655.557L2952.06 763.988" stroke="black" stroke-miterlimit="10" stroke-linecap="round" stroke-linejoin="round"/>
<path d="M3030.85 628.637L3020.82 645.874" stroke="black" stroke-miterlimit="10" stroke-linecap="round" stroke-linejoin="round"/>
<path d="M2883.44 843.057L2870.51 864.026" stroke="black" stroke-miterlimit="10" stroke-linecap="round" stroke-linejoin="round"/>
<path d="M2967.27 707.105L2893.12 827.364" stroke="black" stroke-miterlimit="10" stroke-linecap="round" stroke-linejoin="round"/>
<path d="M2998.54 258.777L2935.42 367.208" stroke="black" stroke-miterlimit="10" stroke-linecap="round" stroke-linejoin="round"/>
<path d="M3014.2 231.857L3004.17 249.094" stroke="black" stroke-miterlimit="10" stroke-linecap="round" stroke-linejoin="round"/>
<path d="M2866.79 446.277L2853.87 467.247" stroke="black" stroke-miterlimit="10" stroke-linecap="round" stroke-linejoin="round"/>
<path d="M2950.62 310.318L2876.47 430.585" stroke="black" stroke-miterlimit="10" stroke-linecap="round" stroke-linejoin="round"/>
</g>
<g opacity="0.3">
<path d="M1300.99 170.664H403.42V1183.52H1300.99V170.664Z" stroke="black" stroke-miterlimit="10" stroke-linecap="round" stroke-linejoin="round"/>
<path d="M931.903 1077.02C961.301 1060.21 975.261 1013.69 963.084 973.116C950.907 932.539 917.203 913.271 887.805 930.079C858.407 946.886 844.446 993.406 856.624 1033.98C868.801 1074.56 902.505 1093.83 931.903 1077.02Z" stroke="black" stroke-miterlimit="10" stroke-linecap="round" stroke-linejoin="round"/>
<path d="M961.368 484.567C961.368 505.373 949.149 522.232 934.08 522.232C919.011 522.232 906.791 505.366 906.791 484.567C906.791 463.761 919.011 446.902 934.08 446.902C949.149 446.902 961.368 463.761 961.368 484.567Z" stroke="black" stroke-miterlimit="10" stroke-linecap="round" stroke-linejoin="round"/>
<path d="M464.067 656.167C474.114 656.167 482.259 644.925 482.259 631.057C482.259 617.189 474.114 605.947 464.067 605.947C454.019 605.947 445.875 617.189 445.875 631.057C445.875 644.925 454.019 656.167 464.067 656.167Z" stroke="black" stroke-miterlimit="10" stroke-linecap="round" stroke-linejoin="round"/>
<path d="M633.879 1007.73C650.624 1007.73 664.199 988.99 664.199 965.877C664.199 942.764 650.624 924.027 633.879 924.027C617.133 924.027 603.558 942.764 603.558 965.877C603.558 988.99 617.133 1007.73 633.879 1007.73Z" stroke="black" stroke-miterlimit="10" stroke-linecap="round" stroke-linejoin="round"/>
<path d="M1300.99 1039.96L1269.49 1016.07C1080.26 872.523 1064.88 505.291 1240.87 332.601L1300.99 273.604" stroke="black" stroke-miterlimit="10" stroke-linecap="round" stroke-linejoin="round"/>
<path d="M781.977 1183.52C752.382 1025.97 737.947 803.806 801.626 552.135C843.715 385.894 891.567 261.932 936.623 170.664" stroke="black" stroke-miterlimit="10" stroke-linecap="round" stroke-linejoin="round"/>
<path d="M562.255 1183.52C547.879 1033.24 545.82 757.793 654.378 425.087C689.854 316.203 723.879 233.528 755.296 170.664" stroke="black" stroke-miterlimit="10" stroke-linecap="round" stroke-linejoin="round"/>
<path d="M403.42 481.896C456.971 392.171 531.084 269.308 594.032 170.664" stroke="black" stroke-miterlimit="10" stroke-linecap="round" stroke-linejoin="round"/>
</g>
<path d="M530.956 2868.91V2105.91" stroke="#5E5E5E" stroke-width="4" stroke-miterlimit="10"/>
<path d="M462.164 2884.33V1830.56" stroke="#5E5E5E" stroke-width="4" stroke-miterlimit="10"/>
<path d="M618.144 2889.47V2519.36" stroke="#5E5E5E" stroke-width="4" stroke-miterlimit="10"/>
<path d="M435.451 1934.47C435.451 1934.47 421.651 1899.55 375.643 1823.35C329.64 1747.15 138.722 1540.79 138.722 1540.79C138.722 1540.79 246.834 1620.16 281.337 1661.44C315.84 1702.71 361.843 1753.51 361.843 1753.51C361.843 1753.51 233.028 1559.84 219.228 1547.14C205.428 1534.44 350.338 1699.54 350.338 1699.54C350.338 1699.54 295.132 1547.14 267.531 1496.35C239.931 1445.55 187.026 1324.91 187.026 1324.91C187.026 1324.91 336.538 1601.12 343.44 1617C350.343 1632.87 380.245 1702.72 380.245 1702.72L327.339 1512.23L391.744 1667.79C391.744 1667.79 299.734 1404.28 295.137 1391.59C290.535 1378.88 359.542 1515.41 359.542 1515.41L299.734 1267.77L437.746 1658.27L428.548 1505.88L453.853 1664.62L460.756 1274.11L476.857 1661.44C476.857 1661.44 502.161 1413.8 506.758 1363.01C511.36 1312.21 513.661 1258.24 513.661 1258.24C513.661 1258.24 509.059 1594.77 509.059 1604.3C509.059 1613.83 504.457 1690.02 504.457 1690.02C504.457 1690.02 538.96 1547.15 548.164 1509.06C557.362 1470.95 566.566 1340.79 571.168 1321.74C575.77 1302.69 548.164 1613.83 545.863 1626.52C543.562 1639.22 536.659 1667.79 529.762 1686.85C522.859 1705.9 580.366 1572.56 601.069 1515.41C621.772 1458.26 660.877 1350.32 660.877 1350.32C660.877 1350.32 626.374 1509.06 617.17 1537.63C607.972 1566.21 548.164 1718.6 548.164 1718.6C548.164 1718.6 637.873 1572.56 676.978 1534.46C716.083 1496.37 787.391 1423.34 787.391 1423.34C787.391 1423.34 672.382 1594.79 649.378 1626.53C626.374 1658.28 559.669 1769.4 559.669 1769.4C559.669 1769.4 674.677 1667.8 681.58 1658.28C688.483 1648.75 771.289 1575.73 771.289 1575.73C771.289 1575.73 604.332 1757.81 596.473 1769.4C529.767 1867.82 506.763 1915.44 492.963 1934.49C479.152 1953.52 456.154 1963.04 435.451 1934.47Z" fill="#92E3A9"/>
<path d="M514.833 2212.79C514.833 2212.79 505.07 2188.08 472.529 2134.18C439.988 2080.29 304.943 1934.32 304.943 1934.32C304.943 1934.32 381.411 1990.46 405.818 2019.66C430.225 2048.85 462.766 2084.79 462.766 2084.79C462.766 2084.79 371.654 1947.8 361.891 1938.81C352.128 1929.82 454.632 2046.6 454.632 2046.6C454.632 2046.6 415.586 1938.81 396.061 1902.88C376.535 1866.95 339.118 1781.61 339.118 1781.61C339.118 1781.61 444.875 1976.99 449.756 1988.22C454.638 1999.45 475.787 2048.85 475.787 2048.85L438.364 1914.11L483.921 2024.15C483.921 2024.15 418.839 1837.75 415.586 1828.78C412.334 1819.79 461.143 1916.36 461.143 1916.36L418.839 1741.2L516.462 2017.41L509.951 1909.62L527.848 2021.9L532.729 1745.68L544.116 2019.65C544.116 2019.65 562.012 1844.49 565.27 1808.56C568.523 1772.63 570.152 1734.45 570.152 1734.45C570.152 1734.45 566.899 1972.5 566.899 1979.23C566.899 1985.97 563.647 2039.87 563.647 2039.87C563.647 2039.87 588.054 1938.81 594.559 1911.86C601.069 1884.91 607.574 1792.84 610.827 1779.37C614.079 1765.89 594.559 1985.97 592.93 1994.95C591.301 2003.93 586.419 2024.14 581.538 2037.62C576.657 2051.09 617.332 1956.77 631.976 1916.35C646.62 1875.92 674.28 1799.57 674.28 1799.57C674.28 1799.57 649.872 1911.85 643.367 1932.07C636.857 1952.28 594.559 2060.07 594.559 2060.07C594.559 2060.07 658.012 1956.77 685.671 1929.82C713.331 1902.87 763.768 1851.22 763.768 1851.22C763.768 1851.22 682.419 1972.49 666.146 1994.94C649.878 2017.4 602.693 2096 602.693 2096C602.693 2096 684.042 2024.13 688.924 2017.4C693.805 2010.66 752.377 1959.01 752.377 1959.01C752.377 1959.01 634.282 2087.79 628.723 2095.99C581.538 2165.61 565.27 2199.3 555.508 2212.77C545.75 2226.26 529.477 2233 514.833 2212.79Z" fill="#92E3A9"/>
<path d="M597.639 2533.45C597.639 2533.45 587.876 2508.75 555.336 2454.85C522.795 2400.95 387.75 2254.98 387.75 2254.98C387.75 2254.98 464.218 2311.12 488.625 2340.32C513.032 2369.51 545.573 2405.44 545.573 2405.44C545.573 2405.44 454.46 2268.45 444.697 2259.47C434.935 2250.49 537.439 2367.27 537.439 2367.27C537.439 2367.27 498.393 2259.47 478.867 2223.54C459.342 2187.62 421.919 2102.28 421.919 2102.28C421.919 2102.28 527.676 2297.65 532.557 2308.88C537.439 2320.1 558.588 2369.51 558.588 2369.51L521.166 2234.76L566.722 2344.8C566.722 2344.8 501.64 2158.41 498.388 2149.43C495.135 2140.45 543.944 2237.01 543.944 2237.01L501.64 2061.85L599.263 2338.07L592.753 2230.27L610.649 2342.56L615.531 2066.34L626.917 2340.32C626.917 2340.32 644.814 2165.15 648.066 2129.22C651.319 2093.29 652.948 2055.11 652.948 2055.11C652.948 2055.11 649.695 2293.15 649.695 2299.89C649.695 2306.63 646.443 2360.52 646.443 2360.52C646.443 2360.52 670.85 2259.46 677.355 2232.51C683.865 2205.56 690.37 2113.5 693.622 2100.02C696.875 2086.55 677.355 2306.63 675.726 2315.61C674.097 2324.59 669.215 2344.8 664.339 2358.27C659.458 2371.75 700.133 2277.43 714.777 2237C729.421 2196.58 757.081 2120.23 757.081 2120.23C757.081 2120.23 732.674 2232.51 726.169 2252.72C719.658 2272.93 677.36 2380.73 677.36 2380.73C677.36 2380.73 740.813 2277.42 768.472 2250.48C796.132 2223.53 846.57 2171.88 846.57 2171.88C846.57 2171.88 765.22 2293.14 748.947 2315.6C732.679 2338.05 685.494 2416.65 685.494 2416.65C685.494 2416.65 766.844 2344.79 771.725 2338.05C776.606 2331.31 835.178 2279.66 835.178 2279.66C835.178 2279.66 717.083 2408.45 711.524 2416.65C664.339 2486.26 648.072 2519.95 638.309 2533.43C628.557 2546.92 612.284 2553.66 597.639 2533.45Z" fill="#92E3A9"/>
<path d="M700.6 3136.4C700.6 3286.32 672.043 3418.67 628.406 3498.61H434.822C391.185 3418.67 362.627 3286.32 362.627 3136.4C362.627 3123.34 362.826 3110.34 363.278 3097.54C364.38 3064.08 366.934 3031.65 370.74 3000.73C372.191 2988.98 373.793 2977.43 375.6 2966.15C377.105 2956.75 378.707 2947.55 380.46 2938.49C388.674 2895.69 399.448 2856.83 412.323 2823.35H650.899C663.775 2856.82 674.548 2895.69 682.763 2938.49C684.515 2947.55 686.117 2956.75 687.623 2966.15C689.429 2977.43 691.031 2988.97 692.483 3000.73C696.289 3031.65 698.848 3064.07 699.95 3097.54C700.402 3110.34 700.6 3123.34 700.6 3136.4Z" fill="white" stroke="#263238" stroke-miterlimit="10"/>
<path d="M682.768 2938.49H380.465C378.712 2947.55 377.11 2956.75 375.605 2966.15H687.628C686.123 2956.75 684.521 2947.55 682.768 2938.49ZM692.488 3000.73H370.745C366.939 3031.65 364.38 3064.07 363.283 3097.54H699.955C698.848 3064.07 696.294 3031.64 692.488 3000.73Z" fill="#263238" stroke="#263238" stroke-miterlimit="10"/>
<path d="M795.648 2797.41L817.152 2733.1L867.326 2703.42L910.334 2713.31L931.838 2738.04C931.838 2738.04 935.424 2747.93 935.424 2762.77C935.424 2777.61 924.672 2797.41 924.672 2797.41C924.672 2797.41 913.92 2817.2 903.168 2832.04C892.416 2846.88 888.83 2846.88 878.078 2856.77C867.326 2866.66 852.988 2866.66 852.988 2866.66C852.988 2866.66 802.814 2851.82 795.648 2797.41Z" fill="white" stroke="#263238" stroke-miterlimit="10"/>
<path d="M795.648 2797.41L856.321 2748.9L903.824 2768.33L889.749 2809.61L866.88 2836.32L851.048 2853.31L878.078 2856.77" stroke="#263238" stroke-miterlimit="10"/>
<path d="M856.321 2748.9L867.326 2703.42L931.838 2738.05L917.893 2802.32L889.749 2809.61" stroke="#263238" stroke-miterlimit="10"/>
<path d="M819.377 2782.89V2816.89L851.047 2838.74L859.843 2795.04L842.247 2787.75L835.21 2799.89" stroke="#263238" stroke-miterlimit="10"/>
<path d="M938.929 2622.88L988.985 2638.47L1020.5 2699.99L1022.48 2760.11L1009.45 2794.31C1009.45 2794.31 1003.18 2801.21 992.673 2804.31C982.157 2807.41 965.89 2797.03 965.89 2797.03C965.89 2797.03 949.622 2786.65 936.865 2775.24C924.102 2763.82 923.355 2758.99 914.097 2746.54C904.84 2734.1 901.845 2714.75 901.845 2714.75C901.845 2714.75 901.872 2643.92 938.929 2622.88Z" fill="white" stroke="#263238" stroke-miterlimit="10"/>
<path d="M938.929 2622.88L985.974 2694.64L982.136 2762.81L949.944 2752.44L926.242 2727.15L910.893 2709.33L914.092 2746.54" stroke="#263238" stroke-miterlimit="10"/>
<path d="M985.974 2694.64L1020.5 2699.99L1009.44 2794.3L960.987 2788.91L949.944 2752.44" stroke="#263238" stroke-miterlimit="10"/>
<path d="M954.17 2651.88L930.08 2658.98L921.215 2706.29L954.019 2709.03L955.503 2683.76L945.434 2676.8" stroke="#263238" stroke-miterlimit="10"/>
<path d="M1163.57 3367.58L1212.36 3345.64L1262.24 3376.26L1286.22 3426.53L1287.69 3465.11C1287.69 3465.11 1284.87 3475.46 1276.98 3485.55C1269.1 3495.64 1251.27 3498.2 1251.27 3498.2C1251.27 3498.2 1233.45 3500.77 1218.26 3499.97C1203.06 3499.17 1200.62 3495.55 1188.06 3491.39C1175.49 3487.22 1165.75 3472.72 1165.75 3472.72C1165.75 3472.72 1139.52 3411.82 1163.57 3367.58Z" fill="white" stroke="#263238" stroke-miterlimit="10"/>
<path d="M1163.57 3367.58L1230.59 3396.03L1252.55 3457.32L1221.05 3471.13L1191.31 3466.13L1171.52 3461.66L1188.06 3491.38" stroke="#263238" stroke-miterlimit="10"/>
<path d="M1230.59 3396.03L1262.24 3376.25L1287.69 3465.1L1244.05 3494.67L1221.05 3471.13" stroke="#263238" stroke-miterlimit="10"/>
<path d="M1187.41 3381.74L1169.34 3404.84L1179.26 3451.76L1208.46 3430.96L1200.37 3408.19L1189.14 3409.32" stroke="#263238" stroke-miterlimit="10"/>
<path d="M1124.05 2847.02L1075.59 2870.31L1025.27 2841.08L1000.57 2791.49L998.533 2752.96C998.533 2752.96 1001.2 2742.53 1008.94 2732.23C1016.68 2721.92 1034.46 2718.86 1034.46 2718.86C1034.46 2718.86 1052.24 2715.81 1067.45 2716.18C1082.65 2716.56 1085.14 2720.11 1097.76 2723.92C1110.39 2727.73 1120.34 2741.97 1120.34 2741.97C1120.34 2741.97 1147.44 2802.12 1124.05 2847.02Z" fill="white" stroke="#263238" stroke-miterlimit="10"/>
<path d="M1124.05 2847.02L1056.63 2820.43L1033.77 2759.76L1065.07 2745.09L1094.87 2749.26L1114.73 2753.17L1097.76 2723.92" stroke="#263238" stroke-miterlimit="10"/>
<path d="M1056.63 2820.43L1025.27 2841.09L998.527 2752.97L1041.72 2722.18L1065.07 2745.09" stroke="#263238" stroke-miterlimit="10"/>
<path d="M1100 2833.53L1117.72 2809.92L1107.13 2763.3L1078.24 2784.9L1086.66 2807.44L1097.87 2806" stroke="#263238" stroke-miterlimit="10"/>
<path d="M1165.82 2769.19H775.192L814.26 3497.04H1126.76L1165.82 2769.19Z" fill="#92E3A9" stroke="#263238" stroke-miterlimit="10"/>
<path d="M1776.1 2184.46H1543.06L1551.17 1997.92L1557.04 1862.81H1762.11L1767.98 1997.92L1776.1 2184.46Z" fill="white" stroke="#263238" stroke-miterlimit="10"/>
<path d="M1767.98 1997.92H1551.17L1557.04 1862.81H1762.11L1767.98 1997.92Z" fill="#263238" stroke="#263238" stroke-miterlimit="10"/>
<path d="M1836.71 2152.33H1482.46V2203.79H1836.71V2152.33Z" fill="white" stroke="#263238" stroke-miterlimit="10"/>
<path d="M2083.75 1933.59H1235.42C1212.25 1933.59 1193.47 1907.66 1193.47 1875.69V1094.01C1193.47 1056.7 1215.38 1026.46 1242.41 1026.46H2076.76C2103.8 1026.46 2125.71 1056.7 2125.71 1094.01V1875.68C2125.7 1907.66 2106.92 1933.59 2083.75 1933.59Z" fill="white" stroke="#263238" stroke-miterlimit="10"/>
<path d="M2125.7 1798.48H1193.47V1094.01C1193.47 1056.7 1215.38 1026.46 1242.41 1026.46H2076.76C2103.8 1026.46 2125.71 1056.7 2125.71 1094.01V1798.48H2125.7Z" fill="#263238" stroke="#263238" stroke-miterlimit="10"/>
<path d="M2083.75 1090.79H1235.42V1734.15H2083.75V1090.79Z" fill="white" stroke="#263238" stroke-miterlimit="10"/>
<path d="M1286.65 1481.56H1372.67" stroke="#263238" stroke-miterlimit="10"/>
<path d="M1286.65 1511.25H1372.67" stroke="#263238" stroke-miterlimit="10"/>
<path d="M1286.65 1540.93H1372.67" stroke="#263238" stroke-miterlimit="10"/>
<path d="M1286.65 1570.61H1372.67" stroke="#263238" stroke-miterlimit="10"/>
<path d="M1375.26 1328.83L1268.05 1193.73" stroke="#263238" stroke-miterlimit="10"/>
<path d="M1505.77 1573.31L1398.56 1328.83L1589.67 1245.19L1505.77 1573.31ZM1505.77 1573.31L1841.37 1554.01L1967.22 1200.16L1612.98 1245.19L1822.73 1515.41" stroke="#263238" stroke-miterlimit="10"/>
<path d="M1841.37 1554.01L2027.82 1663.37" stroke="#263238" stroke-miterlimit="10"/>
<path d="M1398.56 1328.83C1398.56 1346.6 1388.13 1361 1375.26 1361C1362.39 1361 1351.95 1346.6 1351.95 1328.83C1351.95 1311.07 1362.39 1296.67 1375.26 1296.67C1388.13 1296.67 1398.56 1311.06 1398.56 1328.83Z" fill="white" stroke="#263238" stroke-miterlimit="10"/>
<path d="M1864.68 1554.01C1864.68 1571.77 1854.25 1586.17 1841.38 1586.17C1828.51 1586.17 1818.07 1571.77 1818.07 1554.01C1818.07 1536.24 1828.51 1521.84 1841.38 1521.84C1854.25 1521.84 1864.68 1536.24 1864.68 1554.01Z" fill="white" stroke="#263238" stroke-miterlimit="10"/>
<path d="M1612.98 1245.19C1612.98 1262.96 1602.54 1277.36 1589.67 1277.36C1576.8 1277.36 1566.37 1262.96 1566.37 1245.19C1566.37 1227.43 1576.8 1213.03 1589.67 1213.03C1602.54 1213.03 1612.98 1227.43 1612.98 1245.19Z" fill="white" stroke="#263238" stroke-miterlimit="10"/>
<path d="M1990.53 1200.16C1990.53 1217.92 1980.09 1232.33 1967.22 1232.33C1954.35 1232.33 1943.92 1217.92 1943.92 1200.16C1943.92 1182.4 1954.35 1167.99 1967.22 1167.99C1980.09 1167.99 1990.53 1182.4 1990.53 1200.16Z" fill="white" stroke="#263238" stroke-miterlimit="10"/>
<path d="M1529.07 1573.31C1529.07 1591.07 1518.64 1605.47 1505.77 1605.47C1492.9 1605.47 1482.46 1591.07 1482.46 1573.31C1482.46 1555.54 1492.9 1541.14 1505.77 1541.14C1518.64 1541.14 1529.07 1555.54 1529.07 1573.31Z" fill="white" stroke="#263238" stroke-miterlimit="10"/>
<path d="M1221.65 1068.08L1219.47 1164.22H1295.65L1297.83 1074.09L1221.65 1068.08Z" fill="#92E3A9" stroke="#263238" stroke-miterlimit="10"/>
<path d="M2067.47 1132.38L2065.29 1228.52H2141.48L2143.65 1138.4L2067.47 1132.38Z" fill="#92E3A9" stroke="#263238" stroke-miterlimit="10"/>
<path d="M1156.35 1269.36L1154.17 1365.5H1230.35L1232.53 1275.37L1156.35 1269.36Z" fill="#92E3A9" stroke="#263238" stroke-miterlimit="10"/>
<path d="M1167.23 1392.54L1165.05 1488.67H1241.23L1243.41 1398.55L1167.23 1392.54Z" fill="#92E3A9" stroke="#263238" stroke-miterlimit="10"/>
<path d="M1193.92 2035.18H829.694C796.293 2035.18 769.214 2072.56 769.214 2118.66C769.214 2164.76 796.293 2202.14 829.694 2202.14H1193.92C1159.38 2108.29 1193.92 2035.18 1193.92 2035.18Z" fill="#263238" stroke="#263238" stroke-width="3" stroke-miterlimit="10"/>
<path d="M1361.03 2035.18H996.802C963.401 2035.18 936.322 2072.56 936.322 2118.66C936.322 2164.76 963.401 2202.14 996.802 2202.14H1361.03C1326.49 2108.29 1361.03 2035.18 1361.03 2035.18Z" fill="white" stroke="#263238" stroke-miterlimit="10"/>
<path d="M1371.64 2213.27H996.796C959.003 2213.27 928.252 2170.82 928.252 2118.66C928.252 2066.5 959.003 2024.05 996.796 2024.05H1371.64C1376.09 2024.05 1379.71 2029.03 1379.71 2035.18C1379.71 2041.33 1376.09 2046.31 1371.64 2046.31H996.796C967.895 2046.31 944.38 2078.77 944.38 2118.66C944.38 2158.55 967.895 2191.01 996.796 2191.01H1371.64C1376.09 2191.01 1379.71 2195.99 1379.71 2202.14C1379.71 2208.28 1376.09 2213.27 1371.64 2213.27Z" fill="#263238"/>
<path d="M979.201 2048.41V2181.95" stroke="#263238" stroke-miterlimit="10"/>
<path d="M979.201 2093.42H1056.38" stroke="#263238" stroke-miterlimit="10"/>
<path d="M1004.2 2120.43H1059.65" stroke="#263238" stroke-miterlimit="10"/>
<path d="M981.373 2148.94H1098.78" stroke="#263238" stroke-miterlimit="10"/>
<path d="M955.003 1836.26H1319.23C1352.63 1836.26 1379.71 1878.54 1379.71 1930.69C1379.71 1982.83 1352.63 2025.11 1319.23 2025.11H955.003C989.544 1918.95 955.003 1836.26 955.003 1836.26Z" fill="#92E3A9" stroke="#263238" stroke-miterlimit="10"/>
<path d="M787.901 1847.21H1152.13C1185.53 1847.21 1212.61 1884.58 1212.61 1930.69C1212.61 1976.79 1185.53 2014.16 1152.13 2014.16H787.901C822.442 1920.31 787.901 1847.21 787.901 1847.21Z" fill="white" stroke="#263238" stroke-miterlimit="10"/>
<path d="M777.278 2025.29H1152.13C1189.92 2025.29 1220.67 1982.85 1220.67 1930.69C1220.67 1878.52 1189.92 1836.08 1152.13 1836.08H777.278C772.827 1836.08 769.214 1841.06 769.214 1847.21C769.214 1853.36 772.827 1858.34 777.278 1858.34H1152.13C1181.03 1858.34 1204.54 1890.79 1204.54 1930.69C1204.54 1970.58 1181.03 2003.03 1152.13 2003.03H777.278C772.827 2003.03 769.214 2008.02 769.214 2014.16C769.214 2020.31 772.827 2025.29 777.278 2025.29Z" fill="#92E3A9" stroke="#263238" stroke-miterlimit="10"/>
<path d="M1169.73 1860.43V1993.97" stroke="#263238" stroke-miterlimit="10"/>
<path d="M1169.73 1905.44H1092.54" stroke="#263238" stroke-miterlimit="10"/>
<path d="M1144.72 1932.45H1089.28" stroke="#263238" stroke-miterlimit="10"/>
<path d="M1167.55 1960.96H1050.14" stroke="#263238" stroke-miterlimit="10"/>
<path d="M3189.24 1766.31C3168.59 1758.81 3145.76 1742.3 3104.45 1742.3C3068.67 1742.3 3049.23 1767.03 3044.65 1773.66C3040.08 1767.03 3020.64 1742.3 2984.86 1742.3C2943.55 1742.3 2920.72 1758.81 2900.07 1766.31C2879.41 1773.82 2843.54 1779.82 2843.54 1779.82V1844.34H3034.87H3054.44H3245.77V1779.82C3245.77 1779.82 3209.9 1773.82 3189.24 1766.31Z" fill="white" stroke="#263238" stroke-miterlimit="10"/>
<path d="M3044.65 1824.84C3044.65 1824.84 3015.3 1790.33 2971.82 1791.82C2928.33 1793.32 2881.59 1811.33 2881.59 1811.33" stroke="#263238" stroke-miterlimit="10"/>
<path d="M3053.35 1812.83C3053.35 1812.83 3071.83 1790.33 3116.4 1796.33C3160.97 1802.33 3226.2 1818.83 3226.2 1818.83" stroke="#263238" stroke-miterlimit="10"/>
<path d="M3082.7 1782.82C3082.7 1782.82 3091.4 1776.82 3124.01 1782.82" stroke="#263238" stroke-miterlimit="10"/>
<path d="M3046.83 1818.83C3046.83 1818.83 3043.56 1785.82 3003.34 1772.32C2963.12 1758.81 2930.51 1773.82 2918.54 1779.82" stroke="#263238" stroke-miterlimit="10"/>
<path d="M3251.21 1736.31C3202.28 1725.81 3157.71 1646.28 3105.53 1668.78C3053.35 1691.29 3044.65 1773.67 3044.65 1773.67C3044.65 1773.67 3067.49 1707.8 3125.1 1715.3C3182.72 1722.8 3204.46 1769.32 3254.47 1769.32" stroke="#263238" stroke-miterlimit="10"/>
<path d="M3247.1 1847.62H2882.88C2849.48 1847.62 2822.4 1885 2822.4 1931.1C2822.4 1977.2 2849.48 2014.58 2882.88 2014.58H3247.1C3212.56 1920.73 3247.1 1847.62 3247.1 1847.62Z" fill="white" stroke="#263238" stroke-miterlimit="10"/>
<path d="M3257.73 2025.71H2882.88C2845.09 2025.71 2814.34 1983.27 2814.34 1931.1C2814.34 1878.94 2845.09 1836.49 2882.88 1836.49H3257.73C3262.18 1836.49 3265.79 1841.47 3265.79 1847.62C3265.79 1853.78 3262.18 1858.75 3257.73 1858.75H2882.88C2853.98 1858.75 2830.46 1891.21 2830.46 1931.1C2830.46 1970.99 2853.98 2003.45 2882.88 2003.45H3257.73C3262.18 2003.45 3265.79 2008.43 3265.79 2014.58C3265.79 2020.72 3262.18 2025.71 3257.73 2025.71Z" fill="#263238"/>
<path d="M2865.28 1860.85V1994.39" stroke="#263238" stroke-miterlimit="10"/>
<path d="M2865.28 1905.86H2942.46" stroke="#263238" stroke-miterlimit="10"/>
<path d="M2890.28 1932.87H2945.73" stroke="#263238" stroke-miterlimit="10"/>
<path d="M2867.45 1961.38H2984.86" stroke="#263238" stroke-miterlimit="10"/>
<path d="M3211.26 2035.18H2847.04C2813.64 2035.18 2786.56 2072.56 2786.56 2118.66C2786.56 2164.76 2813.64 2202.14 2847.04 2202.14H3211.26C3176.73 2108.29 3211.26 2035.18 3211.26 2035.18Z" fill="white" stroke="#263238" stroke-miterlimit="10"/>
<path d="M3221.89 2213.27H2847.04C2809.24 2213.27 2778.49 2170.82 2778.49 2118.66C2778.49 2066.5 2809.24 2024.05 2847.04 2024.05H3221.89C3226.34 2024.05 3229.95 2029.03 3229.95 2035.18C3229.95 2041.33 3226.34 2046.31 3221.89 2046.31H2847.04C2818.14 2046.31 2794.62 2078.77 2794.62 2118.66C2794.62 2158.55 2818.14 2191.01 2847.04 2191.01H3221.89C3226.34 2191.01 3229.95 2195.99 3229.95 2202.14C3229.95 2208.28 3226.34 2213.27 3221.89 2213.27Z" fill="#92E3A9" stroke="#263238" stroke-miterlimit="10"/>
<path d="M2829.44 2048.41V2181.95" stroke="#263238" stroke-miterlimit="10"/>
<path d="M2829.44 2093.42H2906.63" stroke="#263238" stroke-miterlimit="10"/>
<path d="M2854.44 2120.43H2909.88" stroke="#263238" stroke-miterlimit="10"/>
<path d="M2831.61 2148.94H2949.02" stroke="#263238" stroke-miterlimit="10"/>
<path opacity="0.2" d="M3306.24 2300.18L3290.63 2253.13H3259.87H3205.27H730.206L709.632 3472.64L854.784 2374.46L2026.75 3502.32H3263.23H3306.24H3752.45L3306.24 2300.18Z" fill="black"/>
<path d="M3233.2 3498.61H3263.23V2228.87H3187.97L3233.2 3498.61Z" fill="white" stroke="#263238" stroke-miterlimit="10"/>
<path d="M723.534 3498.61H693.504V2228.87H768.768L723.534 3498.61Z" fill="white" stroke="#263238" stroke-miterlimit="10"/>
<path d="M767.79 2253.96H692.628V2291.17H767.79V2253.96Z" fill="#263238"/>
<path d="M3232.51 2219.25H2707.27V3359.85H3232.51V2219.25Z" fill="white" stroke="#263238" stroke-miterlimit="10"/>
<path d="M3263.22 2253.13H2705.74V2315.15H3263.22V2253.13Z" fill="#263238" stroke="#263238" stroke-miterlimit="10"/>
<path d="M3300.86 2203.79H666.624V2263.15H3300.86V2203.79Z" fill="white" stroke="#263238" stroke-miterlimit="10"/>
<path d="M3201 2677.19H2749.29V2984.07H3201V2677.19Z" fill="white" stroke="#263238" stroke-miterlimit="10"/>
<path d="M3032.92 2808.71H2927.87V2852.55H3032.92V2808.71Z" fill="#263238" stroke="#263238" stroke-miterlimit="10"/>
<path d="M3201 3019.14H2749.29V3326.02H3201V3019.14Z" fill="white" stroke="#263238" stroke-miterlimit="10"/>
<path d="M3032.92 3150.66H2927.87V3194.5H3032.92V3150.66Z" fill="#263238" stroke="#263238" stroke-miterlimit="10"/>
<path d="M2796.77 2643.51L2893.23 2812.71H3260.99V2457.67L3196.68 2368.91L2796.77 2643.51Z" fill="#263238" stroke="#263238" stroke-miterlimit="10"/>
<path d="M3201 2335.25H2749.29V2642.12H3201V2335.25Z" fill="white" stroke="#263238" stroke-miterlimit="10"/>
<path d="M3032.92 2466.76H2927.87V2510.6H3032.92V2466.76Z" fill="#263238" stroke="#263238" stroke-miterlimit="10"/>
<path d="M2369.83 3333.54L2503.48 3456.99C2508.02 3460.68 2510.81 3467.41 2510.81 3474.68C2510.81 3486.88 2503.16 3496.38 2494.37 3495.09L2271.95 3462.43C2260.55 3460.76 2253.45 3444.58 2257.63 3429.87L2285.72 3316.26L2369.83 3333.54Z" fill="white" stroke="#263238" stroke-miterlimit="10"/>
<path d="M1682.69 3301.98L1538.84 3458.64C1534.3 3462.33 1531.51 3469.06 1531.51 3476.33C1531.51 3488.52 1539.17 3498.03 1547.96 3496.74L1770.38 3464.08C1781.77 3462.41 1788.88 3446.23 1784.7 3431.51L1771.39 3301.98H1682.69Z" fill="white" stroke="#263238" stroke-miterlimit="10"/>
<path d="M1782.87 1863.93C1782.87 1863.93 1766.76 1799.71 1761.4 1782.42C1756.03 1765.13 1714.87 1787.36 1714.87 1787.36C1714.87 1787.36 1693.39 1772.55 1684.45 1779.95C1675.5 1787.36 1668.34 1809.59 1668.34 1809.59C1668.34 1809.59 1646.87 1799.71 1641.5 1817C1636.13 1834.29 1634.34 1851.58 1634.34 1851.58C1634.34 1851.58 1620.02 1858.99 1620.02 1868.87C1620.02 1878.74 1612.86 1928.15 1627.18 1935.55C1641.5 1942.97 1641.5 1896.03 1641.5 1896.03C1641.5 1896.03 1659.39 1930.61 1671.92 1942.96C1684.45 1955.31 1716.66 1952.83 1716.66 1952.83L1782.87 1863.93Z" fill="white" stroke="#263238" stroke-miterlimit="10"/>
<path d="M1784.66 1851.58C1784.66 1851.58 1768.55 1844.17 1754.24 1854.05C1739.92 1863.93 1693.39 1950.38 1686.24 1970.14C1679.08 1989.9 1675.5 2029.42 1680.86 2039.29C1686.24 2049.17 1695.18 2031.88 1695.18 2031.88C1695.18 2031.88 1705.92 2019.53 1713.08 2012.12C1720.23 2004.71 1739.92 1992.36 1759.61 1987.42C1779.29 1982.48 1818.66 1893.56 1818.66 1893.56L1815.08 1873.8L1784.66 1851.58Z" fill="white" stroke="#263238" stroke-miterlimit="10"/>
<path d="M2666.88 1802.18C2666.88 1802.18 2804.67 1698.45 2820.78 1691.04C2836.89 1683.62 2894.15 1658.93 2921 1658.93C2947.84 1658.93 2962.15 1658.93 2965.73 1666.34C2969.32 1673.76 3008.68 1703.39 3017.63 1713.27C3026.57 1723.14 3040.89 1747.85 3030.16 1750.32C3019.42 1752.79 3001.52 1740.44 2996.16 1740.44C2990.79 1740.44 2956.79 1740.44 2947.84 1740.44C2938.9 1740.44 2903.1 1757.73 2885.21 1767.61C2867.32 1777.49 2820.79 1770.08 2820.79 1770.08L2720.58 1933.1L2666.88 1802.18Z" fill="white" stroke="#263238" stroke-miterlimit="10"/>
<path d="M1830.53 2322.52C1830.53 2322.52 1774.08 2359.62 1766.02 2400.43C1757.95 2441.24 1682.69 3301.98 1682.69 3301.98H1771.39L1964.93 2563.67C1964.93 2563.67 1903.1 2296.55 1830.53 2322.52Z" fill="#263238" stroke="#263238" stroke-miterlimit="10"/>
<path d="M1800.77 2491.3L1774.08 2430.11" stroke="#8A8A8A" stroke-miterlimit="10"/>
<path d="M1834.76 2222.07C1834.76 2222.07 1800.77 2461.65 1800.77 2491.29C1800.77 2520.93 1850.87 2585.15 1877.71 2595.03C1904.56 2604.91 2464.67 2651.84 2464.67 2651.84L2285.72 3316.25C2285.72 3316.25 2305.41 3348.35 2337.61 3340.95C2369.82 3333.54 2369.83 3333.54 2369.83 3333.54C2369.83 3333.54 2473.62 3093.95 2486.14 3049.49C2498.67 3005.03 2670.46 2585.14 2670.46 2545.63C2670.46 2506.11 2645.41 2481.4 2645.41 2481.4L2266.03 2330.74L2242.77 2315.92L1834.76 2222.07Z" fill="#263238" stroke="#263238" stroke-miterlimit="10"/>
<path d="M2464.67 2651.84L2585.86 2656.42" stroke="#8A8A8A" stroke-miterlimit="10"/>
<path d="M2072.77 1367.47C2072.77 1367.47 1909.93 1357.59 1904.56 1382.29C1899.19 1406.99 1870.56 1607.06 1870.56 1607.06C1870.56 1607.06 1764.98 1896.03 1732.77 1950.37C1700.56 2004.71 1709.51 2078.81 1761.4 2096.1C1813.3 2113.39 1854.46 2066.46 1854.46 2066.46C1854.46 2066.46 1820.45 2207.24 1829.4 2231.95C1838.35 2256.65 2008.35 2318.39 2099.62 2328.27C2190.88 2338.15 2242.78 2335.69 2257.09 2318.4C2271.41 2301.11 2289.3 2110.92 2300.04 2086.22C2310.78 2061.52 2341.2 1888.63 2341.2 1888.63C2341.2 1888.63 2473.62 2120.8 2507.62 2123.27C2541.62 2125.74 2684.78 1984.95 2684.78 1984.95C2684.78 1984.95 2661.52 1910.85 2641.84 1878.75C2622.15 1846.64 2591.73 1849.11 2591.73 1849.11L2545.21 1883.69C2545.21 1883.69 2462.89 1708.32 2450.36 1673.74C2437.84 1639.16 2446.78 1557.65 2436.05 1540.36C2425.31 1523.07 2339.41 1518.13 2339.41 1518.13L2085.31 1362.52L2072.77 1367.47Z" fill="white" stroke="#263238" stroke-miterlimit="10"/>
<path d="M2158.6 1596.24C2113.59 1643.01 2030.98 1738.9 2012.58 1829.58" stroke="#263238" stroke-miterlimit="10"/>
<path d="M2188.08 1567.17C2188.08 1567.17 2182.11 1572.6 2172.34 1582.29" stroke="#263238" stroke-miterlimit="10"/>
<path d="M1993.85 1780.06C1989.73 1791.42 1986.99 1801.83 1986.99 1809.4" stroke="#263238" stroke-miterlimit="10"/>
<path d="M2030.86 1703.42C2030.86 1703.42 2011.81 1736.3 1998.81 1767.39" stroke="#263238" stroke-miterlimit="10"/>
<path d="M2538.04 1098.25C2538.04 1098.25 2539.83 1155.06 2532.67 1182.24C2525.5 1209.41 2504.03 1231.63 2504.03 1243.99C2504.03 1256.33 2536.25 1335.37 2529.09 1342.79C2521.92 1350.2 2477.19 1360.07 2477.19 1360.07C2477.19 1360.07 2430.67 1461.35 2423.51 1466.28C2416.35 1471.22 2334.03 1429.23 2334.03 1429.23L2312.56 1458.87L2180.14 1365.01L2237.4 1295.85C2237.4 1295.85 2278.56 1221.76 2274.98 1145.19C2271.4 1068.62 2258.88 1001.93 2326.88 957.471C2394.88 913.009 2471.83 945.124 2514.77 999.462C2557.72 1053.79 2538.04 1098.25 2538.04 1098.25Z" fill="white" stroke="#263238" stroke-miterlimit="10"/>
<path d="M2375.19 1239.04H2407.4L2409.19 1169.88C2409.19 1169.88 2468.25 1167.41 2475.41 1155.06C2482.56 1142.71 2466.46 1088.38 2482.56 1083.44C2498.67 1078.49 2545.19 1115.54 2545.19 1115.54C2545.19 1115.54 2589.93 1110.6 2584.56 1019.21C2579.19 927.827 2478.98 868.547 2398.45 868.547C2317.93 868.547 2251.72 937.703 2244.55 1006.86C2237.39 1076.01 2246.34 1167.4 2248.14 1219.28C2249.93 1271.14 2210.56 1310.66 2232.03 1323.01C2253.5 1335.36 2339.4 1293.37 2353.71 1268.67C2368.04 1243.98 2375.19 1239.04 2375.19 1239.04Z" fill="#263238" stroke="#263238" stroke-miterlimit="10"/>
<path d="M2382.35 1248.92C2382.35 1248.92 2366.25 1152.59 2350.14 1182.23C2334.03 1211.87 2334.03 1281.03 2346.56 1300.79C2359.09 1320.55 2369.82 1305.74 2369.82 1305.74" fill="white"/>
<path d="M2382.35 1248.92C2382.35 1248.92 2366.25 1152.59 2350.14 1182.23C2334.03 1211.87 2334.03 1281.03 2346.56 1300.79C2359.09 1320.55 2369.82 1305.74 2369.82 1305.74" stroke="#263238" stroke-miterlimit="10"/>
<path d="M2373.41 1214.34L2538.04 1248.92" stroke="#263238" stroke-miterlimit="10"/>
<path d="M2525.3 1305.32C2537.36 1293.2 2545.2 1273.56 2545.2 1251.38C2545.2 1229.91 2537.84 1210.81 2526.42 1198.61" stroke="#263238" stroke-miterlimit="10"/>
<path d="M2337.61 1495.91C2337.61 1495.91 2282.14 1406.99 2246.35 1377.35C2210.56 1347.71 2138.98 1313.13 2117.51 1323.01C2096.04 1332.89 2072.77 1367.47 2072.77 1367.47C2072.77 1367.47 2155.09 1411.93 2224.88 1456.39C2294.67 1500.85 2350.14 1518.14 2350.14 1518.14L2337.61 1495.91Z" fill="white" stroke="#263238" stroke-miterlimit="10"/>
<path d="M1927.4 1471.5L1933.19 1424.28" stroke="#263238" stroke-miterlimit="10"/>
<path d="M1854.45 2066.47L1922.22 1513.8" stroke="#263238" stroke-miterlimit="10"/>
<path d="M1892.03 1779.95L1872.35 1626.81" stroke="#263238" stroke-miterlimit="10"/>
<path d="M1857.03 1744.66L1845.51 1715.74" stroke="#263238" stroke-miterlimit="10"/>
<path d="M1884.87 1814.53L1868.43 1773.27" stroke="#263238" stroke-miterlimit="10"/>
<path d="M2416.88 1764.82L2437.83 1730.56" stroke="#263238" stroke-miterlimit="10"/>
<path d="M2368.04 1755.25L2341.19 1888.63L2399.73 1792.88" stroke="#263238" stroke-miterlimit="10"/>
<path d="M2455.43 1817.36L2471.83 1807.12" stroke="#263238" stroke-miterlimit="10"/>
<path d="M2341.19 1888.63L2436.67 1829.06" stroke="#263238" stroke-miterlimit="10"/>
<path d="M2589.93 1992.37C2577.4 1972.61 2545.19 1883.69 2545.19 1883.69L2607.82 1967.67" stroke="#263238" stroke-miterlimit="10"/>
<path d="M2573.83 1856.52C2573.83 1856.52 2614.99 1893.57 2638.25 1940.5C2661.51 1987.43 2661.51 2034.36 2665.09 2046.71C2668.67 2059.06 2668.67 2076.34 2668.67 2076.34C2668.67 2076.34 2716.99 2029.42 2734.88 2012.12C2752.78 1994.83 2759.94 1997.3 2754.57 1972.6C2749.2 1947.9 2709.83 1841.7 2677.62 1802.18C2645.41 1762.66 2622.15 1789.83 2622.15 1789.83L2561.3 1851.58C2561.3 1851.58 2554.14 1854.05 2573.83 1856.52Z" fill="white" stroke="#263238" stroke-miterlimit="10"/>
<path d="M2342.97 1904.83H1802.06V2417.47H2342.97V1904.83Z" fill="#92E3A9" stroke="#263238" stroke-miterlimit="10"/>
<path d="M2315.55 2606.69H1824.49V2737.43H2315.55V2606.69Z" fill="#92E3A9" stroke="#263238" stroke-miterlimit="10"/>
<path d="M1826.99 1904.83H1802.06V3498.61H1826.99V1904.83Z" fill="white" stroke="#263238" stroke-miterlimit="10"/>
<path d="M2340.48 1904.83H2315.55V3498.61H2340.48V1904.83Z" fill="white" stroke="#263238" stroke-miterlimit="10"/>
<path d="M177.408 3498.61H3795.46" stroke="#263238" stroke-miterlimit="10"/>
</svg>
